<?xml version="1.0" encoding="UTF-8" standalone="no"?>
<svg
   xmlns:dc="http://purl.org/dc/elements/1.1/"
   xmlns:cc="http://creativecommons.org/ns#"
   xmlns:rdf="http://www.w3.org/1999/02/22-rdf-syntax-ns#"
   xmlns:svg="http://www.w3.org/2000/svg"
   xmlns="http://www.w3.org/2000/svg"
   xml:space="preserve"
   enable-background="new 0 0 306 344.35"
   viewBox="0 0 128 128"
   height="128"
   width="128"
   y="0px"
   x="0px"
   id="Layer_1"
   version="1.1"><metadata
   id="metadata25"><rdf:RDF><cc:Work
       rdf:about=""><dc:format>image/svg+xml</dc:format><dc:type
         rdf:resource="http://purl.org/dc/dcmitype/StillImage" /><dc:title></dc:title></cc:Work></rdf:RDF></metadata><defs
   id="defs23" />





<g
   transform="translate(1.5250001e-7,50.864512)"
   id="g838"><g
     id="g10"
     transform="matrix(0.43813387,0,0,0.43813235,-12.344827,-62.299949)">
	<path
   d="m 153,274.175 c -56.243,0 -102,-45.757 -102,-102 0,-56.243 45.757,-102 102,-102 36.292,0 70.139,19.53 88.331,50.968 l -44.143,25.544 C 188.083,130.951 171.15,121.175 153,121.175 c -28.122,0 -51,22.878 -51,51 0,28.121 22.878,51 51,51 18.152,0 35.085,-9.776 44.191,-25.515 l 44.143,25.543 c -18.192,31.441 -52.04,50.972 -88.334,50.972 z"
   id="path8"
   style="fill:#ffffff" />
</g><g
     id="g14"
     transform="matrix(0.43813387,0,0,0.43813235,-12.344827,-62.299949)">
	<polygon
   points="232.334,189.175 243.666,189.175 243.666,177.841 255,177.841 255,166.508 243.666,166.508 243.666,155.175 232.334,155.175 232.334,166.508 221,166.508 221,177.841 232.334,177.841 "
   id="polygon12"
   style="fill:#ffffff" />
</g><g
     id="g18"
     transform="matrix(0.43813387,0,0,0.43813235,-12.344827,-62.299949)">
	<polygon
   points="274.834,189.175 286.166,189.175 286.166,177.841 297.5,177.841 297.5,166.508 286.166,166.508 286.166,155.175 274.834,155.175 274.834,166.508 263.5,166.508 263.5,177.841 274.834,177.841 "
   id="polygon16"
   style="fill:#ffffff" />
</g></g>
</svg>