<svg viewBox="0 0 173.336 173.336"><g fill="#fff"><path d="M87.548 115.487l18.385-18.385a4 4 0 0 0-5.657-5.657L81.891 109.83 63.506 91.445 81.891 73.06a4 4 0 0 0-5.657-5.657L57.85 85.788l-6.364-6.364-11.314 11.314c-10.263 10.263-11.534 26.111-3.817 37.758l-17.396 17.396 8.486 8.486 17.396-17.396c11.647 7.717 27.495 6.445 37.758-3.818l11.314-11.314zM121.849 93.912l11.314-11.314c10.263-10.263 11.534-26.111 3.817-37.758l17.396-17.396-8.485-8.485-17.396 17.396c-11.647-7.718-27.495-6.446-37.758 3.817L79.423 51.486l42.426 42.426z"/></g></svg>