<?xml version="1.0" encoding="UTF-8" standalone="no"?>
<svg
   xmlns:dc="http://purl.org/dc/elements/1.1/"
   xmlns:cc="http://creativecommons.org/ns#"
   xmlns:rdf="http://www.w3.org/1999/02/22-rdf-syntax-ns#"
   xmlns:svg="http://www.w3.org/2000/svg"
   xmlns="http://www.w3.org/2000/svg"
   height="128"
   width="128"
   id="svg6"
   version="1.1"
   viewBox="0 0 128 128">
  <metadata
     id="metadata12">
    <rdf:RDF>
      <cc:Work
         rdf:about="">
        <dc:format>image/svg+xml</dc:format>
        <dc:type
           rdf:resource="http://purl.org/dc/dcmitype/StillImage" />
        <dc:title></dc:title>
      </cc:Work>
    </rdf:RDF>
  </metadata>
  <defs
     id="defs10" />
  <path
     style="stroke-width:0.20317461;fill:#ffffff"
     id="path4"
     d="m 85.983492,100.00051 c 2.578286,4.20978 5.932698,7.30412 11.865397,7.30412 4.983871,0 8.167621,-2.49092 8.167621,-5.93269 0,-4.124448 -3.27111,-5.585273 -8.756827,-7.984765 L 94.252698,92.097016 C 85.573079,88.399238 79.806984,83.766857 79.806984,73.973841 c 0,-9.020952 6.873397,-15.888254 17.615238,-15.888254 7.647488,0 13.145398,2.661588 17.107298,9.630476 l -9.36635,6.013969 c -2.06222,-3.697778 -4.28698,-5.15454 -7.740948,-5.15454 -3.523047,0 -5.755936,2.234921 -5.755936,5.15454 0,3.608381 2.23492,5.069206 7.395555,7.304127 l 3.006989,1.288127 c 10.21968,4.382476 15.98984,8.850285 15.98984,18.895234 0,10.82921 -8.50692,16.76191 -19.931432,16.76191 -11.17054,0 -18.387301,-5.32318 -21.918476,-12.30019 z m -42.489905,1.04228 c 1.889524,3.35238 3.608381,6.18667 7.740953,6.18667 3.951746,0 6.444698,-1.54616 6.444698,-7.558095 V 58.772317 h 12.027937 v 41.061588 c 0,12.454605 -7.302096,18.123175 -17.960635,18.123175 -9.630477,0 -15.207619,-4.98387 -18.043937,-10.98667 z" />
</svg>
