<svg viewBox="0 0 128 128"><path d="M85.983 100c2.578 4.21 5.933 7.304 11.865 7.304 4.984 0 8.168-2.49 8.168-5.933 0-4.124-3.271-5.585-8.757-7.984l-3.007-1.29c-8.68-3.698-14.446-8.33-14.446-18.124 0-9.02 6.873-15.888 17.615-15.888 7.647 0 13.145 2.662 17.107 9.63l-9.367 6.015c-2.062-3.698-4.287-5.155-7.74-5.155-3.524 0-5.756 2.235-5.756 5.155 0 3.608 2.235 5.07 7.395 7.304l3.007 1.288c10.22 4.383 15.99 8.85 15.99 18.895 0 10.83-8.507 16.762-19.93 16.762-11.172 0-18.388-5.323-21.919-12.3zm-42.49 1.042c1.89 3.353 3.608 6.187 7.741 6.187 3.952 0 6.445-1.546 6.445-7.558v-40.9h12.028v41.063c0 12.455-7.302 18.123-17.961 18.123-9.63 0-15.208-4.984-18.044-10.987z" fill="#fff"/></svg>