<svg viewBox="0 0 128 128"><g fill="#fff"><path d="M96.196 105.89H32.013c-5.444 0-9.875-4.428-9.875-9.874V31.832c0-5.446 4.431-9.874 9.875-9.874h64.183c5.446 0 9.875 4.428 9.875 9.874v64.184c0 5.446-4.43 9.874-9.875 9.874zM32.013 26.895a4.942 4.942 0 0 0-4.938 4.937v64.184a4.942 4.942 0 0 0 4.938 4.937h64.183a4.942 4.942 0 0 0 4.937-4.937V31.832a4.942 4.942 0 0 0-4.937-4.937z"/><path d="M42.144 24.426a2.47 2.47 0 0 1-4.937 0v-11.93a2.468 2.468 0 1 1 4.937 0zM51.917 24.426a2.468 2.468 0 1 1-4.937 0v-11.93a2.47 2.47 0 0 1 4.937 0zM61.893 24.426a2.47 2.47 0 0 1-4.938 0v-11.93a2.468 2.468 0 1 1 4.938 0zM71.767 24.426a2.468 2.468 0 1 1-4.937 0v-11.93a2.47 2.47 0 0 1 4.937 0zM81.232 24.426a2.47 2.47 0 0 1-4.938 0v-11.93a2.468 2.468 0 1 1 4.938 0zM91.002 24.426a2.468 2.468 0 1 1-4.937 0v-11.93a2.47 2.47 0 0 1 4.937 0zM24.402 85.885a2.468 2.468 0 1 1 0 4.937H12.469a2.468 2.468 0 1 1 0-4.937zM24.402 76.114a2.468 2.468 0 1 1 0 4.937H12.469a2.468 2.468 0 1 1 0-4.937zM24.402 66.136a2.47 2.47 0 0 1 0 4.94H12.469a2.47 2.47 0 0 1 0-4.94zM24.402 56.261a2.468 2.468 0 1 1 0 4.938H12.469a2.47 2.47 0 0 1 0-4.938zM24.402 46.797a2.47 2.47 0 0 1 0 4.937H12.469a2.468 2.468 0 1 1 0-4.937zM24.402 37.026a2.468 2.468 0 1 1 0 4.937H12.469a2.47 2.47 0 0 1 0-4.937zM115.533 85.885c1.365 0 2.468 1.103 2.468 2.468s-1.103 2.469-2.468 2.469h-11.929c-1.365 0-2.468-1.104-2.468-2.469s1.103-2.468 2.468-2.468zM115.533 76.114c1.365 0 2.468 1.1 2.468 2.466s-1.103 2.469-2.468 2.469h-11.929c-1.365 0-2.468-1.104-2.468-2.469s1.103-2.466 2.468-2.466zM115.533 66.133a2.47 2.47 0 1 1 0 4.942h-11.929a2.47 2.47 0 0 1 0-4.942zM115.533 56.261a2.468 2.468 0 1 1 0 4.937h-11.929a2.468 2.468 0 1 1 0-4.937zM115.533 46.794a2.468 2.468 0 1 1 0 4.938h-11.929a2.468 2.468 0 1 1 0-4.937zM115.533 37.026a2.468 2.468 0 1 1 0 4.937h-11.929a2.468 2.468 0 1 1 0-4.937zM42.144 115.518a2.47 2.47 0 0 1-4.937 0v-11.933a2.468 2.468 0 1 1 4.937 0zM51.917 115.518a2.468 2.468 0 1 1-4.937 0v-11.933a2.47 2.47 0 0 1 4.937 0zM61.893 115.518a2.47 2.47 0 0 1-4.938 0v-11.933a2.468 2.468 0 1 1 4.938 0zM71.767 115.518a2.468 2.468 0 1 1-4.937 0v-11.933a2.47 2.47 0 0 1 4.937 0zM81.232 115.518a2.47 2.47 0 0 1-4.938 0v-11.933a2.468 2.468 0 1 1 4.938 0zM91.002 115.518a2.468 2.468 0 1 1-4.937 0v-11.933a2.47 2.47 0 0 1 4.937 0z"/></g></svg>