<?xml version="1.0" encoding="UTF-8" standalone="no"?>
<svg
   xmlns:dc="http://purl.org/dc/elements/1.1/"
   xmlns:cc="http://creativecommons.org/ns#"
   xmlns:rdf="http://www.w3.org/1999/02/22-rdf-syntax-ns#"
   xmlns:svg="http://www.w3.org/2000/svg"
   xmlns="http://www.w3.org/2000/svg"
   height="128"
   width="128"
   id="svg56"
   xml:space="preserve"
   enable-background="new 0 0 50 50"
   viewBox="0 0 128 128"
   y="0px"
   x="0px"
   version="1.1"><metadata
     id="metadata62"><rdf:RDF><cc:Work
         rdf:about=""><dc:format>image/svg+xml</dc:format><dc:type
           rdf:resource="http://purl.org/dc/dcmitype/StillImage" /><dc:title></dc:title></cc:Work></rdf:RDF></metadata><defs
     id="defs60" /><g
     transform="matrix(2.4685714,0,0,2.4685714,2.389395,-158.24919)"
     style="fill:#ffffff"
     id="g950"><path
       d="M 38,107 H 12 c -2.205,0 -4,-1.794 -4,-4 V 77 c 0,-2.206 1.795,-4 4,-4 h 26 c 2.206,0 4,1.794 4,4 v 26 c 0,2.206 -1.794,4 -4,4 z M 12,75 c -1.103,0 -2,0.897 -2,2 v 26 c 0,1.103 0.897,2 2,2 h 26 c 1.103,0 2,-0.897 2,-2 V 77 c 0,-1.103 -0.897,-2 -2,-2 z"
       id="path2"
       style="fill:#ffffff" /><path
       d="m 16.104,74 c 0,0.552 -0.448,1 -1,1 v 0 c -0.553,0 -1,-0.448 -1,-1 v -4.833 c 0,-0.552 0.447,-1 1,-1 v 0 c 0.552,0 1,0.448 1,1 z"
       id="path4"
       style="fill:#ffffff" /><path
       d="m 20.063,74 c 0,0.552 -0.447,1 -1,1 v 0 c -0.552,0 -1,-0.448 -1,-1 v -4.833 c 0,-0.552 0.448,-1 1,-1 v 0 c 0.553,0 1,0.448 1,1 z"
       id="path6"
       style="fill:#ffffff" /><path
       d="m 24.104,74 c 0,0.552 -0.448,1 -1,1 v 0 c -0.553,0 -1,-0.448 -1,-1 v -4.833 c 0,-0.552 0.447,-1 1,-1 v 0 c 0.552,0 1,0.448 1,1 z"
       id="path8"
       style="fill:#ffffff" /><path
       d="m 28.104,74 c 0,0.552 -0.447,1 -1,1 v 0 c -0.552,0 -1,-0.448 -1,-1 v -4.833 c 0,-0.552 0.448,-1 1,-1 v 0 c 0.553,0 1,0.448 1,1 z"
       id="path10"
       style="fill:#ffffff" /><path
       d="m 31.938,74 c 0,0.552 -0.448,1 -1,1 v 0 c -0.553,0 -1,-0.448 -1,-1 v -4.833 c 0,-0.552 0.447,-1 1,-1 v 0 c 0.552,0 1,0.448 1,1 z"
       id="path12"
       style="fill:#ffffff" /><path
       d="m 35.896,74 c 0,0.552 -0.447,1 -1,1 v 0 c -0.552,0 -1,-0.448 -1,-1 v -4.833 c 0,-0.552 0.448,-1 1,-1 v 0 c 0.553,0 1,0.448 1,1 z"
       id="path14"
       style="fill:#ffffff" /><path
       d="m 8.917,98.896 c 0.552,0 1,0.447 1,1 v 0 c 0,0.553 -0.448,1 -1,1 H 4.083 c -0.552,0 -1,-0.447 -1,-1 v 0 c 0,-0.553 0.448,-1 1,-1 z"
       id="path16"
       style="fill:#ffffff" /><path
       d="m 8.917,94.938 c 0.552,0 1,0.447 1,1 v 0 c 0,0.553 -0.448,1 -1,1 H 4.083 c -0.552,0 -1,-0.447 -1,-1 v 0 c 0,-0.553 0.448,-1 1,-1 z"
       id="path18"
       style="fill:#ffffff" /><path
       d="m 8.917,90.896 c 0.552,0 1,0.448 1,1 v 0 c 0,0.553 -0.448,1.001 -1,1.001 H 4.083 c -0.552,0 -1,-0.448 -1,-1.001 v 0 c 0,-0.552 0.448,-1 1,-1 z"
       id="path20"
       style="fill:#ffffff" /><path
       d="m 8.917,86.896 c 0.552,0 1,0.447 1,1 v 0 c 0,0.552 -0.448,1 -1,1 H 4.083 c -0.552,0 -1,-0.448 -1,-1 v 0 c 0,-0.553 0.448,-1 1,-1 z"
       id="path22"
       style="fill:#ffffff" /><path
       d="m 8.917,83.062 c 0.552,0 1,0.448 1,1 v 0 c 0,0.553 -0.448,1 -1,1 H 4.083 c -0.552,0 -1,-0.447 -1,-1 v 0 c 0,-0.552 0.448,-1 1,-1 z"
       id="path24"
       style="fill:#ffffff" /><path
       d="m 8.917,79.104 c 0.552,0 1,0.447 1,1 v 0 c 0,0.552 -0.448,1 -1,1 H 4.083 c -0.552,0 -1,-0.448 -1,-1 v 0 c 0,-0.553 0.448,-1 1,-1 z"
       id="path26"
       style="fill:#ffffff" /><path
       d="m 45.833,98.896 c 0.553,0 1,0.447 1,1 v 0 c 0,0.553 -0.447,1 -1,1 h -4.832 c -0.553,0 -1,-0.447 -1,-1 v 0 c 0,-0.553 0.447,-1 1,-1 z"
       id="path28"
       style="fill:#ffffff" /><path
       d="m 45.833,94.938 c 0.553,0 1,0.446 1,0.999 v 0 c 0,0.553 -0.447,1 -1,1 h -4.832 c -0.553,0 -1,-0.447 -1,-1 v 0 c 0,-0.553 0.447,-0.999 1,-0.999 z"
       id="path30"
       style="fill:#ffffff" /><path
       d="m 45.833,90.895 c 0.553,0 1,0.448 1,1 v 0 c 0,0.553 -0.447,1.002 -1,1.002 h -4.832 c -0.553,0 -1,-0.449 -1,-1.002 v 0 c 0,-0.551 0.447,-1 1,-1 z"
       id="path32"
       style="fill:#ffffff" /><path
       d="m 45.833,86.896 c 0.553,0 1,0.447 1,1 v 0 c 0,0.552 -0.447,1 -1,1 h -4.832 c -0.553,0 -1,-0.448 -1,-1 v 0 c 0,-0.553 0.447,-1 1,-1 z"
       id="path34"
       style="fill:#ffffff" /><path
       d="m 45.833,83.061 c 0.553,0 1,0.448 1,1 v 0 c 0,0.553 -0.447,1 -1,1 h -4.832 c -0.553,0 -1,-0.447 -1,-1 v 0 c 0,-0.552 0.447,-1 1,-1 z"
       id="path36"
       style="fill:#ffffff" /><path
       d="m 45.833,79.104 c 0.553,0 1,0.447 1,1 v 0 c 0,0.552 -0.447,1 -1,1 h -4.832 c -0.553,0 -1,-0.448 -1,-1 v 0 c 0,-0.553 0.447,-1 1,-1 z"
       id="path38"
       style="fill:#ffffff" /><path
       d="m 16.104,110.896 c 0,0.552 -0.448,1 -1,1 v 0 c -0.553,0 -1,-0.448 -1,-1 v -4.834 c 0,-0.552 0.447,-1 1,-1 v 0 c 0.552,0 1,0.448 1,1 z"
       id="path40"
       style="fill:#ffffff" /><path
       d="m 20.063,110.896 c 0,0.552 -0.447,1 -1,1 v 0 c -0.552,0 -1,-0.448 -1,-1 v -4.834 c 0,-0.552 0.448,-1 1,-1 v 0 c 0.553,0 1,0.448 1,1 z"
       id="path42"
       style="fill:#ffffff" /><path
       d="m 24.104,110.896 c 0,0.552 -0.448,1 -1,1 v 0 c -0.553,0 -1,-0.448 -1,-1 v -4.834 c 0,-0.552 0.447,-1 1,-1 v 0 c 0.552,0 1,0.448 1,1 z"
       id="path44"
       style="fill:#ffffff" /><path
       d="m 28.104,110.896 c 0,0.552 -0.447,1 -1,1 v 0 c -0.552,0 -1,-0.448 -1,-1 v -4.834 c 0,-0.552 0.448,-1 1,-1 v 0 c 0.553,0 1,0.448 1,1 z"
       id="path46"
       style="fill:#ffffff" /><path
       d="m 31.938,110.896 c 0,0.552 -0.448,1 -1,1 v 0 c -0.553,0 -1,-0.448 -1,-1 v -4.834 c 0,-0.552 0.447,-1 1,-1 v 0 c 0.552,0 1,0.448 1,1 z"
       id="path48"
       style="fill:#ffffff" /><path
       d="m 35.896,110.896 c 0,0.552 -0.447,1 -1,1 v 0 c -0.552,0 -1,-0.448 -1,-1 v -4.834 c 0,-0.552 0.448,-1 1,-1 v 0 c 0.553,0 1,0.448 1,1 z"
       id="path50"
       style="fill:#ffffff" /></g></svg>