<svg viewBox="0 0 14.44 14.44"><g fill="#fff"><path d="M6.72 1.258c.302-.173.696-.174.998 0 1.518.858 3.037 1.714 4.555 2.573.285.16.476.479.473.808V9.8a.948.948 0 0 1-.509.826l-4.539 2.56a.993.993 0 0 1-1.008-.028l-1.362-.787c-.093-.055-.197-.1-.263-.19.058-.077.162-.087.246-.121.189-.06.363-.157.537-.25.044-.03.098-.02.14.008.388.222.772.45 1.162.671.083.048.167-.015.238-.055 1.485-.84 2.972-1.676 4.457-2.515a.147.147 0 0 0 .08-.145c.002-1.703 0-3.406.001-5.109a.16.16 0 0 0-.095-.159l-4.523-2.55a.157.157 0 0 0-.178 0c-1.508.85-3.015 1.701-4.523 2.55a.158.158 0 0 0-.095.16v5.108a.144.144 0 0 0 .082.143c.402.229.805.455 1.208.683.226.122.505.194.755.1a.573.573 0 0 0 .37-.538c.003-1.692 0-3.386.002-5.078-.005-.075.066-.137.14-.13.193-.002.386-.003.58 0 .08-.002.136.08.126.155-.001 1.704.002 3.407-.002 5.11.001.455-.186.949-.605 1.17-.518.269-1.157.212-1.668-.045-.443-.22-.865-.481-1.3-.718a.946.946 0 0 1-.508-.825V4.639a.94.94 0 0 1 .49-.818L6.72 1.258z"/><path d="M8.04 4.834c.66-.043 1.367-.026 1.96.3.46.249.715.771.724 1.282-.013.07-.085.107-.151.102-.192 0-.383.003-.575 0-.08.002-.128-.073-.138-.144-.055-.245-.188-.487-.419-.605-.353-.177-.762-.168-1.147-.164-.281.015-.584.04-.822.205-.183.125-.238.378-.173.581.062.146.23.194.368.237.796.208 1.639.187 2.419.461.323.112.639.329.75.667.144.453.08.995-.242 1.359-.262.299-.642.462-1.022.55-.506.113-1.03.116-1.543.066-.483-.055-.985-.182-1.358-.51-.318-.277-.474-.708-.458-1.124.003-.07.073-.12.14-.114.194-.001.386-.002.58 0 .076-.005.133.062.137.134.036.233.123.478.326.616.392.252.884.235 1.333.242.371-.016.789-.021 1.092-.267.16-.14.208-.375.164-.576-.047-.17-.225-.25-.378-.302-.785-.248-1.637-.158-2.414-.439-.316-.112-.621-.322-.743-.647-.169-.459-.091-1.026.265-1.378.347-.35.849-.484 1.325-.533z"/></g></svg>