<?xml version="1.0" encoding="UTF-8" standalone="no"?>
<svg
   xmlns:dc="http://purl.org/dc/elements/1.1/"
   xmlns:cc="http://creativecommons.org/ns#"
   xmlns:rdf="http://www.w3.org/1999/02/22-rdf-syntax-ns#"
   xmlns:svg="http://www.w3.org/2000/svg"
   xmlns="http://www.w3.org/2000/svg"
   xmlns:sodipodi="http://sodipodi.sourceforge.net/DTD/sodipodi-0.dtd"
   xmlns:inkscape="http://www.inkscape.org/namespaces/inkscape"
   id="svg19"
   style="display:block"
   version="1.1"
   viewBox="0 0 128 128"
   height="128"
   width="128"
   y="0"
   x="0"
   sodipodi:docname="opencv.svg"
   inkscape:version="0.92.4 (5da689c313, 2019-01-14)">
  <sodipodi:namedview
     pagecolor="#ffffff"
     bordercolor="#666666"
     borderopacity="1"
     objecttolerance="10"
     gridtolerance="10"
     guidetolerance="10"
     inkscape:pageopacity="0"
     inkscape:pageshadow="2"
     inkscape:window-width="1876"
     inkscape:window-height="1050"
     id="namedview11"
     showgrid="false"
     inkscape:zoom="1.84375"
     inkscape:cx="8.6779661"
     inkscape:cy="71.215613"
     inkscape:window-x="44"
     inkscape:window-y="0"
     inkscape:window-maximized="1"
     inkscape:current-layer="svg19" />
  <metadata
     id="metadata23">
    <rdf:RDF>
      <cc:Work
         rdf:about="">
        <dc:format>image/svg+xml</dc:format>
        <dc:type
           rdf:resource="http://purl.org/dc/dcmitype/StillImage" />
        <dc:title />
      </cc:Work>
    </rdf:RDF>
  </metadata>
  <defs
     id="defs7">
    <clipPath
       id="c0_1">
      <path
         id="path2"
         d="m 109.2,131.1 c -14.4,0 -26.9,-9.6 -30.6,-23.5 -3.8,-13.9 2.3,-28.5 14.7,-35.7 l 9.6,16.6 c -4.9,2.8 -7.4,8.6 -5.9,14.2 1.5,5.5 6.5,9.3 12.2,9.3 5.7,0 10.7,-3.8 12.2,-9.3 1.5,-5.6 -0.9,-11.4 -5.9,-14.2 l 9.6,-16.6 c 12.4,7.2 18.5,21.8 14.8,35.7 -3.8,13.9 -16.3,23.5 -30.7,23.5 z m -71.7,0 C 26.3,131.1 15.7,125.2 10,115.3 2.8,102.8 4.9,87.1 15,77 c 6.1,-6.2 14.3,-9.3 22.5,-9.3 5.4,0 10.9,1.4 15.8,4.2 l -9.5,16.6 c -2,-1.2 -4.2,-1.7 -6.3,-1.7 -3.3,0 -6.5,1.2 -9,3.7 -4,4 -4.8,10.3 -2,15.2 2.3,4 6.5,6.3 11,6.3 1,0 2.1,-0.1 3.2,-0.4 5.5,-1.5 9.4,-6.5 9.4,-12.2 h 19.1 c 0,14.4 -9.7,26.9 -23.5,30.6 -2.8,0.8 -5.5,1.1 -8.2,1.1 z M 57.1,64.2 C 44.7,57.1 38.6,42.4 42.3,28.5 46.1,14.7 58.6,5 73,5 c 14.4,0 26.9,9.7 30.6,23.5 3.8,13.9 -2.3,28.6 -14.7,35.7 L 79.3,47.7 C 84.2,44.8 86.7,39 85.2,33.5 83.7,28 78.7,24.1 73,24.1 c -5.7,0 -10.7,3.9 -12.2,9.4 -1.5,5.5 0.9,11.3 5.9,14.2 z" />
    </clipPath>
    <style
       id="style5"
       type="text/css"><![CDATA[

.g0_1{
fill: #D40000;
}

]]></style>
  </defs>
  <path
     d="M 51.016996,60.580103 C 41.114002,54.909838 36.242367,43.169994 39.197293,32.069053 42.232082,21.047974 52.214939,13.301274 63.715191,13.301274 c 11.500251,0 21.48311,7.7467 24.438035,18.767779 3.034789,11.100941 -1.836845,22.840785 -11.73984,28.51105 L 68.746551,47.402727 c 3.91328,-2.316023 5.909851,-6.948071 4.711909,-11.340531 -1.197943,-4.392458 -5.191086,-7.50711 -9.743269,-7.50711 -4.552183,0 -8.545326,3.114652 -9.743269,7.50711 -1.197943,4.39246 0.718766,9.024508 4.711908,11.340531 z"
     class="g0_1"
     id="path11"
     style="fill:#ffffff;stroke-width:0.79862863"
     inkscape:connector-curvature="0" />
  <path
     d="m 105.32375,66.729545 c 9.90299,5.750128 14.77462,17.410109 11.8197,28.511044 -3.03479,11.100951 -13.01764,18.767781 -24.517904,18.767781 -11.500251,0 -21.483109,-7.66683 -24.438035,-18.767781 -3.034789,-11.100935 1.836846,-22.760916 11.73984,-28.511044 l 7.666835,13.25724 c -3.91328,2.236161 -5.909851,6.868208 -4.711909,11.340523 1.197943,4.392461 5.191086,7.427251 9.743269,7.427251 4.55219,0 8.545334,-3.03479 9.743274,-7.427251 1.19794,-4.472315 -0.71877,-9.104362 -4.711911,-11.340523 z"
     class="g0_1"
     id="path13"
     style="fill:#ffffff;stroke-width:0.79862863"
     inkscape:connector-curvature="0" />
  <path
     d="m 60.680402,88.691834 c 0,11.500256 -7.746698,21.483126 -18.767772,24.438046 -11.100938,3.03479 -22.760915,-1.83684 -28.511041,-11.73984 -5.7501262,-9.982866 -4.0730061,-22.521335 3.993143,-30.587487 8.146011,-8.146014 20.684481,-9.823135 30.587475,-4.073008 l -7.586972,13.25724 c -3.993143,-2.316024 -8.94464,-1.677121 -12.219017,1.597258 -3.194515,3.194515 -3.833417,8.225875 -1.597257,12.139154 2.316022,3.993142 6.948068,5.909852 11.340526,4.711912 4.392457,-1.19795 7.507108,-5.191093 7.507108,-9.743275 z"
     class="g0_1"
     id="path15"
     style="fill:#ffffff;stroke-width:0.79862863"
     inkscape:connector-curvature="0" />
</svg>
