<?xml version="1.0" encoding="UTF-8" standalone="no"?>
<svg
   xmlns:dc="http://purl.org/dc/elements/1.1/"
   xmlns:cc="http://creativecommons.org/ns#"
   xmlns:rdf="http://www.w3.org/1999/02/22-rdf-syntax-ns#"
   xmlns:svg="http://www.w3.org/2000/svg"
   xmlns="http://www.w3.org/2000/svg"
   height="128"
   width="128"
   id="svg10"
   xml:space="preserve"
   enable-background="new 0 0 1000 1000"
   viewBox="0 0 128 128"
   y="0px"
   x="0px"
   version="1.1"><defs
   id="defs14" />
<metadata
   id="metadata2"> Svg Vector Icons : http://www.onlinewebfonts.com/icon <rdf:RDF><cc:Work
     rdf:about=""><dc:format>image/svg+xml</dc:format><dc:type
       rdf:resource="http://purl.org/dc/dcmitype/StillImage" /><dc:title></dc:title></cc:Work></rdf:RDF></metadata>
<g
   style="fill:#ffffff"
   transform="matrix(0.11021548,0,0,0.11021548,8.8922196,8.8950938)"
   id="g8"><path
     style="fill:#ffffff"
     id="path4"
     d="m 749.9,300.9 c -16,1.1 -19.6,5.5 -25.7,7.8 -2.7,3.8 -3.8,3.6 -4.5,10 7.6,8.3 12.7,11 25.7,14.5 12.4,-8.1 17.7,-8.6 24.6,-21.2 -5.3,-7.4 -9,-9.3 -20.1,-11.1 z m -348.4,8.9 c -3.4,1.9 -6.7,3.7 -10,5.6 -0.4,0.7 -0.7,1.5 -1.1,2.2 1.2,26.5 42.1,36.7 52.5,12.3 0.4,-3 0.7,-6 1.1,-8.9 -11.2,-8.2 -21.5,-11.9 -42.5,-11.2 z" /><path
     style="fill:#ffffff"
     id="path6"
     d="m 970.5,604.1 c -22.2,-15.1 -58.6,-3.5 -88.2,1.1 -20.4,3.2 -39.9,-2.7 -53.6,-6.7 -3.4,-10.6 15.1,-30 21.2,-40.2 17.5,-34.2 35,-68.5 52.5,-102.7 26.2,-60.3 93,-234.9 59.2,-321.6 C 930.4,54.2 815.2,7.9 696.9,10.1 681.6,12 666.4,13.8 651.1,15.7 632.5,20.5 613.9,25.4 595.3,30.2 565,27.8 525.5,15.4 487,22.4 c -17.5,4.5 -35,8.9 -52.5,13.4 -12.7,6.3 -25.3,12.7 -38,19 -8.9,-3.3 -17.9,-6.7 -26.8,-10 C 345.5,39.2 321.3,33.6 297.1,28.1 188.4,6.5 97.1,43.2 58.3,107.2 c -77.9,128.5 10.4,386.4 56.9,494.6 16.8,39 35.2,79.9 65.9,105 58.9,48.2 102.9,-16.7 130.6,-51.4 13,-14.5 26.1,-29 39.1,-43.5 3.7,-3.7 7.4,-7.4 11.2,-11.2 0,0 48.8,14.8 58.1,15.6 0,0.4 0,0.7 0,1.1 -7.8,10.7 -17.8,26.6 -30.1,32.4 -22.2,10.4 -98.4,12.7 -88.2,50.2 9.6,35.3 88,45.8 131.7,32.4 20.2,-6.2 35.9,-17.1 50.2,-29 0.4,25.3 0.7,50.6 1.1,75.9 13.9,89.1 -3.2,156.9 60.3,197.6 30.2,19.4 78.2,14.2 112.8,3.3 90.9,-28.5 84.8,-87.5 102.7,-186.5 4.1,-33.9 8.2,-67.7 12.3,-101.6 17.1,1.5 34.2,3 51.4,4.5 51.6,-8.1 85.4,-15.1 118.4,-39.1 16.7,-12.1 36.5,-25.6 27.8,-53.4 z M 695.8,39.1 c 95.8,-0.6 148.3,19.5 199.9,60.3 13.5,10.7 31,25.7 38,42.4 13.7,32.9 6.7,91.8 -1.1,126.2 -20.6,91 -50.3,173.8 -91.6,244.5 -10.3,17.6 -17.2,39.6 -31.3,53.6 0,0.7 0,1.5 0,2.2 -6,-5 13.4,-52.5 16.7,-72.6 8,-47.5 -15.9,-85 -7.8,-129.5 4.9,-27.2 16.6,-75.7 10,-107.2 C 813.6,187.3 759.2,120.1 708,82.6 690.3,69.6 668,61.7 650,48 c -0.7,-0.4 -1.5,-0.7 -2.2,-1.1 16,-2.6 32,-5.2 48,-7.8 z m 101.6,413.1 c 4.9,31.8 -5.5,57.7 -10,81.5 -0.7,0.4 -1.5,0.7 -2.2,1.1 C 780,524 774.8,513.2 769.6,502.4 746.3,462.6 723,421 708.2,372.9 c -6,-19.4 -9.9,-54.9 1.1,-71.5 15.3,-23.2 53.5,-21.5 90.4,-20.1 -3.3,29.8 -6.7,59.6 -10,89.3 2.5,27.3 5.1,54.4 7.7,81.6 z M 254.8,677.8 c -7.4,7.5 -18.5,21.1 -36.8,16.7 C 182.4,686.1 155.2,621.6 141,588.4 99.1,491.1 21.3,259.5 76.2,135.1 c 17.6,-40 55.3,-66.6 101.6,-78.2 16.4,-1.9 32.8,-3.7 49.1,-5.6 57.3,0.7 99.6,16.8 145.1,24.6 0,0.4 0,0.7 0,1.1 -52.9,69.2 -65,105.7 -81.5,213.3 0.7,34.6 1.5,69.2 2.2,103.8 -1.9,19 -3.7,38 -5.6,56.9 -10.6,65.6 24.3,102.4 50.2,132.9 -27.4,31.3 -55,62.6 -82.5,93.9 z m 61.4,-189.9 c -5,-27.5 1.6,-60.2 5.6,-87.1 -0.7,-27.9 -1.5,-55.8 -2.2,-83.7 13,-7.1 26.1,-14.1 39.1,-21.2 14.1,-3.7 28.3,-7.4 42.4,-11.2 17.2,-0.2 32.5,0.6 42.4,7.8 27.1,19.7 36.2,124.8 24.6,170.8 -6.7,26.5 -18.5,48.6 -27.9,71.5 -5.6,17.5 -11.2,35 -16.7,52.5 -62,-0.6 -97.6,-46.1 -107.3,-99.4 z M 468.1,680 c -37,30.9 -80.6,35 -132.9,16.7 -0.4,-0.7 -0.7,-1.5 -1.1,-2.2 24.9,-6.4 57.4,-10.7 77,-23.4 15.3,-16.4 30.5,-32.8 45.8,-49.1 38.2,1.2 29.5,42.7 11.2,58 z M 755,617.5 c -12.1,20.3 -6.2,57.6 -11.2,84.9 -19,105 0.2,221.1 -97.1,251.2 -17.9,5.5 -45.1,13.2 -68.1,6.7 -76.8,-21.8 -64.8,-155.3 -64.8,-253.5 0,-54.5 4.5,-93.8 -35.7,-109.4 -6.8,-2.6 -16.4,-5.8 -25.7,-3.3 -0.4,0 -0.7,0 -1.1,0 7.4,-21.2 14.9,-42.4 22.3,-63.6 8.6,-19.6 17.6,-40.3 23.4,-63.6 6.9,-27.6 6,-67.7 1.1,-96 -12.9,-74.7 -26.3,-137.1 -123.9,-110.5 -19.3,5.3 -37.1,14.1 -53.6,22.3 C 325,184.3 367.8,96 440.1,64.8 c 16,-4.5 32,-8.9 48,-13.4 8.6,-0.7 17.1,-1.5 25.7,-2.2 153,0.9 239.5,91.7 282.5,203.2 -94.5,-6.1 -144.4,32.4 -116.1,128.4 23.5,79.8 68.7,147.6 109.4,211 -13.4,9.2 -26.2,11.5 -34.6,25.7 z m 21.2,43.5 c -0.9,-30.4 7.8,-32.3 26.8,-42.4 14.3,2.1 25.4,11.5 41.3,14.5 31.9,6 64,-3.8 91.6,-6.7 -21.3,25.8 -112.1,57.8 -159.7,34.6 z" /></g>
</svg>