<?xml version="1.0" encoding="UTF-8" standalone="no"?>
<svg
   xmlns:dc="http://purl.org/dc/elements/1.1/"
   xmlns:cc="http://creativecommons.org/ns#"
   xmlns:rdf="http://www.w3.org/1999/02/22-rdf-syntax-ns#"
   xmlns:svg="http://www.w3.org/2000/svg"
   xmlns="http://www.w3.org/2000/svg"
   viewBox="0 0 128 128"
   height="128"
   width="128"
   xml:space="preserve"
   id="svg2"
   version="1.1"><metadata
     id="metadata8"><rdf:RDF><cc:Work
         rdf:about=""><dc:format>image/svg+xml</dc:format><dc:type
           rdf:resource="http://purl.org/dc/dcmitype/StillImage" /><dc:title></dc:title></cc:Work></rdf:RDF></metadata><defs
     id="defs6" /><g
     transform="matrix(1.3333333,0,0,1.3333333,0,3.2e-6)"
     id="g10"><g
       style="fill:#ffffff"
       id="g12"><path
         id="path14"
         style="fill:#ffffff;fill-opacity:1;fill-rule:nonzero;stroke:none"
         d="m 47.707,7.711 c -20.562,0 -19.277,8.918 -19.277,8.918 l 0.023,9.238 h 19.621 v 2.774 H 20.656 c 0,0 -13.156,-1.493 -13.156,19.254 0,20.75 11.484,20.015 11.484,20.015 h 6.856 v -9.629 c 0,0 -0.371,-11.484 11.301,-11.484 11.671,0 19.461,0 19.461,0 0,0 10.933,0.176 10.933,-10.57 0,-10.743 0,-17.766 0,-17.766 0,0 1.66,-10.75 -19.828,-10.75 z m -10.82,6.211 c 1.953,0 3.531,1.578 3.531,3.531 0,1.953 -1.578,3.531 -3.531,3.531 -1.949,0 -3.528,-1.578 -3.528,-3.531 0,-1.953 1.579,-3.531 3.528,-3.531 z" /><path
         id="path16"
         style="fill:#ffffff;fill-opacity:1;fill-rule:nonzero;stroke:none"
         d="m 48.293,88.289 c 20.562,0 19.277,-8.918 19.277,-8.918 L 67.547,70.133 H 47.926 v -2.774 h 27.418 c 0,0 13.156,1.493 13.156,-19.254 C 88.5,27.355 77.016,28.09 77.016,28.09 H 70.16 v 9.629 c 0,0 0.371,11.484 -11.301,11.484 -11.671,0 -19.461,0 -19.461,0 0,0 -10.933,-0.176 -10.933,10.57 0,10.743 0,17.766 0,17.766 0,0 -1.66,10.75 19.828,10.75 z m 10.82,-6.211 c -1.953,0 -3.531,-1.578 -3.531,-3.531 0,-1.953 1.578,-3.531 3.531,-3.531 1.949,0 3.528,1.578 3.528,3.531 0,1.953 -1.579,3.531 -3.528,3.531 z" /></g></g></svg>