<?xml version="1.0" encoding="UTF-8" standalone="no"?>
<svg
   xmlns:dc="http://purl.org/dc/elements/1.1/"
   xmlns:cc="http://creativecommons.org/ns#"
   xmlns:rdf="http://www.w3.org/1999/02/22-rdf-syntax-ns#"
   xmlns:svg="http://www.w3.org/2000/svg"
   xmlns="http://www.w3.org/2000/svg"
   height="128"
   width="128"
   xml:space="preserve"
   viewBox="0 0 128 128"
   y="0px"
   x="0px"
   id="Layer_1"
   version="1.1"><metadata
   id="metadata11"><rdf:RDF><cc:Work
       rdf:about=""><dc:format>image/svg+xml</dc:format><dc:type
         rdf:resource="http://purl.org/dc/dcmitype/StillImage" /><dc:title></dc:title></cc:Work></rdf:RDF></metadata><defs
   id="defs9" />
<style
   id="style2"
   type="text/css">
	.st0{fill:#333333;}
</style>
<g
   style="fill:#ffffff"
   transform="matrix(1.8,0,0,1.8,-22.4,-22.4)"
   id="XMLID_2_">
	<path
   style="fill:#ffffff"
   d="m 48,43.7 c 5.3,0 10.2,-0.5 14.8,-1.4 4.6,-1 8.2,-2.4 10.9,-4.3 v 5.7 c 0,1.5 -1.1,3 -3.4,4.3 -2.3,1.3 -5.4,2.4 -9.4,3.1 -4,0.7 -8.2,1.2 -12.9,1.2 -4.7,0 -8.9,-0.4 -12.9,-1.2 C 31.1,50.3 28,49.3 25.7,48 23.4,46.7 22.3,45.3 22.3,43.7 V 38 c 2.7,1.9 6.3,3.3 10.9,4.3 4.6,0.9 9.5,1.4 14.8,1.4 z m 0,25.7 c 5.3,0 10.2,-0.5 14.8,-1.4 4.6,-1 8.2,-2.4 10.9,-4.3 v 5.7 c 0,1.5 -1.1,3 -3.4,4.3 C 68,75 64.9,76.1 60.9,76.8 56.9,77.5 52.6,78 48,78 43.4,78 39.1,77.6 35.1,76.8 31.1,76 28,75 25.7,73.7 23.4,72.4 22.3,71 22.3,69.4 v -5.7 c 2.7,1.9 6.3,3.3 10.9,4.3 4.6,0.9 9.5,1.4 14.8,1.4 z m 0,-12.8 c 5.3,0 10.2,-0.5 14.8,-1.4 4.6,-0.9 8.2,-2.4 10.9,-4.3 v 5.7 c 0,1.5 -1.1,3 -3.4,4.3 -2.3,1.3 -5.4,2.4 -9.4,3.1 -4,0.8 -8.2,1.2 -12.9,1.2 -4.7,0 -8.9,-0.4 -12.9,-1.2 -4,-0.8 -7.1,-1.8 -9.4,-3.1 -2.3,-1.3 -3.4,-2.7 -3.4,-4.3 v -5.7 c 2.7,1.9 6.3,3.3 10.9,4.3 4.6,1 9.5,1.4 14.8,1.4 z M 48,18 c 4.6,0 8.9,0.4 12.9,1.2 4,0.8 7.1,1.8 9.4,3.1 2.3,1.3 3.4,2.7 3.4,4.3 v 4.3 c 0,1.5 -1.1,3 -3.4,4.3 -2.3,1.3 -5.4,2.4 -9.4,3.1 -4,0.7 -8.2,1.2 -12.9,1.2 -4.7,0 -8.9,-0.4 -12.9,-1.2 -4,-0.8 -7.1,-1.8 -9.4,-3.1 -2.3,-1.3 -3.4,-2.7 -3.4,-4.3 v -4.3 c 0,-1.5 1.1,-3 3.4,-4.3 C 28,21 31.1,19.9 35.1,19.2 39.1,18.4 43.4,18 48,18 Z"
   class="st0"
   id="XMLID_8_" />
</g>
</svg>