<?xml version="1.0" encoding="UTF-8" standalone="no"?>
<svg
   xmlns:dc="http://purl.org/dc/elements/1.1/"
   xmlns:cc="http://creativecommons.org/ns#"
   xmlns:rdf="http://www.w3.org/1999/02/22-rdf-syntax-ns#"
   xmlns:svg="http://www.w3.org/2000/svg"
   xmlns="http://www.w3.org/2000/svg"
   height="128"
   width="128"
   id="svg6"
   viewBox="0 0 128 128"
   version="1.1">
  <metadata
     id="metadata12">
    <rdf:RDF>
      <cc:Work
         rdf:about="">
        <dc:format>image/svg+xml</dc:format>
        <dc:type
           rdf:resource="http://purl.org/dc/dcmitype/StillImage" />
        <dc:title></dc:title>
      </cc:Work>
    </rdf:RDF>
  </metadata>
  <defs
     id="defs10" />
  <!--
The MIT License (MIT)

Copyright (c) 2015 Remo H. Jansen <remo.jansen@wolksoftware.com>

Permission is hereby granted, free of charge, to any person obtaining a copy
of this software and associated documentation files (the "Software"), to deal
in the Software without restriction, including without limitation the rights
to use, copy, modify, merge, publish, distribute, sublicense, and/or sell
copies of the Software, and to permit persons to whom the Software is
furnished to do so, subject to the following conditions:

The above copyright notice and this permission notice shall be included in
all copies or substantial portions of the Software.

THE SOFTWARE IS PROVIDED "AS IS", WITHOUT WARRANTY OF ANY KIND, EXPRESS OR
IMPLIED, INCLUDING BUT NOT LIMITED TO THE WARRANTIES OF MERCHANTABILITY,
FITNESS FOR A PARTICULAR PURPOSE AND NONINFRINGEMENT. IN NO EVENT SHALL THE
AUTHORS OR COPYRIGHT HOLDERS BE LIABLE FOR ANY CLAIM, DAMAGES OR OTHER
LIABILITY, WHETHER IN AN ACTION OF CONTRACT, TORT OR OTHERWISE, ARISING FROM,
OUT OF OR IN CONNECTION WITH THE SOFTWARE OR THE USE OR OTHER DEALINGS IN
THE SOFTWARE.
-->
  <g
     style="fill:#007acc;stroke:none"
     id="g4"
     transform="matrix(0.1,0,0,-0.1,0,128)">
    <path
       style="stroke-width:0.20317461;fill:#ffffff"
       id="path2"
       d="m 1031.5175,690.99683 c 32.5079,-8.12699 57.2952,-22.55239 80.0508,-46.12064 11.7841,-12.59682 29.2571,-35.55556 30.6793,-41.04127 0.4064,-1.6254 -55.2635,-39.00952 -88.9905,-59.93651 -1.219,-0.8127 -6.0952,4.46984 -11.5809,12.59683 -16.4572,23.9746 -33.727,34.33651 -60.13969,36.16508 -38.80635,2.64127 -63.79683,-17.67619 -63.59365,-51.60635 0,-9.95556 1.42222,-15.84762 5.48571,-23.9746 8.53333,-17.6762 24.38095,-28.24127 74.15873,-49.77778 91.6317,-39.41588 130.8444,-65.42222 155.2254,-102.4 27.2254,-41.24445 33.3206,-107.07302 14.8317,-156.0381 -20.3174,-53.23174 -70.7047,-89.39682 -141.6127,-101.38412 -21.9428,-3.86032 -73.95551,-3.2508 -97.52376,1.01587 -51.40318,9.14286 -100.16508,34.53968 -130.23492,67.86032 -11.78413,13.00317 -34.74286,46.93333 -33.32064,49.37142 0.60952,0.8127 5.89206,4.0635 11.78413,7.51746 5.68889,3.2508 27.22539,15.64445 47.54286,27.42858 l 36.7746,21.33333 7.72063,-11.37778 c 10.76826,-16.45714 34.33651,-39.00952 48.55873,-46.52698 40.8381,-21.53651 96.91427,-18.48889 124.54607,6.29841 11.7841,10.76825 16.6603,21.94286 16.6603,38.4 0,14.83175 -1.8286,21.33333 -9.5492,32.50794 -9.9556,14.22222 -30.273,26.20952 -87.97463,51.2 -66.03174,28.44444 -94.47619,46.12063 -120.48254,74.15873 -15.03492,16.25396 -29.25714,42.26031 -35.1492,64 -4.87619,18.08254 -6.09524,63.39047 -2.23492,81.67619 13.61269,63.79682 61.76508,108.29206 131.25079,121.49841 22.55238,4.26667 74.9714,2.64127 97.1175,-2.84444 z M 731.02222,637.5619 731.42857,585.14286 H 648.12698 564.8254 V 348.44444 111.74603 h -58.92064 -58.92063 v 236.69841 236.69842 h -83.30159 -83.30159 v 51.40317 c 0,28.44445 0.60953,52.21587 1.42222,52.8254 0.60953,0.8127 101.99366,1.21905 224.91429,1.01587 l 223.69524,-0.60952 z" />
  </g>
</svg>
