<svg viewBox="0 0 128 128"><g fill="#fff" stroke-width=".30988"><path d="m19.832 95.812-4.4549-2.572 49.628-85.955 4.4549 2.572z"/><path d="m14.357 86.373h99.255v5.144h-99.255z"/><path d="m65.967 117.93-49.646-28.664 2.572-4.4549 49.646 28.664zm43.127-74.706-49.646-28.664 2.572-4.4549 49.646 28.664z"/><path d="m18.907 43.202-2.572-4.4546 49.646-28.664 2.572 4.4549z"/><path d="m108.18 95.813-49.628-85.955 4.4549-2.572 49.628 85.955zm-89.887-60.477h5.144v57.328h-5.144z"/><path d="m104.56 35.336h5.144v57.328h-5.144z"/><path d="m65.091 115.75-2.2466-3.8915 43.179-24.93 2.2466 3.8912z"/><path d="m116.52 94.337c-2.9749 5.175-9.6063 6.9414-14.781 3.9665-5.175-2.9749-6.9414-9.6063-3.9665-14.781 2.9749-5.175 9.6063-6.9413 14.781-3.9665 5.206 3.0058 6.9723 9.6063 3.9665 14.781m-86.333-49.86c-2.9749 5.175-9.6063 6.9414-14.781 3.9665-5.175-2.9749-6.9413-9.6063-3.9665-14.781 2.9749-5.175 9.6063-6.9413 14.781-3.9665 5.175 3.0058 6.9413 9.6063 3.9665 14.781m-18.717 49.86c-2.9749-5.175-1.2085-11.776 3.9665-14.781 5.175-2.9749 11.775-1.2085 14.781 3.9665 2.9749 5.175 1.2085 11.776-3.9665 14.781-5.206 2.9749-11.806 1.2085-14.781-3.9665m86.333-49.86c-2.9749-5.175-1.2085-11.776 3.9665-14.781 5.175-2.9749 11.776-1.2085 14.781 3.9665 2.9749 5.175 1.2085 11.776-3.9665 14.781-5.175 2.9749-11.806 1.2085-14.781-3.9665m-33.808 80.197c-5.9807 0-10.815-4.8342-10.815-10.815s4.8342-10.815 10.815-10.815 10.815 4.8342 10.815 10.815c0 5.9497-4.8342 10.815-10.815 10.815m0-99.72c-5.9807 0-10.815-4.8342-10.815-10.815s4.8342-10.815 10.815-10.815 10.815 4.8342 10.815 10.815-4.8342 10.815-10.815 10.815"/></g></svg>
