<?xml version="1.0" encoding="UTF-8"?>
<svg width="128" height="128" version="1.1" viewBox="0 0 128 128" xmlns="http://www.w3.org/2000/svg" xmlns:cc="http://creativecommons.org/ns#" xmlns:dc="http://purl.org/dc/elements/1.1/" xmlns:rdf="http://www.w3.org/1999/02/22-rdf-syntax-ns#">
 <metadata>
  <rdf:RDF>
   <cc:Work rdf:about="">
    <dc:format>image/svg+xml</dc:format>
    <dc:type rdf:resource="http://purl.org/dc/dcmitype/StillImage"/>
    <dc:title/>
   </cc:Work>
  </rdf:RDF>
 </metadata>
 <g transform="translate(5.9405 6.6748)" fill="#fff" stroke-width=".27579">
  <path d="m18.75 85.638-3.9648-2.2891 44.168-76.499 3.9648 2.2891z"/>
  <path d="m13.878 77.237h88.336v4.5781h-88.336z"/>
  <path d="m59.81 105.32-44.185-25.511 2.2891-3.9648 44.185 25.511zm38.383-66.488-44.185-25.511 2.2891-3.9648 44.185 25.511z"/>
  <path d="m17.927 38.815-2.2891-3.9645 44.185-25.511 2.2891 3.9648z"/>
  <path d="m97.379 85.639-44.168-76.499 3.9648-2.2891 44.168 76.499zm-79.998-53.824h4.5781v51.021h-4.5781z"/>
  <path d="m94.161 31.814h4.5781v51.021h-4.5781z"/>
  <path d="m59.031 103.38-1.9995-3.4634 38.429-22.187 1.9995 3.4631z"/>
  <path d="m104.81 84.325c-2.6476 4.6057-8.5495 6.1777-13.155 3.5301-4.6057-2.6476-6.1777-8.5495-3.5301-13.155 2.6476-4.6057 8.5495-6.1777 13.155-3.5301 4.6333 2.6752 6.2053 8.5495 3.5301 13.155m-76.836-44.375c-2.6476 4.6057-8.5495 6.1777-13.155 3.5301-4.6057-2.6476-6.1777-8.5495-3.5301-13.155 2.6476-4.6057 8.5495-6.1777 13.155-3.5301 4.6057 2.6752 6.1777 8.5495 3.5301 13.155m-16.658 44.375c-2.6476-4.6057-1.0756-10.48 3.5301-13.155 4.6057-2.6476 10.48-1.0756 13.155 3.5301 2.6476 4.6057 1.0756 10.48-3.5301 13.155-4.6333 2.6476-10.508 1.0756-13.155-3.5301m76.836-44.375c-2.6476-4.6057-1.0756-10.48 3.5301-13.155 4.6057-2.6476 10.48-1.0756 13.155 3.5301 2.6476 4.6057 1.0756 10.48-3.5301 13.155-4.6057 2.6476-10.508 1.0756-13.155-3.5301m-30.089 71.375c-5.3228 0-9.6251-4.3024-9.6251-9.6251 0-5.3228 4.3023-9.6251 9.6251-9.6251s9.6251 4.3023 9.6251 9.6251c0 5.2952-4.3024 9.6251-9.6251 9.6251m0-88.75c-5.3228 0-9.6251-4.3023-9.6251-9.6251 0-5.3228 4.3023-9.6251 9.6251-9.6251s9.6251 4.3023 9.6251 9.6251c0 5.3228-4.3024 9.6251-9.6251 9.6251"/>
 </g>
</svg>
