<svg viewBox="0 0 128 128"><path d="M103.15 58.9c3.25.813 5.73 2.255 8.005 4.612 1.179 1.26 2.926 3.556 3.068 4.104.04.163-5.526 3.901-8.899 5.994-.122.081-.61-.447-1.158-1.26-1.646-2.397-3.373-3.433-6.014-3.616-3.88-.264-6.38 1.767-6.36 5.16 0 .996.143 1.585.55 2.398.852 1.767 2.437 2.824 7.415 4.978 9.163 3.941 13.084 6.542 15.523 10.24 2.722 4.124 3.332 10.707 1.483 15.604-2.032 5.323-7.07 8.94-14.16 10.138-2.195.386-7.396.325-9.753-.102-5.14-.914-10.017-3.454-13.023-6.786-1.179-1.3-3.475-4.693-3.332-4.937.06-.081.589-.406 1.178-.752.569-.325 2.723-1.564 4.754-2.743l3.678-2.133.772 1.138c1.077 1.645 3.434 3.9 4.856 4.652 4.084 2.154 9.691 1.85 12.455-.63 1.178-1.076 1.666-2.194 1.666-3.84 0-1.483-.183-2.133-.955-3.25-.996-1.422-3.027-2.621-8.798-5.12-6.603-2.845-9.447-4.612-12.048-7.416-1.503-1.625-2.925-4.226-3.514-6.4-.488-1.808-.61-6.34-.224-8.168 1.361-6.38 6.177-10.829 13.125-12.15 2.255-.426 7.497-.264 9.712.285zM73.1 64.243l.04 5.242H56.48v47.34H44.698v-47.34h-16.66v-5.14c0-2.844.06-5.221.142-5.282.06-.082 10.199-.122 22.49-.102l22.37.061z" fill="#fff"/></svg>