<?xml version="1.0" encoding="UTF-8"?><svg xmlns="http://www.w3.org/2000/svg" xml:space="preserve" width="500" height="500"><path fill="none" stroke="#38944e" stroke-linecap="square" stroke-linejoin="bevel" stroke-miterlimit="10" stroke-width="24.9" d="M-6.96 167c76.5-32.2 184-38.7 232-34.1s74.3 19.2 102 45.4 59.6 69.2 85.6 98.8 63.4 63.6 94.6 89.7m1.85-135c-17.2-29-31.9-60.8-47.4-89.4s-28-47.4-61.9-69.9c-33.9-22.6-91.3-37.8-159-39.7-67.5-1.96-177 13.1-247 40.3m1.53 292c32.6-13.4 65.1-26.2 96.3-33.4 50.4-11.5 95 7.02 134 27.3s71.8 39.4 111 62.2 127 68.3 163 87.7m5.72-62.1c-41.1-31-67.6-46.2-103-71.5s-58.1-43.2-84.6-66.2c-26.5-23-53.7-49.4-77.9-62-24.2-12.6-57.7-25-121-23.7-41.4.84-82 16.4-123 35.4m383 282c-52.2-27.7-138-71.8-179-84.1-41.2-12.2-69.2-17.6-104-15.6-34.9 2.05-68.9 11-102 20.9"/></svg>