<svg xmlns="http://www.w3.org/2000/svg" xmlns:xlink="http://www.w3.org/1999/xlink" xmlns:cc="http://creativecommons.org/ns#" xmlns:dc="http://purl.org/dc/elements/1.1/" xmlns:rdf="http://www.w3.org/1999/02/22-rdf-syntax-ns#"><defs><symbol viewBox="0 -1 96.125 96" id="svg-sprite-edit">
 <g fill="#fff" stroke-width=".202">
  <path d="m82.367 57.294c-1.1157 0-2.0199 0.90424-2.0199 2.0199v17.935c-0.0039 3.3455-2.7143 6.0567-6.0598 6.0598h-56.678c-3.3455-0.0032-6.0559-2.7143-6.0598-6.0598v-52.638c0.0039-3.3447 2.7143-6.0559 6.0598-6.0598h17.935c1.1157 0 2.0199-0.90424 2.0199-2.0199 0-1.1149-0.90424-2.0199-2.0199-2.0199h-17.935c-5.5754 0.0063-10.093 4.5244-10.1 10.1v52.639c0.00631 5.5754 4.5244 10.093 10.1 10.1h56.678c5.5754-0.0063 10.093-4.5244 10.1-10.1v-17.936c0-1.1157-0.90424-2.0199-2.0199-2.0199z" />
  <path d="m83.587 9.3135c-3.5499-3.5499-9.3052-3.5499-12.855 0l-36.037 36.037c-0.24697 0.24697-0.42529 0.55312-0.5184 0.88925l-4.739 17.109c-0.19489 0.70146 0.0032 1.4526 0.51761 1.9679 0.51524 0.51446 1.2664 0.7125 1.9679 0.5184l17.109-4.7398c0.33613-0.09311 0.64228-0.27143 0.88925-0.5184l36.036-36.038c3.5444-3.5523 3.5444-9.3028 0-12.855zm-44.491 37.35 29.494-29.494 9.5119 9.5119-29.494 29.494zm-1.9 3.8126 7.5993 7.6001-10.512 2.9124zm45.905-28.794-2.1422 2.1422-9.5127-9.5127 2.143-2.1422c1.9718-1.9718 5.169-1.9718 7.1408 0l2.3711 2.3703c1.9687 1.9742 1.9687 5.169 0 7.1424z" />
 </g>
</symbol><symbol viewBox="0 0 128 128" id="svg-sprite-tech-android"><g fill="#ffffff"><path d="m17.533 94.846c-3.7137 0-7.5321 2.9759-7.5321 8.1845 0 4.7618 3.3572 8.1248 7.5321 8.1248 3.4462 0 4.9817-2.3126 4.9817-2.3126v1.008c0 0.47675 0.45086 1.0085 1.0085 1.0085h2.4906v-15.658h-3.4991v1.9868s-1.5484-2.3428-4.9817-2.3428zm0.62346 3.2014c3.0568 0 4.6601 2.689 4.6601 4.9821 0 2.5542-1.9038 4.9795-4.6544 4.9795-2.2986 0-4.6015-1.8617-4.6015-5.0135 0-2.8449 1.9814-4.9481 4.5951-4.9481zm12.721 12.811c-0.53771 0-1.0085-0.38562-1.0085-1.008v-14.649h3.4991v1.9377c0.79279-1.1919 2.3423-2.2986 4.7202-2.2986 3.8864 0 5.9557 3.0978 5.9557 5.995v10.022h-2.4323c-0.63692 0-1.0668-0.53393-1.0668-1.0673v-8.1845c0-1.6055-0.98426-3.5557-3.2596-3.5557-2.455 0-3.9171 2.3201-3.9171 4.5048v8.3028zm23.367-16.013c-3.7132 0-7.5321 2.9759-7.5321 8.1845 0 4.7618 3.3572 8.1248 7.5321 8.1248 3.4462 0 4.9817-2.3126 4.9817-2.3126v1.008c0 0.47674 0.45086 1.0085 1.0085 1.0085h2.4911v-23.486h-3.4996v9.8157s-1.5484-2.3428-4.9817-2.3428zm0.62346 3.2014c3.0569 0 4.6609 2.689 4.6609 4.9821 0 2.5542-1.9038 4.9795-4.6544 4.9795-2.2991 0-4.6019-1.8617-4.6019-5.0135 0-2.8449 1.982-4.9481 4.5951-4.9481zm12.721 12.811c-0.53771 0-1.0085-0.38562-1.0085-1.008v-14.649h3.4996v2.6092c0.60188-1.4615 1.9016-2.7872 4.2104-2.7872 0.64395 0 1.2458 0.11868 1.2458 0.11868v3.6177s-0.75182-0.29665-1.6611-0.29665c-2.455 0-3.795 2.3202-3.795 4.5048v7.8901zm29.179 0c-0.53771 0-1.0085-0.38562-1.0085-1.008v-14.649h3.4996v15.657zm12.751-16.013c-3.7132 0-7.5314 2.9759-7.5314 8.1845 0 4.7618 3.3572 8.1248 7.5314 8.1248 3.4462 0 4.9821-2.3126 4.9821-2.3126v1.008c0 0.47675 0.45033 1.0085 1.0085 1.0085h2.4906v-23.486h-3.4991v9.8157s-1.5489-2.3428-4.9821-2.3428zm0.62346 3.2014c3.0574 0 4.6609 2.689 4.6609 4.9821 0 2.5542-1.9038 4.9795-4.6544 4.9795-2.2991 0-4.6019-1.8617-4.6019-5.0135 0-2.8449 1.982-4.9481 4.5955-4.9481z" stroke-width=".53933" /><circle cx="97.482" cy="89.51" r="2.3142" stroke-width=".53933" /><path d="m90.346 35.091 8.9593-15.519c0.50566-0.87004 0.20014-1.9753-0.65842-2.4806-0.85776-0.50566-1.9749-0.21206-2.4687 0.65805l-9.0764 15.719c-6.9252-3.1627-14.72-4.9258-23.103-4.9258s-16.177 1.7633-23.103 4.9258l-9.0764-15.72a1.8099 1.8099 0 0 0-2.4814-0.65805 1.8099 1.8099 0 0 0-0.65842 2.4806l8.9589 15.519c-15.448 8.3708-25.912 24.008-27.639 42.315h108c-1.7278-18.306-12.192-33.942-27.652-42.315zm-51.144 27.147c-2.5038 0-4.5263-2.0341-4.5263-4.5267 0-2.5039 2.0341-4.5267 4.5263-4.5267 2.5043 0 4.5267 2.0341 4.5267 4.5267 0.01172 2.4924-2.0219 4.5267-4.5267 4.5267zm49.579 0c-2.5038 0-4.5256-2.0341-4.5256-4.5267 0-2.5039 2.0337-4.5267 4.5256-4.5267 2.5047 0 4.5271 2.0341 4.5271 4.5267 0.01134 2.4924-2.0223 4.5267-4.5267 4.5267z" stroke-width=".40845" /><path d="m84.764 94.839c-3.8895 0-8.1618 2.9031-8.1618 8.1622 0 4.7924 3.6393 8.1535 8.1535 8.1535 5.563 0 8.2797-4.4719 8.2797-8.1232 0-4.4802-3.498-8.1921-8.2714-8.1921zm0.01247 3.2682c2.6896 0 4.6953 2.1675 4.6953 4.9035 0 2.7839-2.1292 4.9319-4.6873 4.9319-2.3746 0-4.6828-1.9324-4.6828-4.885 0-3.0018 2.195-4.9508 4.6749-4.9508z" stroke-width=".53933" /></g></symbol><symbol viewBox="0 0 128 128" id="svg-sprite-tech-cpp"><path d="M54.689 108.691c-24.642 0-44.69-20.047-44.69-44.689s20.048-44.689 44.69-44.689c15.9 0 30.73 8.557 38.7 22.33L74.05 52.836c-3.99-6.894-11.408-11.177-19.36-11.177-12.321 0-22.345 10.023-22.345 22.344 0 12.32 10.024 22.345 22.345 22.345 7.953 0 15.372-4.283 19.361-11.179l19.34 11.191c-7.97 13.775-22.8 22.332-38.701 22.332z" fill="#fff" /><path fill="#fff" d="M89.446 71.45h4.968v-4.968h4.964v-4.964h-4.964v-4.964h-4.968v4.964h-4.964v4.964h4.964zM108.066 71.45h4.969v-4.968h4.964v-4.964h-4.964v-4.964h-4.969v4.964h-4.964v4.964h4.964z" /></symbol><symbol viewBox="0 0 128 128" id="svg-sprite-tech-deep-learning">
 <metadata>
  <rdf:RDF>
   <cc:Work rdf:about="">
    <dc:format>image/svg+xml</dc:format>
    <dc:type rdf:resource="http://purl.org/dc/dcmitype/StillImage"></dc:type>
    <dc:title></dc:title>
   </cc:Work>
  </rdf:RDF>
 </metadata>
 <script id="svg-sprite-tech-deep-learning___gaOptOutExtension"></script>
 <marker id="svg-sprite-tech-deep-learning_a" overflow="visible" orient="auto">
  <path transform="matrix(-1.1,0,0,-1.1,-1.1,0)" d="m8.7186 4.0337-10.926-4.0177 10.926-4.0177c-1.7455 2.3721-1.7354 5.6175 0 8.0354z" stroke="#000" stroke-linejoin="round" />
 </marker>
 <g transform="translate(-88.5 -32.421)" stroke-width="2">
  <g transform="matrix(1.2108 0 0 1.2108 -32.15 -20.328)">
   <g fill="#fff" stroke="#fff">
    <g stroke-width="2.6489">
     <circle cx="152.5" cy="129.97" r="7.0988" />
     <circle cx="152.5" cy="108.12" r="7.0988" />
     <circle cx="152.5" cy="84.717" r="7.0988" />
     <circle cx="152.5" cy="62.872" r="7.0988" />
     <circle cx="116.33" cy="83.744" r="7.0988" />
     <circle cx="116.33" cy="109.1" r="7.0988" />
     <circle cx="188.67" cy="96.421" r="7.0988" />
    </g>
    <g stroke-width="2.8906">
     <path d="m122.96 83.744 22.908-20.872" />
     <path d="m122.96 109.1 22.908-46.225" />
     <path d="m122.96 83.744 22.908 0.97265" />
     <path d="m122.96 109.1 22.908-24.38" />
     <path d="m122.96 83.744 22.908 24.38" />
     <path d="m122.96 109.1 22.908-0.97265" />
     <path d="m122.96 83.744 22.908 46.225" />
     <path d="m122.96 109.1 22.908 20.872" />
     <path d="m159.13 62.872 22.908 33.549" />
     <path d="m159.13 84.717 22.908 11.704" />
     <path d="m159.13 108.12 22.908-11.704" />
     <path d="m159.13 129.97 22.908-33.549" />
    </g>
   </g>
  </g>
 </g>
</symbol><symbol viewBox="0 0 128 128" id="svg-sprite-tech-go"><style></style><g fill="#fff" stroke-width=".52583"><path d="m18.15 56.043c-0.21033 0-0.26292-0.10517-0.15775-0.26292l1.1043-1.4198c0.10517-0.15775 0.36808-0.26292 0.57842-0.26292h18.772c0.21033 0 0.26292 0.15775 0.15775 0.3155l-0.89392 1.3672c-0.10517 0.15775-0.36808 0.3155-0.52583 0.3155zm-7.9401 4.8377c-0.21033 0-0.26292-0.10517-0.15775-0.26292l1.1043-1.4198c0.10517-0.15775 0.36808-0.26292 0.57842-0.26292h23.978c0.21033 0 0.3155 0.15775 0.26292 0.3155l-0.42067 1.262c-0.05258 0.21033-0.26292 0.3155-0.47325 0.3155zm12.725 4.8377c-0.21033 0-0.26292-0.15775-0.15775-0.3155l0.73617-1.3146c0.10517-0.15775 0.3155-0.3155 0.52583-0.3155h10.517c0.21033 0 0.3155 0.15775 0.3155 0.36808l-0.10517 1.262c0 0.21033-0.21033 0.36808-0.36808 0.36808z" /><path d="m77.517 55.096c-3.3128 0.84134-5.5738 1.4723-8.834 2.3137-0.78875 0.21033-0.84134 0.26292-1.5249-0.52584-0.78875-0.89392-1.3672-1.4723-2.4714-1.9982-3.3128-1.6301-6.5203-1.1568-9.5176 0.78875-3.5757 2.3137-5.4161 5.7316-5.3635 9.9909 0.05258 4.2067 2.9447 7.6772 7.0988 8.2556 3.5757 0.47325 6.5729-0.78875 8.9392-3.4705 0.47325-0.57842 0.89392-1.2094 1.4198-1.9456h-10.149c-1.1043 0-1.3672-0.68358-0.99909-1.5775 0.68358-1.6301 1.9456-4.3644 2.6818-5.7316 0.15775-0.3155 0.52584-0.84134 1.3146-0.84134h19.14c-0.10517 1.4198-0.10517 2.8395-0.3155 4.2593-0.57842 3.786-1.9982 7.2565-4.3118 10.306-3.786 4.9954-8.7289 8.0979-14.986 8.9392-5.1532 0.68358-9.9383-0.3155-14.145-3.4705-3.8912-2.9447-6.0997-6.8358-6.6781-11.674-0.68358-5.7316 0.99909-10.885 4.4696-15.407 3.7334-4.8903 8.6763-7.9927 14.723-9.0969 4.9428-0.89392 9.6754-0.3155 13.935 2.5766 2.7869 1.8404 4.7851 4.3644 6.0997 7.4143 0.3155 0.47325 0.10517 0.73617-0.52584 0.89392z" /><path d="m94.922 84.175c-4.7851-0.10517-9.1495-1.4723-12.83-4.6273-3.1024-2.6818-5.048-6.0997-5.679-10.149-0.9465-5.9419 0.68358-11.2 4.2593-15.88 3.8386-5.048 8.4659-7.6772 14.723-8.7814 5.3635-0.9465 10.412-0.42067 14.986 2.6818 4.1541 2.8395 6.7307 6.6781 7.4143 11.726 0.89392 7.0988-1.1568 12.883-6.0471 17.826-3.4705 3.5231-7.7298 5.7316-12.62 6.7307-1.4198 0.26292-2.8395 0.3155-4.2067 0.47325zm12.515-21.244c-0.0526-0.68358-0.0526-1.2094-0.15775-1.7353-0.9465-5.2058-5.7316-8.1504-10.727-6.9936-4.8903 1.1043-8.0453 4.2067-9.2021 9.1495-0.9465 4.1015 1.0517 8.2556 4.8377 9.9383 2.8921 1.262 5.7842 1.1043 8.5711-0.3155 4.1541-2.1559 6.4152-5.5213 6.6781-10.043z" /></g></symbol><symbol viewBox="0 0 128 128" id="svg-sprite-tech-graphql">
 <metadata>
  <rdf:RDF>
   <cc:Work rdf:about="">
    <dc:format>image/svg+xml</dc:format>
    <dc:type rdf:resource="http://purl.org/dc/dcmitype/StillImage"></dc:type>
    <dc:title></dc:title>
   </cc:Work>
  </rdf:RDF>
 </metadata>
 <g transform="translate(5.9405 6.6748)" fill="#fff" stroke-width=".27579">
  <path d="m18.75 85.638-3.9648-2.2891 44.168-76.499 3.9648 2.2891z" />
  <path d="m13.878 77.237h88.336v4.5781h-88.336z" />
  <path d="m59.81 105.32-44.185-25.511 2.2891-3.9648 44.185 25.511zm38.383-66.488-44.185-25.511 2.2891-3.9648 44.185 25.511z" />
  <path d="m17.927 38.815-2.2891-3.9645 44.185-25.511 2.2891 3.9648z" />
  <path d="m97.379 85.639-44.168-76.499 3.9648-2.2891 44.168 76.499zm-79.998-53.824h4.5781v51.021h-4.5781z" />
  <path d="m94.161 31.814h4.5781v51.021h-4.5781z" />
  <path d="m59.031 103.38-1.9995-3.4634 38.429-22.187 1.9995 3.4631z" />
  <path d="m104.81 84.325c-2.6476 4.6057-8.5495 6.1777-13.155 3.5301-4.6057-2.6476-6.1777-8.5495-3.5301-13.155 2.6476-4.6057 8.5495-6.1777 13.155-3.5301 4.6333 2.6752 6.2053 8.5495 3.5301 13.155m-76.836-44.375c-2.6476 4.6057-8.5495 6.1777-13.155 3.5301-4.6057-2.6476-6.1777-8.5495-3.5301-13.155 2.6476-4.6057 8.5495-6.1777 13.155-3.5301 4.6057 2.6752 6.1777 8.5495 3.5301 13.155m-16.658 44.375c-2.6476-4.6057-1.0756-10.48 3.5301-13.155 4.6057-2.6476 10.48-1.0756 13.155 3.5301 2.6476 4.6057 1.0756 10.48-3.5301 13.155-4.6333 2.6476-10.508 1.0756-13.155-3.5301m76.836-44.375c-2.6476-4.6057-1.0756-10.48 3.5301-13.155 4.6057-2.6476 10.48-1.0756 13.155 3.5301 2.6476 4.6057 1.0756 10.48-3.5301 13.155-4.6057 2.6476-10.508 1.0756-13.155-3.5301m-30.089 71.375c-5.3228 0-9.6251-4.3024-9.6251-9.6251 0-5.3228 4.3023-9.6251 9.6251-9.6251s9.6251 4.3023 9.6251 9.6251c0 5.2952-4.3024 9.6251-9.6251 9.6251m0-88.75c-5.3228 0-9.6251-4.3023-9.6251-9.6251 0-5.3228 4.3023-9.6251 9.6251-9.6251s9.6251 4.3023 9.6251 9.6251c0 5.3228-4.3024 9.6251-9.6251 9.6251" />
 </g>
</symbol><symbol viewBox="0 0 173.336 173.336" id="svg-sprite-tech-hwint"><g fill="#fff"><path d="M87.548 115.487l18.385-18.385a4 4 0 0 0-5.657-5.657L81.891 109.83 63.506 91.445 81.891 73.06a4 4 0 0 0-5.657-5.657L57.85 85.788l-6.364-6.364-11.314 11.314c-10.263 10.263-11.534 26.111-3.817 37.758l-17.396 17.396 8.486 8.486 17.396-17.396c11.647 7.717 27.495 6.445 37.758-3.818l11.314-11.314zM121.849 93.912l11.314-11.314c10.263-10.263 11.534-26.111 3.817-37.758l17.396-17.396-8.485-8.485-17.396 17.396c-11.647-7.718-27.495-6.446-37.758 3.817L79.423 51.486l42.426 42.426z" /></g></symbol><symbol viewBox="0 0 128 128" id="svg-sprite-tech-js"><path d="M85.983 100c2.578 4.21 5.933 7.304 11.865 7.304 4.984 0 8.168-2.49 8.168-5.933 0-4.124-3.271-5.585-8.757-7.984l-3.007-1.29c-8.68-3.698-14.446-8.33-14.446-18.124 0-9.02 6.873-15.888 17.615-15.888 7.647 0 13.145 2.662 17.107 9.63l-9.367 6.015c-2.062-3.698-4.287-5.155-7.74-5.155-3.524 0-5.756 2.235-5.756 5.155 0 3.608 2.235 5.07 7.395 7.304l3.007 1.288c10.22 4.383 15.99 8.85 15.99 18.895 0 10.83-8.507 16.762-19.93 16.762-11.172 0-18.388-5.323-21.919-12.3zm-42.49 1.042c1.89 3.353 3.608 6.187 7.741 6.187 3.952 0 6.445-1.546 6.445-7.558v-40.9h12.028v41.063c0 12.455-7.302 18.123-17.961 18.123-9.63 0-15.208-4.984-18.044-10.987z" fill="#fff" /></symbol><symbol viewBox="0 0 128 128" id="svg-sprite-tech-kotlin"><g fill="#ffffff" stroke-width=".76562"><path d="m113 113h-94.172l49-49z" /><path d="m15 15h21.438l-21.438 21.438z" /><path d="m46.008 15-31.008 31.008v61.25c32.667-32.667 60.358-59.592 93.023-92.258z" /></g></symbol><symbol viewBox="0 0 128 128" id="svg-sprite-tech-microcontroller"><g fill="#fff"><path d="M96.196 105.89H32.013c-5.444 0-9.875-4.428-9.875-9.874V31.832c0-5.446 4.431-9.874 9.875-9.874h64.183c5.446 0 9.875 4.428 9.875 9.874v64.184c0 5.446-4.43 9.874-9.875 9.874zM32.013 26.895a4.942 4.942 0 0 0-4.938 4.937v64.184a4.942 4.942 0 0 0 4.938 4.937h64.183a4.942 4.942 0 0 0 4.937-4.937V31.832a4.942 4.942 0 0 0-4.937-4.937z" /><path d="M42.144 24.426a2.47 2.47 0 0 1-4.937 0v-11.93a2.468 2.468 0 1 1 4.937 0zM51.917 24.426a2.468 2.468 0 1 1-4.937 0v-11.93a2.47 2.47 0 0 1 4.937 0zM61.893 24.426a2.47 2.47 0 0 1-4.938 0v-11.93a2.468 2.468 0 1 1 4.938 0zM71.767 24.426a2.468 2.468 0 1 1-4.937 0v-11.93a2.47 2.47 0 0 1 4.937 0zM81.232 24.426a2.47 2.47 0 0 1-4.938 0v-11.93a2.468 2.468 0 1 1 4.938 0zM91.002 24.426a2.468 2.468 0 1 1-4.937 0v-11.93a2.47 2.47 0 0 1 4.937 0zM24.402 85.885a2.468 2.468 0 1 1 0 4.937H12.469a2.468 2.468 0 1 1 0-4.937zM24.402 76.114a2.468 2.468 0 1 1 0 4.937H12.469a2.468 2.468 0 1 1 0-4.937zM24.402 66.136a2.47 2.47 0 0 1 0 4.94H12.469a2.47 2.47 0 0 1 0-4.94zM24.402 56.261a2.468 2.468 0 1 1 0 4.938H12.469a2.47 2.47 0 0 1 0-4.938zM24.402 46.797a2.47 2.47 0 0 1 0 4.937H12.469a2.468 2.468 0 1 1 0-4.937zM24.402 37.026a2.468 2.468 0 1 1 0 4.937H12.469a2.47 2.47 0 0 1 0-4.937zM115.533 85.885c1.365 0 2.468 1.103 2.468 2.468s-1.103 2.469-2.468 2.469h-11.929c-1.365 0-2.468-1.104-2.468-2.469s1.103-2.468 2.468-2.468zM115.533 76.114c1.365 0 2.468 1.1 2.468 2.466s-1.103 2.469-2.468 2.469h-11.929c-1.365 0-2.468-1.104-2.468-2.469s1.103-2.466 2.468-2.466zM115.533 66.133a2.47 2.47 0 1 1 0 4.942h-11.929a2.47 2.47 0 0 1 0-4.942zM115.533 56.261a2.468 2.468 0 1 1 0 4.937h-11.929a2.468 2.468 0 1 1 0-4.937zM115.533 46.794a2.468 2.468 0 1 1 0 4.938h-11.929a2.468 2.468 0 1 1 0-4.937zM115.533 37.026a2.468 2.468 0 1 1 0 4.937h-11.929a2.468 2.468 0 1 1 0-4.937zM42.144 115.518a2.47 2.47 0 0 1-4.937 0v-11.933a2.468 2.468 0 1 1 4.937 0zM51.917 115.518a2.468 2.468 0 1 1-4.937 0v-11.933a2.47 2.47 0 0 1 4.937 0zM61.893 115.518a2.47 2.47 0 0 1-4.938 0v-11.933a2.468 2.468 0 1 1 4.938 0zM71.767 115.518a2.468 2.468 0 1 1-4.937 0v-11.933a2.47 2.47 0 0 1 4.937 0zM81.232 115.518a2.47 2.47 0 0 1-4.938 0v-11.933a2.468 2.468 0 1 1 4.938 0zM91.002 115.518a2.468 2.468 0 1 1-4.937 0v-11.933a2.47 2.47 0 0 1 4.937 0z" /></g></symbol><symbol viewBox="0 0 14.44 14.44" id="svg-sprite-tech-nodejs"><g fill="#fff"><path d="M6.72 1.258c.302-.173.696-.174.998 0 1.518.858 3.037 1.714 4.555 2.573.285.16.476.479.473.808V9.8a.948.948 0 0 1-.509.826l-4.539 2.56a.993.993 0 0 1-1.008-.028l-1.362-.787c-.093-.055-.197-.1-.263-.19.058-.077.162-.087.246-.121.189-.06.363-.157.537-.25.044-.03.098-.02.14.008.388.222.772.45 1.162.671.083.048.167-.015.238-.055 1.485-.84 2.972-1.676 4.457-2.515a.147.147 0 0 0 .08-.145c.002-1.703 0-3.406.001-5.109a.16.16 0 0 0-.095-.159l-4.523-2.55a.157.157 0 0 0-.178 0c-1.508.85-3.015 1.701-4.523 2.55a.158.158 0 0 0-.095.16v5.108a.144.144 0 0 0 .082.143c.402.229.805.455 1.208.683.226.122.505.194.755.1a.573.573 0 0 0 .37-.538c.003-1.692 0-3.386.002-5.078-.005-.075.066-.137.14-.13.193-.002.386-.003.58 0 .08-.002.136.08.126.155-.001 1.704.002 3.407-.002 5.11.001.455-.186.949-.605 1.17-.518.269-1.157.212-1.668-.045-.443-.22-.865-.481-1.3-.718a.946.946 0 0 1-.508-.825V4.639a.94.94 0 0 1 .49-.818L6.72 1.258z" /><path d="M8.04 4.834c.66-.043 1.367-.026 1.96.3.46.249.715.771.724 1.282-.013.07-.085.107-.151.102-.192 0-.383.003-.575 0-.08.002-.128-.073-.138-.144-.055-.245-.188-.487-.419-.605-.353-.177-.762-.168-1.147-.164-.281.015-.584.04-.822.205-.183.125-.238.378-.173.581.062.146.23.194.368.237.796.208 1.639.187 2.419.461.323.112.639.329.75.667.144.453.08.995-.242 1.359-.262.299-.642.462-1.022.55-.506.113-1.03.116-1.543.066-.483-.055-.985-.182-1.358-.51-.318-.277-.474-.708-.458-1.124.003-.07.073-.12.14-.114.194-.001.386-.002.58 0 .076-.005.133.062.137.134.036.233.123.478.326.616.392.252.884.235 1.333.242.371-.016.789-.021 1.092-.267.16-.14.208-.375.164-.576-.047-.17-.225-.25-.378-.302-.785-.248-1.637-.158-2.414-.439-.316-.112-.621-.322-.743-.647-.169-.459-.091-1.026.265-1.378.347-.35.849-.484 1.325-.533z" /></g></symbol><symbol viewBox="0 0 128 128" id="svg-sprite-tech-opencv"><path class="g0_1" d="M51.017 60.58c-9.903-5.67-14.775-17.41-11.82-28.511 3.035-11.021 13.018-18.768 24.518-18.768s21.483 7.747 24.438 18.768c3.035 11.101-1.837 22.841-11.74 28.511l-7.667-13.177c3.914-2.316 5.91-6.948 4.712-11.341-1.198-4.393-5.191-7.507-9.743-7.507s-8.545 3.115-9.743 7.507c-1.198 4.393.718 9.024 4.711 11.341zM105.32 66.73c9.903 5.75 14.775 17.41 11.82 28.511-3.035 11.101-13.018 18.768-24.518 18.768a25.218 25.218 0 0 1-24.438-18.768C65.149 84.14 70.021 72.48 79.924 66.73l7.667 13.257a10.058 10.058 0 0 0-4.712 11.341 10.089 10.089 0 0 0 9.743 7.427c4.552 0 8.545-3.034 9.743-7.427 1.198-4.472-.718-9.104-4.711-11.341zM60.68 88.692c0 11.5-7.747 21.483-18.768 24.438-11.101 3.035-22.761-1.837-28.511-11.74-5.75-9.983-4.073-22.521 3.993-30.587 8.146-8.146 20.684-9.823 30.587-4.073l-7.587 13.257c-3.993-2.316-8.945-1.677-12.219 1.597-3.194 3.195-3.833 8.226-1.597 12.14 2.316 3.992 6.948 5.91 11.34 4.711 4.393-1.198 7.508-5.19 7.508-9.743z" fill="#fff" /></symbol><symbol viewBox="0 0 128 128" id="svg-sprite-tech-postgresql"><g fill="#fff"><path d="M91.546 42.06c-1.763.122-2.16.607-2.832.86-.298.419-.42.397-.496 1.102.837.915 1.4 1.213 2.832 1.598 1.367-.892 1.951-.947 2.712-2.336-.585-.816-.992-1.025-2.216-1.224zm-38.4.981c-.375.21-.739.408-1.103.617-.044.078-.077.166-.12.243.131 2.92 4.64 4.045 5.786 1.356.044-.331.077-.662.12-.981-1.234-.904-2.369-1.312-4.683-1.235z" /><path d="M115.86 75.479c-2.446-1.664-6.458-.386-9.72.121-2.25.353-4.398-.297-5.908-.738-.375-1.169 1.664-3.307 2.336-4.431 1.929-3.77 3.858-7.55 5.787-11.32 2.887-6.646 10.25-25.89 6.525-35.446-3.44-8.796-16.136-13.9-29.175-13.657-1.687.21-3.362.408-5.049.618-2.05.529-4.1 1.069-6.15 1.598-3.34-.265-7.693-1.632-11.937-.86-1.929.496-3.857.981-5.786 1.477-1.4.694-2.789 1.4-4.189 2.094-.98-.364-1.973-.738-2.953-1.102-2.668-.617-5.335-1.235-8.002-1.84-11.981-2.381-22.044 1.664-26.321 8.718C6.732 34.874 16.464 63.3 21.59 75.225c1.851 4.3 3.88 8.807 7.263 11.574 6.492 5.312 11.342-1.841 14.395-5.666 1.433-1.598 2.877-3.196 4.31-4.794l1.234-1.235s5.379 1.632 6.404 1.72v.12c-.86 1.18-1.962 2.933-3.318 3.572-2.447 1.146-10.846 1.4-9.721 5.533 1.058 3.89 9.699 5.048 14.516 3.571 2.226-.683 3.956-1.885 5.533-3.196.044 2.788.077 5.577.12 8.366 1.533 9.82-.352 17.293 6.647 21.779 3.329 2.138 8.62 1.565 12.433.364 10.019-3.142 9.347-9.645 11.32-20.556.451-3.737.903-7.462 1.355-11.199l5.666.496c5.687-.892 9.412-1.664 13.05-4.31 1.84-1.333 4.023-2.82 3.064-5.885zM85.584 13.205c10.56-.066 16.346 2.149 22.033 6.646 1.488 1.18 3.417 2.833 4.189 4.673 1.51 3.627.738 10.118-.122 13.91-2.27 10.03-5.544 19.156-10.096 26.949-1.135 1.94-1.896 4.365-3.45 5.908v.242c-.661-.551 1.477-5.786 1.841-8.002.882-5.235-1.752-9.369-.86-14.273.54-2.998 1.83-8.344 1.102-11.816C98.567 29.54 92.571 22.132 86.928 18c-1.95-1.433-4.409-2.303-6.393-3.813-.077-.044-.165-.077-.242-.122l5.29-.86zm11.199 45.532c.54 3.505-.607 6.36-1.103 8.983-.077.044-.165.077-.242.12l-1.72-3.57c-2.568-4.387-5.136-8.972-6.767-14.274-.661-2.138-1.091-6.05.121-7.88 1.687-2.558 5.897-2.37 9.964-2.216-.364 3.285-.738 6.57-1.102 9.843.275 3.009.562 5.996.849 8.994zM36.976 83.602c-.815.827-2.039 2.326-4.056 1.84-3.924-.925-6.922-8.034-8.487-11.693-4.618-10.725-13.193-36.252-7.142-49.963 1.94-4.409 6.095-7.34 11.198-8.62 1.808-.209 3.616-.407 5.412-.617 6.316.078 10.978 1.852 15.993 2.712v.121c-5.83 7.627-7.164 11.65-8.983 23.51.077 3.814.165 7.627.243 11.44-.21 2.095-.408 4.19-.618 6.272-1.168 7.23 2.679 11.287 5.533 14.649-3.02 3.45-6.062 6.9-9.093 10.35zm6.768-20.93c-.551-3.032.176-6.636.617-9.6-.077-3.076-.165-6.151-.242-9.226 1.432-.783 2.876-1.554 4.31-2.337 1.553-.408 3.118-.815 4.672-1.234 1.896-.022 3.583.066 4.674.86 2.987 2.17 3.99 13.755 2.711 18.825-.738 2.92-2.039 5.357-3.075 7.88-.617 1.93-1.234 3.858-1.84 5.787-6.834-.066-10.758-5.08-11.827-10.956zm16.742 21.173c-4.078 3.405-8.884 3.857-14.648 1.84-.044-.077-.077-.165-.121-.242 2.744-.706 6.326-1.18 8.487-2.58 1.686-1.807 3.361-3.614 5.048-5.411 4.21.132 3.251 4.706 1.234 6.393zm31.622-6.89c-1.333 2.238-.683 6.35-1.234 9.359-2.094 11.573.022 24.37-10.703 27.687-1.972.606-4.97 1.455-7.506.738-8.464-2.402-7.142-17.117-7.142-27.94 0-6.007.496-10.339-3.935-12.058-.75-.287-1.807-.64-2.832-.364h-.122c.816-2.337 1.643-4.674 2.458-7.01.948-2.16 1.94-4.442 2.58-7.01.76-3.042.66-7.462.12-10.581-1.421-8.234-2.898-15.111-13.655-12.18-2.128.585-4.09 1.554-5.908 2.458.485-10.845 5.202-20.578 13.171-24.017 1.764-.496 3.527-.98 5.29-1.477.948-.077 1.885-.165 2.833-.242 16.864.1 26.398 10.107 31.137 22.397-10.415-.673-15.915 3.57-12.796 14.152 2.59 8.795 7.572 16.268 12.058 23.256-1.477 1.014-2.888 1.268-3.814 2.833zm2.337 4.796c-.1-3.351.86-3.56 2.954-4.674 1.576.232 2.8 1.268 4.552 1.598 3.516.662 7.054-.418 10.096-.738-2.348 2.844-12.356 6.37-17.602 3.814z" /></g></symbol><symbol viewBox="0 0 128 128" id="svg-sprite-tech-python"><g fill="#fff"><path d="M63.608 10.281c-27.416 0-25.702 11.89-25.702 11.89l.03 12.317h26.161v3.699H27.541S10 36.197 10 63.858C10 91.524 25.31 90.544 25.31 90.544h9.141V77.706s-.494-15.312 15.068-15.312h25.947s14.577.235 14.577-14.093V24.614s2.214-14.333-26.436-14.333zM49.18 18.562c2.604 0 4.708 2.104 4.708 4.708s-2.104 4.708-4.708 4.708c-2.598 0-4.703-2.104-4.703-4.708s2.105-4.708 4.703-4.708z" /><path d="M64.39 117.716c27.414 0 25.701-11.89 25.701-11.89l-.03-12.318H63.9V89.81h36.556s17.541 1.99 17.541-25.672c0-27.666-15.312-26.686-15.312-26.686h-9.14v12.839s.494 15.311-15.068 15.311H52.529s-14.577-.234-14.577 14.093v23.688s-2.213 14.333 26.437 14.333zm14.425-8.281c-2.604 0-4.708-2.104-4.708-4.708s2.104-4.708 4.708-4.708c2.599 0 4.704 2.104 4.704 4.708s-2.105 4.708-4.704 4.708z" /></g></symbol><symbol viewBox="0 0 128 128" id="svg-sprite-tech-sql"><path d="M64 56.26c9.54 0 18.36-.9 26.64-2.52 8.28-1.8 14.76-4.32 19.62-7.74v10.26c0 2.7-1.98 5.4-6.12 7.74s-9.72 4.32-16.92 5.58S72.46 71.74 64 71.74s-16.02-.72-23.22-2.16S28 66.34 23.86 64s-6.12-4.86-6.12-7.74V46c4.86 3.42 11.34 5.94 19.62 7.74 8.28 1.62 17.1 2.52 26.64 2.52zm0 46.26c9.54 0 18.36-.9 26.64-2.52 8.28-1.8 14.76-4.32 19.62-7.74v10.26c0 2.7-1.98 5.4-6.12 7.74s-9.72 4.32-16.92 5.58S72.28 118 64 118s-16.02-.72-23.22-2.16-12.78-3.24-16.92-5.58-6.12-4.86-6.12-7.74V92.26c4.86 3.42 11.34 5.94 19.62 7.74 8.28 1.62 17.1 2.52 26.64 2.52zm0-23.04c9.54 0 18.36-.9 26.64-2.52s14.76-4.32 19.62-7.74v10.26c0 2.7-1.98 5.4-6.12 7.74s-9.72 4.32-16.92 5.58c-7.2 1.44-14.76 2.16-23.22 2.16s-16.02-.72-23.22-2.16S28 89.56 23.86 87.22s-6.12-4.86-6.12-7.74V69.22c4.86 3.42 11.34 5.94 19.62 7.74s17.1 2.52 26.64 2.52zM64 10c8.28 0 16.02.72 23.22 2.16s12.78 3.24 16.92 5.58 6.12 4.86 6.12 7.74v7.74c0 2.7-1.98 5.4-6.12 7.74s-9.72 4.32-16.92 5.58S72.46 48.7 64 48.7s-16.02-.72-23.22-2.16S28 43.3 23.86 40.96s-6.12-4.86-6.12-7.74v-7.74c0-2.7 1.98-5.4 6.12-7.74s9.72-4.32 16.92-5.58C47.98 10.72 55.72 10 64 10z" fill="#fff" /></symbol><symbol viewBox="0 0 128 128" id="svg-sprite-tech-ts"><path d="M103.15 58.9c3.25.813 5.73 2.255 8.005 4.612 1.179 1.26 2.926 3.556 3.068 4.104.04.163-5.526 3.901-8.899 5.994-.122.081-.61-.447-1.158-1.26-1.646-2.397-3.373-3.433-6.014-3.616-3.88-.264-6.38 1.767-6.36 5.16 0 .996.143 1.585.55 2.398.852 1.767 2.437 2.824 7.415 4.978 9.163 3.941 13.084 6.542 15.523 10.24 2.722 4.124 3.332 10.707 1.483 15.604-2.032 5.323-7.07 8.94-14.16 10.138-2.195.386-7.396.325-9.753-.102-5.14-.914-10.017-3.454-13.023-6.786-1.179-1.3-3.475-4.693-3.332-4.937.06-.081.589-.406 1.178-.752.569-.325 2.723-1.564 4.754-2.743l3.678-2.133.772 1.138c1.077 1.645 3.434 3.9 4.856 4.652 4.084 2.154 9.691 1.85 12.455-.63 1.178-1.076 1.666-2.194 1.666-3.84 0-1.483-.183-2.133-.955-3.25-.996-1.422-3.027-2.621-8.798-5.12-6.603-2.845-9.447-4.612-12.048-7.416-1.503-1.625-2.925-4.226-3.514-6.4-.488-1.808-.61-6.34-.224-8.168 1.361-6.38 6.177-10.829 13.125-12.15 2.255-.426 7.497-.264 9.712.285zM73.1 64.243l.04 5.242H56.48v47.34H44.698v-47.34h-16.66v-5.14c0-2.844.06-5.221.142-5.282.06-.082 10.199-.122 22.49-.102l22.37.061z" fill="#fff" /></symbol><symbol viewBox="0 0 128 128" id="svg-sprite-tech-vuejs"><g fill="none"><path d="M75.762 18.992L63.995 39.373l-11.767-20.38H33.423l30.572 52.95 30.572-52.95z" stroke="#fff" stroke-width="3.516767" /><path d="M13.044 18.992l50.953 88.253 50.953-88.253H94.568L63.997 71.944 33.426 18.992z" stroke="#fff" stroke-width="3.5172453999999997" /></g></symbol><symbol viewBox="0 0 128 128" id="svg-sprite-tech-web"><path d="M117.87 60.4C116.1 33.443 94.557 11.894 67.6 10.122V10h-7.2v.122C33.443 11.894 11.894 33.443 10.122 60.4H10v7.2h.122c1.772 26.957 23.321 48.5 50.278 50.27v.13h7.2v-.13c26.957-1.77 48.5-23.313 50.27-50.27h.13v-7.2zM43.804 21.772c-3.478 4.622-6.365 10.418-8.467 17.028H24.55a47.047 47.047 0 0 1 19.253-17.028zM20.786 46h12.657a85.506 85.506 0 0 0-1.771 14.4H17.337A46.395 46.395 0 0 1 20.786 46zm-3.45 21.6h14.336c.194 5.018.806 9.85 1.771 14.4H20.786a46.395 46.395 0 0 1-3.45-14.4zm7.215 21.6H35.33c2.102 6.61 4.99 12.406 8.474 17.028A46.995 46.995 0 0 1 24.551 89.2zM60.4 110.34c-7.402-1.98-13.774-9.93-17.64-21.14H60.4zm0-28.34H40.737c-1.015-4.486-1.656-9.331-1.865-14.4H60.4zm0-21.6H38.872c.209-5.069.85-9.914 1.865-14.4H60.4zm0-21.6H42.76c3.866-11.21 10.238-19.16 17.64-21.132zm43.049 0H92.678c-2.11-6.61-4.99-12.406-8.482-17.028A47.092 47.092 0 0 1 103.449 38.8zM67.6 17.668c7.394 1.973 13.774 9.922 17.64 21.132H67.6zM67.6 46h19.656c1.022 4.486 1.649 9.331 1.872 14.4H67.6zm0 21.6h21.528c-.209 5.069-.85 9.914-1.872 14.4H67.6zm0 42.74V89.2h17.64c-3.866 11.21-10.246 19.16-17.64 21.14zm16.596-4.112c3.478-4.63 6.372-10.418 8.482-17.028h10.77a47.04 47.04 0 0 1-19.252 17.028zM107.214 82H94.557a85.506 85.506 0 0 0 1.771-14.4h14.328a46.186 46.186 0 0 1-3.442 14.4zM96.328 60.4A85.506 85.506 0 0 0 94.557 46h12.657a46.395 46.395 0 0 1 3.45 14.4z" fill="#fff" /></symbol><symbol viewBox="0 0 128 128" id="svg-sprite-tech-webpack"><path d="M109.69 93.238L65.919 118V98.718l27.273-15.006zm2.998-2.712V38.75l-16.01 9.254v33.284zm-94.385 2.712L62.074 118V98.718L34.787 83.712zm-2.998-2.712V38.75l16.011 9.254v33.284zm1.88-55.133L62.074 10v18.636L33.308 44.46l-.23.13zm93.624 0L65.92 10v18.636l28.765 15.81.23.13zM62.078 95.175L35.164 80.369v-29.31l26.914 15.537zm3.845 0l26.914-14.791V51.06L65.923 66.597zM64 65.478zM36.986 47.674L64 32.825l27.014 14.849L64 63.269z" fill="#fff" /></symbol></defs></svg>