<?xml version="1.0" encoding="UTF-8"?>
<svg width="128" height="128" version="1.1" viewBox="0 -1 96.125 96" xmlns="http://www.w3.org/2000/svg">
 <g fill="#fff" stroke-width=".202">
  <path d="m82.367 57.294c-1.1157 0-2.0199 0.90424-2.0199 2.0199v17.935c-0.0039 3.3455-2.7143 6.0567-6.0598 6.0598h-56.678c-3.3455-0.0032-6.0559-2.7143-6.0598-6.0598v-52.638c0.0039-3.3447 2.7143-6.0559 6.0598-6.0598h17.935c1.1157 0 2.0199-0.90424 2.0199-2.0199 0-1.1149-0.90424-2.0199-2.0199-2.0199h-17.935c-5.5754 0.0063-10.093 4.5244-10.1 10.1v52.639c0.00631 5.5754 4.5244 10.093 10.1 10.1h56.678c5.5754-0.0063 10.093-4.5244 10.1-10.1v-17.936c0-1.1157-0.90424-2.0199-2.0199-2.0199z"/>
  <path d="m83.587 9.3135c-3.5499-3.5499-9.3052-3.5499-12.855 0l-36.037 36.037c-0.24697 0.24697-0.42529 0.55312-0.5184 0.88925l-4.739 17.109c-0.19489 0.70146 0.0032 1.4526 0.51761 1.9679 0.51524 0.51446 1.2664 0.7125 1.9679 0.5184l17.109-4.7398c0.33613-0.09311 0.64228-0.27143 0.88925-0.5184l36.036-36.038c3.5444-3.5523 3.5444-9.3028 0-12.855zm-44.491 37.35 29.494-29.494 9.5119 9.5119-29.494 29.494zm-1.9 3.8126 7.5993 7.6001-10.512 2.9124zm45.905-28.794-2.1422 2.1422-9.5127-9.5127 2.143-2.1422c1.9718-1.9718 5.169-1.9718 7.1408 0l2.3711 2.3703c1.9687 1.9742 1.9687 5.169 0 7.1424z"/>
 </g>
</svg>
