<?xml version="1.0" standalone="no"?>
<!DOCTYPE svg PUBLIC "-//W3C//DTD SVG 20010904//EN"
 "http://www.w3.org/TR/2001/REC-SVG-20010904/DTD/svg10.dtd">
<svg version="1.0" xmlns="http://www.w3.org/2000/svg"
 width="700.000000pt" height="700.000000pt" viewBox="0 0 700.000000 700.000000"
 preserveAspectRatio="xMidYMid meet">
<metadata>
Created by potrace 1.14, written by Peter Selinger 2001-2017
</metadata>
<g transform="translate(0.000000,700.000000) scale(0.100000,-0.100000)"
fill="#000000" stroke="none">
<path d="M3017 6734 c-1 -1 -74 -5 -162 -8 -88 -4 -178 -8 -200 -10 -22 -2
-80 -7 -130 -10 -49 -4 -112 -9 -140 -11 -27 -3 -79 -7 -115 -10 -36 -3 -85
-7 -110 -10 -25 -2 -72 -7 -105 -10 -33 -3 -76 -8 -95 -10 -19 -3 -57 -7 -85
-10 -27 -2 -108 -14 -180 -25 -71 -11 -146 -22 -165 -25 -19 -3 -57 -10 -85
-15 -27 -5 -61 -12 -75 -14 -339 -64 -652 -148 -1075 -292 -104 -35 -212 -72
-240 -83 l-50 -19 -3 -186 c-1 -102 -1 -186 2 -186 5 0 241 87 286 106 19 8
44 17 55 19 11 3 88 28 170 55 319 108 666 198 980 255 89 16 205 35 245 40
25 3 56 8 70 10 23 4 42 7 148 19 20 3 66 8 102 11 36 3 81 8 100 10 19 2 67
7 105 10 39 3 90 8 115 10 25 3 83 7 130 10 47 3 109 8 138 10 164 14 320 19
607 19 280 1 577 -8 594 -18 3 -2 38 -7 77 -10 39 -4 80 -8 90 -10 16 -3 92
-14 144 -21 53 -8 217 -40 313 -61 61 -14 122 -28 133 -30 21 -4 240 -75 409
-134 214 -73 458 -221 695 -419 30 -25 66 -55 79 -66 143 -120 300 -327 519
-685 31 -51 180 -354 248 -505 61 -136 131 -275 181 -360 16 -27 81 -146 144
-264 l114 -213 3 358 2 359 -50 102 c-28 56 -63 131 -79 165 -66 146 -86 188
-134 288 -159 331 -462 778 -639 945 -240 226 -600 476 -817 566 -278 116
-703 239 -981 283 -19 3 -46 8 -60 10 -73 13 -222 33 -300 41 -36 3 -81 8
-100 10 -122 13 -240 18 -513 20 -169 1 -308 1 -310 -1z"/>
<path d="M2208 5384 c-2 -1 -59 -5 -128 -9 -69 -4 -138 -8 -155 -10 -16 -1
-61 -6 -100 -9 -73 -8 -123 -14 -165 -21 -14 -3 -47 -7 -75 -10 -27 -3 -72
-10 -100 -15 -27 -6 -99 -19 -160 -30 -124 -23 -134 -25 -340 -75 -320 -78
-602 -168 -917 -293 l-68 -27 0 -189 c0 -146 3 -187 13 -183 6 3 82 33 167 67
85 34 164 66 175 70 200 84 816 255 1025 285 24 4 47 8 51 11 3 2 21 5 40 8
19 2 45 7 59 10 14 3 43 8 65 11 22 3 56 8 75 11 63 9 94 13 160 19 36 4 76 8
90 10 154 26 883 25 1083 0 18 -2 48 -6 67 -9 170 -22 433 -84 613 -145 135
-46 281 -106 319 -133 14 -10 29 -18 32 -18 16 0 250 -179 340 -260 284 -255
377 -357 697 -760 84 -107 161 -204 170 -215 51 -61 193 -225 224 -259 6 -6
60 -69 120 -141 60 -71 112 -132 115 -135 3 -3 45 -52 95 -110 93 -109 240
-260 335 -344 30 -27 143 -135 250 -240 235 -230 336 -321 466 -417 55 -40
101 -75 104 -78 3 -3 15 -15 28 -25 l22 -19 0 220 0 220 -62 52 c-35 29 -173
160 -308 290 -135 131 -270 260 -300 287 -65 59 -211 210 -270 279 -23 28 -52
61 -64 75 -12 14 -50 59 -85 100 -106 125 -162 190 -250 290 -47 52 -198 237
-337 410 -290 362 -317 394 -474 550 -136 135 -201 196 -290 269 -36 30 -67
57 -70 60 -3 3 -41 33 -85 67 -153 116 -285 193 -438 253 -238 95 -579 186
-807 216 -25 3 -56 8 -70 10 -31 5 -121 14 -225 21 -79 6 -653 13 -657 8z"/>
<path d="M1828 4026 c-1 -2 -70 -6 -153 -10 -82 -3 -161 -8 -175 -10 -14 -3
-54 -7 -90 -11 -174 -16 -413 -65 -615 -126 -116 -36 -485 -163 -532 -185 -17
-8 -34 -14 -38 -14 -4 0 -21 -6 -38 -14 -18 -7 -66 -27 -107 -44 l-75 -30 -3
-190 -2 -190 162 68 c257 106 690 259 838 295 82 21 246 55 285 60 17 3 41 7
55 10 14 3 45 7 70 10 25 3 65 7 90 10 117 13 189 16 360 16 198 0 249 -3 447
-26 356 -42 816 -217 1139 -432 82 -55 220 -143 307 -197 232 -145 302 -198
506 -393 88 -82 165 -146 346 -286 123 -95 256 -205 335 -277 19 -17 57 -50
84 -73 27 -23 54 -47 60 -52 56 -53 166 -134 312 -231 96 -64 293 -204 437
-313 144 -108 301 -220 347 -250 120 -76 617 -409 728 -487 l92 -65 0 213 -1
213 -37 26 c-157 108 -456 306 -542 359 -58 36 -222 153 -365 260 -286 215
-305 228 -438 315 -149 97 -224 153 -346 259 -64 55 -118 102 -121 105 -24 27
-179 155 -340 280 -107 83 -235 189 -285 235 -49 45 -110 100 -134 122 -25 21
-58 52 -75 67 -70 65 -224 172 -430 301 -120 76 -253 161 -295 191 -195 137
-616 318 -916 394 -100 25 -278 57 -370 66 -38 4 -73 9 -76 11 -4 2 -89 6
-190 10 -101 3 -189 7 -196 9 -6 2 -13 2 -15 1z"/>
<path d="M1648 2575 c-2 -2 -49 -5 -105 -9 -56 -3 -108 -8 -115 -11 -7 -2 -35
-6 -63 -9 -41 -4 -231 -39 -270 -50 -76 -20 -117 -32 -210 -62 -60 -20 -119
-39 -130 -44 -11 -5 -58 -22 -105 -39 -131 -46 -363 -130 -385 -140 -11 -5
-75 -30 -142 -57 l-123 -47 0 -189 0 -188 37 16 c21 8 61 24 88 35 28 11 59
24 70 28 91 40 701 263 845 309 96 30 248 65 330 76 25 3 56 8 70 11 113 22
459 26 575 7 191 -32 332 -71 555 -154 159 -59 190 -75 412 -210 142 -85 258
-141 358 -173 228 -73 263 -90 520 -260 224 -148 546 -346 655 -402 44 -23
136 -64 205 -93 146 -60 560 -263 738 -362 67 -37 125 -68 127 -68 3 0 51 -28
107 -63 95 -59 156 -92 529 -285 75 -39 163 -87 195 -107 l59 -35 263 0 262 0
0 43 c0 41 -2 43 -62 82 -255 161 -401 246 -588 342 -303 156 -394 206 -470
253 -41 26 -111 66 -155 90 -44 23 -93 50 -110 60 -115 68 -613 310 -780 380
-101 43 -197 90 -270 134 -171 101 -383 234 -505 316 -251 169 -380 235 -565
290 -106 31 -175 64 -345 165 -283 167 -286 169 -519 251 -240 86 -447 137
-641 160 -47 6 -337 13 -342 9z"/>
<path d="M1289 1006 c-2 -2 -42 -6 -89 -10 -47 -3 -101 -9 -120 -11 -32 -5
-195 -30 -265 -41 -16 -3 -48 -9 -70 -14 -22 -5 -56 -12 -75 -15 -19 -3 -55
-11 -80 -16 -25 -6 -56 -13 -70 -15 -37 -7 -236 -59 -387 -102 l-133 -37 0
-181 0 -181 188 54 c208 59 427 115 512 129 14 2 36 7 50 10 14 3 36 8 50 10
14 3 48 9 75 14 28 5 70 12 95 15 25 4 65 10 90 15 25 5 83 11 130 15 47 4
101 9 120 11 105 10 419 4 545 -11 22 -3 63 -7 90 -10 127 -15 332 -64 589
-141 155 -47 288 -86 296 -89 16 -3 212 -66 340 -108 160 -53 414 -124 525
-147 22 -4 85 -20 140 -35 55 -14 107 -28 115 -30 8 -3 47 -13 85 -24 242 -67
171 -61 755 -59 l530 3 -142 57 c-218 86 -697 240 -1003 323 -33 9 -85 23
-115 31 -30 8 -170 44 -310 79 -140 36 -327 87 -415 115 -88 28 -209 67 -270
86 -384 123 -800 241 -905 258 -55 9 -240 35 -295 41 -58 7 -570 17 -576 11z"/>
</g>
</svg>
