<?xml version="1.0" encoding="UTF-8" standalone="no"?>
<svg
   xmlns:dc="http://purl.org/dc/elements/1.1/"
   xmlns:cc="http://creativecommons.org/ns#"
   xmlns:rdf="http://www.w3.org/1999/02/22-rdf-syntax-ns#"
   xmlns:svg="http://www.w3.org/2000/svg"
   xmlns="http://www.w3.org/2000/svg"
   xmlns:sodipodi="http://sodipodi.sourceforge.net/DTD/sodipodi-0.dtd"
   xmlns:inkscape="http://www.inkscape.org/namespaces/inkscape"
   width="500"
   height="500"
   version="1.1"
   viewBox="0 0 499.99999 500"
   xml:space="preserve"
   id="svg277"
   sodipodi:docname="favicon.svg"
   inkscape:version="1.0.2 (e86c870879, 2021-01-15, custom)"
   inkscape:export-filename="/data/projects/pieterfiers.net/src/assets/favicon/favicon.png"
   inkscape:export-xdpi="96"
   inkscape:export-ydpi="96"><metadata
     id="metadata281"><rdf:RDF><cc:Work
         rdf:about=""><dc:format>image/svg+xml</dc:format><dc:type
           rdf:resource="http://purl.org/dc/dcmitype/StillImage" /><dc:title></dc:title></cc:Work></rdf:RDF></metadata><sodipodi:namedview
     pagecolor="#ffffff"
     bordercolor="#666666"
     borderopacity="1"
     objecttolerance="10"
     gridtolerance="10"
     guidetolerance="10"
     inkscape:pageopacity="0"
     inkscape:pageshadow="2"
     inkscape:window-width="1879"
     inkscape:window-height="1051"
     id="namedview279"
     showgrid="false"
     inkscape:zoom="0.90509668"
     inkscape:cx="224.99308"
     inkscape:cy="240.99455"
     inkscape:window-x="41"
     inkscape:window-y="0"
     inkscape:window-maximized="1"
     inkscape:current-layer="svg277"
     inkscape:snap-page="true"
     inkscape:document-rotation="0"
     fit-margin-top="0"
     fit-margin-left="0"
     fit-margin-right="0"
     fit-margin-bottom="0" /><defs
     id="defs11"><clipPath
       id="c"><path
         d="M 0,0 H 3542 V 7088 H 0 Z"
         clip-rule="evenodd"
         id="path2" /></clipPath><clipPath
       id="b"><path
         d="M 0,0 H 3542 V 7084 H 0 Z"
         clip-rule="evenodd"
         id="path5" /></clipPath><clipPath
       id="a"><path
         d="M 0,0 H 3542 V 7088 H 0 Z"
         clip-rule="evenodd"
         id="path8" /></clipPath><clipPath
       clipPathUnits="userSpaceOnUse"
       id="clipPath2837"><rect
         style="fill:#0000ff;fill-opacity:0.16515;stroke-width:1.37462;stroke-miterlimit:10;stroke-dasharray:none"
         id="rect2839"
         width="31.791916"
         height="31.791916"
         x="398.21536"
         y="310.62183" /></clipPath></defs><path
     id="path265"
     style="fill:none;stroke:#38944e;stroke-width:1.582;stroke-linecap:square;stroke-linejoin:bevel;stroke-miterlimit:10;stroke-dasharray:none"
     d="m 412.42383,312.61328 c -1.09729,0.0134 -2.19337,0.0924 -3.28711,0.18164 -1.09386,0.0892 -2.18896,0.185 -3.27344,0.35352 -1.09373,0.16996 -2.18145,0.38827 -3.2539,0.66211 -1.09122,0.27864 -2.1626,0.63247 -3.22852,0.99609 -0.54478,0.18584 -1.07651,0.408 -1.61719,0.60547 -0.5323,0.19441 -1.07307,0.36576 -1.60156,0.57031 -17.76903,5.87714 -19.14621,15.86974 -0.33984,6.21875 0.24842,-0.1275 0.49287,-0.26319 0.74609,-0.38086 1.05102,-0.48841 2.11426,-0.95612 3.20508,-1.34765 1.05869,-0.37999 2.13863,-0.70636 3.23242,-0.96875 1.07326,-0.25746 2.16155,-0.46377 3.25781,-0.5918 1.08983,-0.12728 2.18994,-0.1858 3.28711,-0.17383 1.10849,0.0121 2.22581,0.0493 3.31641,0.24805 1.15158,0.20986 2.29135,0.53356 3.36914,0.99023 0.38656,0.16379 0.75203,0.37995 1.0957,0.6211 0.85799,0.60204 1.63584,1.31564 2.38867,2.04492 0.33365,0.32321 0.63659,0.67709 0.93946,1.0293 0.87554,1.01817 1.65207,2.11921 2.53515,3.13085 0.0394,0.0451 0.0828,0.0865 0.12305,0.13086 0.88782,0.9794 1.68679,2.0396 2.60937,2.98633 0.30259,0.31051 0.64125,0.58377 0.95704,0.88086 0.77033,0.72471 1.485,1.50986 2.28711,2.19922 0.39196,0.33686 0.82683,0.62057 1.23046,0.94336 28.18873,27.92171 20.23359,22.82891 0.57422,-7.72266 -0.47096,-0.73516 -0.84566,-1.52773 -1.26953,-2.29101 -0.16639,-0.29963 -0.34211,-0.59424 -0.5,-0.89844 -0.54648,-1.05291 -0.95855,-2.17497 -1.54687,-3.20508 -0.51151,-0.89562 -1.08654,-1.75779 -1.7168,-2.57422 -0.15809,-0.20478 -0.32456,-0.40565 -0.51563,-0.58007 -0.91121,-0.83179 -1.89968,-1.59869 -2.97851,-2.19727 -0.60078,-0.33333 -1.26742,-0.53315 -1.91602,-0.75977 -0.48237,-0.16854 -0.96925,-0.32894 -1.46679,-0.44531 -1.09762,-0.25672 -2.21407,-0.44469 -3.33594,-0.55469 -1.09747,-0.10761 -2.20399,-0.11507 -3.30664,-0.10156 z m -5.73047,12.32422 c -1.09757,-0.007 -2.2006,0.10547 -3.27734,0.31836 -1.10359,0.2182 -2.17182,0.59608 -3.23047,0.97656 -1.08995,0.39172 -2.16019,0.84216 -3.20508,1.3418 -17.89187,7.92127 -20.91282,15.45532 0.44531,6.45316 1.05995,-0.44544 2.12729,-0.87557 3.21094,-1.25976 1.06424,-0.3773 2.11838,-0.81905 3.22851,-1.02539 1.07792,-0.20035 2.19249,-0.30847 3.28321,-0.19727 1.15509,0.11776 2.27771,0.49438 3.36328,0.90625 1.18933,0.45123 2.17775,1.4099 3.41601,1.70117 6.4e-4,1.5e-4 10e-4,-1.7e-4 0.002,0 1.27129,0.33423 2.29668,1.27967 3.43359,1.93946 0.5631,0.32679 1.09971,0.70041 1.67774,1 0.56564,0.29317 1.17175,0.5016 1.74609,0.77734 1.15707,0.55551 2.30415,1.13468 3.42187,1.76563 0.1937,0.10934 0.37524,0.23925 0.56836,0.34961 0.93634,0.53507 1.92269,0.97921 2.85938,1.51367 0.78739,0.44927 1.54202,0.95376 2.31836,1.42187 0.37396,0.22549 0.76011,0.43108 1.12695,0.66797 18.368,20.30325 36.72475,21.98561 -0.0488,-4.07817 -0.0833,-0.0595 -0.16285,-0.12406 -0.24609,-0.1836 -1.13816,-0.81406 -2.29063,-1.6089 -3.46289,-2.37305 -0.23096,-0.15055 -0.47482,-0.28099 -0.70313,-0.43554 -0.94998,-0.64307 -1.83125,-1.38295 -2.76953,-2.04297 -0.47245,-0.33234 -0.97914,-0.61588 -1.43945,-0.96484 -0.71501,-0.54204 -1.35236,-1.18 -2.04688,-1.74805 -0.54277,-0.44393 -1.11739,-0.84821 -1.65625,-1.29688 -0.63196,-0.52619 -1.19254,-1.13769 -1.84765,-1.63476 -0.67931,-0.51543 -1.43186,-0.92645 -2.14844,-1.38867 -0.43463,-0.28036 -0.84336,-0.60601 -1.30469,-0.83985 -1.07974,-0.5473 -2.2141,-1.01587 -3.39062,-1.30078 -1.08336,-0.26235 -2.20957,-0.35658 -3.32422,-0.36328 z m -2.35156,13.69336 c -1.0987,0.047 -2.18819,0.24861 -3.26563,0.46875 -1.09451,0.22363 -2.16331,0.55931 -3.23828,0.86328 -30.32362,0.4549 88.43594,27.08332 24.9981,3.48635 -0.57411,-0.22858 -1.13292,-0.49571 -1.71289,-0.70899 -1.10955,-0.40803 -2.24038,-0.75784 -3.375,-1.08984 -1.11122,-0.32515 -2.23264,-0.61637 -3.35938,-0.88281 -0.0123,-0.003 -0.0249,-0.005 -0.0371,-0.008 -1.12582,-0.29128 -2.21698,-0.70389 -3.33398,-1.02735 -1.11575,-0.3231 -2.21671,-0.72593 -3.36328,-0.91211 -1.09167,-0.17727 -2.20754,-0.23668 -3.3125,-0.18945 z"
     clip-path="url(#clipPath2837)"
     sodipodi:nodetypes="aaaaaaccaaaaaaaaaaaaaaaccaaaaaaaaaaaaaccaaaaaaaaaaaaaccaaaaaaaaaaaaaaaccaaaaaaaa"
     transform="matrix(15.727269,0,0,15.727269,-6262.8401,-4885.233)" /></svg>
