<svg viewBox="0 0 128 128"><g fill="#fff"><path d="M91.546 42.06c-1.763.122-2.16.607-2.832.86-.298.419-.42.397-.496 1.102.837.915 1.4 1.213 2.832 1.598 1.367-.892 1.951-.947 2.712-2.336-.585-.816-.992-1.025-2.216-1.224zm-38.4.981c-.375.21-.739.408-1.103.617-.044.078-.077.166-.12.243.131 2.92 4.64 4.045 5.786 1.356.044-.331.077-.662.12-.981-1.234-.904-2.369-1.312-4.683-1.235z"/><path d="M115.86 75.479c-2.446-1.664-6.458-.386-9.72.121-2.25.353-4.398-.297-5.908-.738-.375-1.169 1.664-3.307 2.336-4.431 1.929-3.77 3.858-7.55 5.787-11.32 2.887-6.646 10.25-25.89 6.525-35.446-3.44-8.796-16.136-13.9-29.175-13.657-1.687.21-3.362.408-5.049.618-2.05.529-4.1 1.069-6.15 1.598-3.34-.265-7.693-1.632-11.937-.86-1.929.496-3.857.981-5.786 1.477-1.4.694-2.789 1.4-4.189 2.094-.98-.364-1.973-.738-2.953-1.102-2.668-.617-5.335-1.235-8.002-1.84-11.981-2.381-22.044 1.664-26.321 8.718C6.732 34.874 16.464 63.3 21.59 75.225c1.851 4.3 3.88 8.807 7.263 11.574 6.492 5.312 11.342-1.841 14.395-5.666 1.433-1.598 2.877-3.196 4.31-4.794l1.234-1.235s5.379 1.632 6.404 1.72v.12c-.86 1.18-1.962 2.933-3.318 3.572-2.447 1.146-10.846 1.4-9.721 5.533 1.058 3.89 9.699 5.048 14.516 3.571 2.226-.683 3.956-1.885 5.533-3.196.044 2.788.077 5.577.12 8.366 1.533 9.82-.352 17.293 6.647 21.779 3.329 2.138 8.62 1.565 12.433.364 10.019-3.142 9.347-9.645 11.32-20.556.451-3.737.903-7.462 1.355-11.199l5.666.496c5.687-.892 9.412-1.664 13.05-4.31 1.84-1.333 4.023-2.82 3.064-5.885zM85.584 13.205c10.56-.066 16.346 2.149 22.033 6.646 1.488 1.18 3.417 2.833 4.189 4.673 1.51 3.627.738 10.118-.122 13.91-2.27 10.03-5.544 19.156-10.096 26.949-1.135 1.94-1.896 4.365-3.45 5.908v.242c-.661-.551 1.477-5.786 1.841-8.002.882-5.235-1.752-9.369-.86-14.273.54-2.998 1.83-8.344 1.102-11.816C98.567 29.54 92.571 22.132 86.928 18c-1.95-1.433-4.409-2.303-6.393-3.813-.077-.044-.165-.077-.242-.122l5.29-.86zm11.199 45.532c.54 3.505-.607 6.36-1.103 8.983-.077.044-.165.077-.242.12l-1.72-3.57c-2.568-4.387-5.136-8.972-6.767-14.274-.661-2.138-1.091-6.05.121-7.88 1.687-2.558 5.897-2.37 9.964-2.216-.364 3.285-.738 6.57-1.102 9.843.275 3.009.562 5.996.849 8.994zM36.976 83.602c-.815.827-2.039 2.326-4.056 1.84-3.924-.925-6.922-8.034-8.487-11.693-4.618-10.725-13.193-36.252-7.142-49.963 1.94-4.409 6.095-7.34 11.198-8.62 1.808-.209 3.616-.407 5.412-.617 6.316.078 10.978 1.852 15.993 2.712v.121c-5.83 7.627-7.164 11.65-8.983 23.51.077 3.814.165 7.627.243 11.44-.21 2.095-.408 4.19-.618 6.272-1.168 7.23 2.679 11.287 5.533 14.649-3.02 3.45-6.062 6.9-9.093 10.35zm6.768-20.93c-.551-3.032.176-6.636.617-9.6-.077-3.076-.165-6.151-.242-9.226 1.432-.783 2.876-1.554 4.31-2.337 1.553-.408 3.118-.815 4.672-1.234 1.896-.022 3.583.066 4.674.86 2.987 2.17 3.99 13.755 2.711 18.825-.738 2.92-2.039 5.357-3.075 7.88-.617 1.93-1.234 3.858-1.84 5.787-6.834-.066-10.758-5.08-11.827-10.956zm16.742 21.173c-4.078 3.405-8.884 3.857-14.648 1.84-.044-.077-.077-.165-.121-.242 2.744-.706 6.326-1.18 8.487-2.58 1.686-1.807 3.361-3.614 5.048-5.411 4.21.132 3.251 4.706 1.234 6.393zm31.622-6.89c-1.333 2.238-.683 6.35-1.234 9.359-2.094 11.573.022 24.37-10.703 27.687-1.972.606-4.97 1.455-7.506.738-8.464-2.402-7.142-17.117-7.142-27.94 0-6.007.496-10.339-3.935-12.058-.75-.287-1.807-.64-2.832-.364h-.122c.816-2.337 1.643-4.674 2.458-7.01.948-2.16 1.94-4.442 2.58-7.01.76-3.042.66-7.462.12-10.581-1.421-8.234-2.898-15.111-13.655-12.18-2.128.585-4.09 1.554-5.908 2.458.485-10.845 5.202-20.578 13.171-24.017 1.764-.496 3.527-.98 5.29-1.477.948-.077 1.885-.165 2.833-.242 16.864.1 26.398 10.107 31.137 22.397-10.415-.673-15.915 3.57-12.796 14.152 2.59 8.795 7.572 16.268 12.058 23.256-1.477 1.014-2.888 1.268-3.814 2.833zm2.337 4.796c-.1-3.351.86-3.56 2.954-4.674 1.576.232 2.8 1.268 4.552 1.598 3.516.662 7.054-.418 10.096-.738-2.348 2.844-12.356 6.37-17.602 3.814z"/></g></svg>