<svg viewBox="0 0 128 128"><path d="M117.87 60.4C116.1 33.443 94.557 11.894 67.6 10.122V10h-7.2v.122C33.443 11.894 11.894 33.443 10.122 60.4H10v7.2h.122c1.772 26.957 23.321 48.5 50.278 50.27v.13h7.2v-.13c26.957-1.77 48.5-23.313 50.27-50.27h.13v-7.2zM43.804 21.772c-3.478 4.622-6.365 10.418-8.467 17.028H24.55a47.047 47.047 0 0 1 19.253-17.028zM20.786 46h12.657a85.506 85.506 0 0 0-1.771 14.4H17.337A46.395 46.395 0 0 1 20.786 46zm-3.45 21.6h14.336c.194 5.018.806 9.85 1.771 14.4H20.786a46.395 46.395 0 0 1-3.45-14.4zm7.215 21.6H35.33c2.102 6.61 4.99 12.406 8.474 17.028A46.995 46.995 0 0 1 24.551 89.2zM60.4 110.34c-7.402-1.98-13.774-9.93-17.64-21.14H60.4zm0-28.34H40.737c-1.015-4.486-1.656-9.331-1.865-14.4H60.4zm0-21.6H38.872c.209-5.069.85-9.914 1.865-14.4H60.4zm0-21.6H42.76c3.866-11.21 10.238-19.16 17.64-21.132zm43.049 0H92.678c-2.11-6.61-4.99-12.406-8.482-17.028A47.092 47.092 0 0 1 103.449 38.8zM67.6 17.668c7.394 1.973 13.774 9.922 17.64 21.132H67.6zM67.6 46h19.656c1.022 4.486 1.649 9.331 1.872 14.4H67.6zm0 21.6h21.528c-.209 5.069-.85 9.914-1.872 14.4H67.6zm0 42.74V89.2h17.64c-3.866 11.21-10.246 19.16-17.64 21.14zm16.596-4.112c3.478-4.63 6.372-10.418 8.482-17.028h10.77a47.04 47.04 0 0 1-19.252 17.028zM107.214 82H94.557a85.506 85.506 0 0 0 1.771-14.4h14.328a46.186 46.186 0 0 1-3.442 14.4zM96.328 60.4A85.506 85.506 0 0 0 94.557 46h12.657a46.395 46.395 0 0 1 3.45 14.4z" fill="#fff"/></svg>