<svg version="1.1" viewBox="0 0 128 128" xmlns="http://www.w3.org/2000/svg"><g fill="#ffffff"><path d="m17.533 94.846c-3.7137 0-7.5321 2.9759-7.5321 8.1845 0 4.7618 3.3572 8.1248 7.5321 8.1248 3.4462 0 4.9817-2.3126 4.9817-2.3126v1.008c0 0.47675 0.45086 1.0085 1.0085 1.0085h2.4906v-15.658h-3.4991v1.9868s-1.5484-2.3428-4.9817-2.3428zm0.62346 3.2014c3.0568 0 4.6601 2.689 4.6601 4.9821 0 2.5542-1.9038 4.9795-4.6544 4.9795-2.2986 0-4.6015-1.8617-4.6015-5.0135 0-2.8449 1.9814-4.9481 4.5951-4.9481zm12.721 12.811c-0.53771 0-1.0085-0.38562-1.0085-1.008v-14.649h3.4991v1.9377c0.79279-1.1919 2.3423-2.2986 4.7202-2.2986 3.8864 0 5.9557 3.0978 5.9557 5.995v10.022h-2.4323c-0.63692 0-1.0668-0.53393-1.0668-1.0673v-8.1845c0-1.6055-0.98426-3.5557-3.2596-3.5557-2.455 0-3.9171 2.3201-3.9171 4.5048v8.3028zm23.367-16.013c-3.7132 0-7.5321 2.9759-7.5321 8.1845 0 4.7618 3.3572 8.1248 7.5321 8.1248 3.4462 0 4.9817-2.3126 4.9817-2.3126v1.008c0 0.47674 0.45086 1.0085 1.0085 1.0085h2.4911v-23.486h-3.4996v9.8157s-1.5484-2.3428-4.9817-2.3428zm0.62346 3.2014c3.0569 0 4.6609 2.689 4.6609 4.9821 0 2.5542-1.9038 4.9795-4.6544 4.9795-2.2991 0-4.6019-1.8617-4.6019-5.0135 0-2.8449 1.982-4.9481 4.5951-4.9481zm12.721 12.811c-0.53771 0-1.0085-0.38562-1.0085-1.008v-14.649h3.4996v2.6092c0.60188-1.4615 1.9016-2.7872 4.2104-2.7872 0.64395 0 1.2458 0.11868 1.2458 0.11868v3.6177s-0.75182-0.29665-1.6611-0.29665c-2.455 0-3.795 2.3202-3.795 4.5048v7.8901zm29.179 0c-0.53771 0-1.0085-0.38562-1.0085-1.008v-14.649h3.4996v15.657zm12.751-16.013c-3.7132 0-7.5314 2.9759-7.5314 8.1845 0 4.7618 3.3572 8.1248 7.5314 8.1248 3.4462 0 4.9821-2.3126 4.9821-2.3126v1.008c0 0.47675 0.45033 1.0085 1.0085 1.0085h2.4906v-23.486h-3.4991v9.8157s-1.5489-2.3428-4.9821-2.3428zm0.62346 3.2014c3.0574 0 4.6609 2.689 4.6609 4.9821 0 2.5542-1.9038 4.9795-4.6544 4.9795-2.2991 0-4.6019-1.8617-4.6019-5.0135 0-2.8449 1.982-4.9481 4.5955-4.9481z" stroke-width=".53933"/><circle cx="97.482" cy="89.51" r="2.3142" stroke-width=".53933"/><path d="m90.346 35.091 8.9593-15.519c0.50566-0.87004 0.20014-1.9753-0.65842-2.4806-0.85776-0.50566-1.9749-0.21206-2.4687 0.65805l-9.0764 15.719c-6.9252-3.1627-14.72-4.9258-23.103-4.9258s-16.177 1.7633-23.103 4.9258l-9.0764-15.72a1.8099 1.8099 0 0 0-2.4814-0.65805 1.8099 1.8099 0 0 0-0.65842 2.4806l8.9589 15.519c-15.448 8.3708-25.912 24.008-27.639 42.315h108c-1.7278-18.306-12.192-33.942-27.652-42.315zm-51.144 27.147c-2.5038 0-4.5263-2.0341-4.5263-4.5267 0-2.5039 2.0341-4.5267 4.5263-4.5267 2.5043 0 4.5267 2.0341 4.5267 4.5267 0.01172 2.4924-2.0219 4.5267-4.5267 4.5267zm49.579 0c-2.5038 0-4.5256-2.0341-4.5256-4.5267 0-2.5039 2.0337-4.5267 4.5256-4.5267 2.5047 0 4.5271 2.0341 4.5271 4.5267 0.01134 2.4924-2.0223 4.5267-4.5267 4.5267z" stroke-width=".40845"/><path d="m84.764 94.839c-3.8895 0-8.1618 2.9031-8.1618 8.1622 0 4.7924 3.6393 8.1535 8.1535 8.1535 5.563 0 8.2797-4.4719 8.2797-8.1232 0-4.4802-3.498-8.1921-8.2714-8.1921zm0.01247 3.2682c2.6896 0 4.6953 2.1675 4.6953 4.9035 0 2.7839-2.1292 4.9319-4.6873 4.9319-2.3746 0-4.6828-1.9324-4.6828-4.885 0-3.0018 2.195-4.9508 4.6749-4.9508z" stroke-width=".53933"/></g></svg>
