<svg viewBox="0 0 128 128"><path d="M54.689 108.691c-24.642 0-44.69-20.047-44.69-44.689s20.048-44.689 44.69-44.689c15.9 0 30.73 8.557 38.7 22.33L74.05 52.836c-3.99-6.894-11.408-11.177-19.36-11.177-12.321 0-22.345 10.023-22.345 22.344 0 12.32 10.024 22.345 22.345 22.345 7.953 0 15.372-4.283 19.361-11.179l19.34 11.191c-7.97 13.775-22.8 22.332-38.701 22.332z" fill="#fff"/><path fill="#fff" d="M89.446 71.45h4.968v-4.968h4.964v-4.964h-4.964v-4.964h-4.968v4.964h-4.964v4.964h4.964zM108.066 71.45h4.969v-4.968h4.964v-4.964h-4.964v-4.964h-4.969v4.964h-4.964v4.964h4.964z"/></svg>