<svg viewBox="0 0 128 128"><path class="g0_1" d="M51.017 60.58c-9.903-5.67-14.775-17.41-11.82-28.511 3.035-11.021 13.018-18.768 24.518-18.768s21.483 7.747 24.438 18.768c3.035 11.101-1.837 22.841-11.74 28.511l-7.667-13.177c3.914-2.316 5.91-6.948 4.712-11.341-1.198-4.393-5.191-7.507-9.743-7.507s-8.545 3.115-9.743 7.507c-1.198 4.393.718 9.024 4.711 11.341zM105.32 66.73c9.903 5.75 14.775 17.41 11.82 28.511-3.035 11.101-13.018 18.768-24.518 18.768a25.218 25.218 0 0 1-24.438-18.768C65.149 84.14 70.021 72.48 79.924 66.73l7.667 13.257a10.058 10.058 0 0 0-4.712 11.341 10.089 10.089 0 0 0 9.743 7.427c4.552 0 8.545-3.034 9.743-7.427 1.198-4.472-.718-9.104-4.711-11.341zM60.68 88.692c0 11.5-7.747 21.483-18.768 24.438-11.101 3.035-22.761-1.837-28.511-11.74-5.75-9.983-4.073-22.521 3.993-30.587 8.146-8.146 20.684-9.823 30.587-4.073l-7.587 13.257c-3.993-2.316-8.945-1.677-12.219 1.597-3.194 3.195-3.833 8.226-1.597 12.14 2.316 3.992 6.948 5.91 11.34 4.711 4.393-1.198 7.508-5.19 7.508-9.743z" fill="#fff"/></svg>