<svg viewBox="0 0 128 128"><path d="M64 56.26c9.54 0 18.36-.9 26.64-2.52 8.28-1.8 14.76-4.32 19.62-7.74v10.26c0 2.7-1.98 5.4-6.12 7.74s-9.72 4.32-16.92 5.58S72.46 71.74 64 71.74s-16.02-.72-23.22-2.16S28 66.34 23.86 64s-6.12-4.86-6.12-7.74V46c4.86 3.42 11.34 5.94 19.62 7.74 8.28 1.62 17.1 2.52 26.64 2.52zm0 46.26c9.54 0 18.36-.9 26.64-2.52 8.28-1.8 14.76-4.32 19.62-7.74v10.26c0 2.7-1.98 5.4-6.12 7.74s-9.72 4.32-16.92 5.58S72.28 118 64 118s-16.02-.72-23.22-2.16-12.78-3.24-16.92-5.58-6.12-4.86-6.12-7.74V92.26c4.86 3.42 11.34 5.94 19.62 7.74 8.28 1.62 17.1 2.52 26.64 2.52zm0-23.04c9.54 0 18.36-.9 26.64-2.52s14.76-4.32 19.62-7.74v10.26c0 2.7-1.98 5.4-6.12 7.74s-9.72 4.32-16.92 5.58c-7.2 1.44-14.76 2.16-23.22 2.16s-16.02-.72-23.22-2.16S28 89.56 23.86 87.22s-6.12-4.86-6.12-7.74V69.22c4.86 3.42 11.34 5.94 19.62 7.74s17.1 2.52 26.64 2.52zM64 10c8.28 0 16.02.72 23.22 2.16s12.78 3.24 16.92 5.58 6.12 4.86 6.12 7.74v7.74c0 2.7-1.98 5.4-6.12 7.74s-9.72 4.32-16.92 5.58S72.46 48.7 64 48.7s-16.02-.72-23.22-2.16S28 43.3 23.86 40.96s-6.12-4.86-6.12-7.74v-7.74c0-2.7 1.98-5.4 6.12-7.74s9.72-4.32 16.92-5.58C47.98 10.72 55.72 10 64 10z" fill="#fff"/></svg>