<?xml version="1.0" encoding="UTF-8" standalone="no"?><svg xmlns="http://www.w3.org/2000/svg" id="svg12" version="1.1" viewBox="0 0 128 128"><path id="path8" d="M84.8 94.8a8 8 0 0 0-8.2 8.2 8 8 0 0 0 8.2 8.2A8 8 0 0 0 93 103c0-4.4-3.5-8.2-8.2-8.2zm0 3.3c2.7 0 4.7 2.2 4.7 5 0 2.7-2.2 4.8-4.7 4.8a4.7 4.7 0 0 1-4.7-4.8c0-3 2.2-5 4.7-5zm5.5-63 9-15.5c.5-.9.2-2-.7-2.5-.8-.5-2-.2-2.4.6L87 33.5a55.4 55.4 0 0 0-46.2 0l-9-15.8a1.8 1.8 0 0 0-2.6-.6 1.8 1.8 0 0 0-.6 2.5l9 15.5c-15.5 8.4-26 24-27.7 42.3h108a53.5 53.5 0 0 0-27.7-42.3zM39.2 62.2a4.5 4.5 0 1 1 0-9 4.5 4.5 0 0 1 0 9zm49.6 0a4.5 4.5 0 1 1 0-9 4.5 4.5 0 0 1 0 9zm11 27.3a2.3 2.3 0 0 1-2.3 2.3 2.3 2.3 0 0 1-2.3-2.3 2.3 2.3 0 0 1 2.3-2.3 2.3 2.3 0 0 1 2.3 2.3zm-82.3 5.3c-3.7 0-7.5 3-7.5 8.2 0 4.8 3.4 8.2 7.5 8.2 3.5 0 5-2.4 5-2.4v1c0 .5.5 1 1 1H26V95.3h-3.5v2s-1.5-2.4-5-2.4zm.7 3.2c3 0 4.6 2.7 4.6 5 0 2.6-1.9 5-4.6 5-2.3 0-4.6-1.9-4.6-5 0-2.8 2-5 4.6-5zm12.7 13a1 1 0 0 1-1-1V95.2h3.5v2a5.5 5.5 0 0 1 4.7-2.4c3.9 0 6 3.1 6 6v10h-2.5a1 1 0 0 1-1-1v-8.2c0-1.6-1-3.5-3.3-3.5-2.5 0-4 2.3-4 4.5v8.3zm23.3-16c-3.7 0-7.5 3-7.5 8.1 0 4.8 3.4 8.2 7.5 8.2 3.5 0 5-2.4 5-2.4v1c0 .5.5 1 1 1h2.5V87.5h-3.5v9.8s-1.5-2.4-5-2.4zm.8 3c3 0 4.6 2.7 4.6 5 0 2.6-1.9 5-4.6 5-2.3 0-4.6-1.9-4.6-5 0-2.8 2-5 4.6-5zm12.6 13a1 1 0 0 1-1-1V95.1H70v2.6a4.3 4.3 0 0 1 4.2-2.8l1.2.1v3.7s-.7-.3-1.6-.3c-2.5 0-3.8 2.3-3.8 4.5v7.9zm29.2 0a1 1 0 0 1-1-1V95.1h3.5v15.7zm12.7-16c-3.7 0-7.5 3-7.5 8.1 0 4.8 3.3 8.2 7.5 8.2 3.5 0 5-2.4 5-2.4v1c0 .5.5 1 1 1h2.5V87.5h-3.5v9.8s-1.5-2.4-5-2.4zm.6 3.1c3.1 0 4.7 2.7 4.7 5 0 2.6-1.9 5-4.7 5-2.3 0-4.6-1.9-4.6-5 0-2.9 2-5 4.6-5z" style="fill:#fff"/></svg>