<?xml version="1.0" encoding="UTF-8"?><svg xmlns="http://www.w3.org/2000/svg" viewBox="0 0 128 128"><path fill="#fff" d="M63 14c-5 0-10 4-10 10L30 45c-2-4-6-7-10-7a10 10 0 0 0 0 21c4 0 7-3 9-6l5 11-5 10c-2-3-5-5-9-5a10 10 0 0 0 0 20c4 0 8-3 10-7l23 22a10 10 0 0 0 20 1l25-37c2 3 6 6 10 6a10 10 0 0 0 0-20c-4 0-8 2-10 6L73 23c0-5-5-10-10-10zm9 14 22 31-21-10c0-5-5-9-10-9s-9 3-10 8h-7l9-19a10 10 0 0 0 17-1zm-22 3-8 16h-9l17-16zM33 50l7 1-2 5-5-6zm11 1h8l-9 10-3-2 4-8zm29 1 22 12-22 11c-1-4-5-7-10-7-4 0-7 2-9 5l-9-9 9-10a10 10 0 0 0 19-2zm-38 6 1 1v1l-1-2zm4 4 1 2-1 1-1-1zm4 4 9 10-8 1-4-8 3-3zm-7 2-1 1 1-1zm58 0-22 32c-1-3-5-6-9-6-3 0-6 2-8 4l-9-18h7c1 4 5 8 10 8s10-4 10-9l21-11zm-56 3 3 6h-8l5-6zm4 9 8 17-17-16 9-1z"/></svg>