<?xml version="1.0" encoding="UTF-8"?><svg xmlns="http://www.w3.org/2000/svg" viewBox="0 0 128 128"><path fill="#fff" d="m83.2 85.6-7.9-4.5c.5-1.9.7-3.8.8-5.7l8.6-1.5c1.4-.2 2.1-1.6 1.8-3l-3.1-11.3c-.4-1.3-1.7-2.2-3-1.7l-8.2 3c-1-1.6-2.2-3.1-3.5-4.5l4.6-7.9a2.4 2.4 0 0 0-1-3.3l-10.1-5.9a2.4 2.4 0 0 0-3.3.9L54.3 48a28.6 28.6 0 0 0-5.6-.8l-1.5-8.7c-.2-1.3-1.7-2-3-1.7l-11.4 3c-1.3.4-2.1 1.8-1.7 3l3 8.3c-1.5 1-3 2.2-4.4 3.5l-8-4.6a2.4 2.4 0 0 0-3.2 1l-6 10.1a2.4 2.4 0 0 0 1 3.3l6.8 4a28.6 28.6 0 0 0-.7 5.6l-7.7 2a2.4 2.4 0 0 0-1.7 3l3 11.5c.4 1.2 1.8 2.1 3 1.7l8.3-3c1 1.5 2.1 3 3.4 4.4l-4.5 7.9a2.4 2.4 0 0 0 .9 3.3l10.2 6c1.1.6 2.6.2 3.3-1l4.5-7.8c1.9.4 3.8.6 5.7.7l1.4 8.7c.3 1.3 1.7 2 3 1.7l11.4-3c1.3-.4 2.2-1.8 1.7-3l-3-8.3c1.6-1 3-2.2 4.5-3.5l7.9 4.6c1.1.7 2.6.3 3.3-.9L84 89c.7-1.1.3-2.6-.9-3.3zm-32.6-1.8a9 9 0 0 1-4.7-17.5 9 9 0 0 1 4.7 17.5zm62-32-3.7-4.4c.7-1 1.2-2 1.6-3l5.4.8c.8.2 1.5-.5 1.6-1.4l.5-7.3c.1-.8-.5-1.6-1.3-1.6l-5.5.1c-.2-1.1-.6-2.2-1-3.3l4.2-3.7c.6-.5.7-1.5.1-2l-4.7-5.6a1.5 1.5 0 0 0-2.1-.2l-4.3 3.7c-1-.7-2-1.2-3.1-1.6l.9-5.4c.1-.8-.6-1.5-1.4-1.6l-7.3-.5c-.8-.1-1.6.5-1.6 1.3v5.5a17 17 0 0 0-3.3 1L84 18.5a1.5 1.5 0 0 0-2.1-.1L76.3 23a1.5 1.5 0 0 0-.1 2.1l3.2 3.8c-.7 1-1.2 2-1.6 3.1l-5-.4a1.5 1.5 0 0 0-1.5 1.4l-.6 7.3c0 .8.6 1.6 1.4 1.6h5.4a17 17 0 0 0 1.1 3.3l-4.2 3.6a1.5 1.5 0 0 0-.2 2.1l4.8 5.6c.5.6 1.5.7 2 .1l4.4-3.6 3 1.6-.8 5.3c-.2.8.5 1.6 1.4 1.6l7.3.6c.8 0 1.6-.6 1.6-1.4l-.1-5.4 3.3-1.1 3.7 4.2c.5.7 1.5.7 2 .2l5.6-4.8c.7-.5.7-1.5.2-2zM93.9 44a5.6 5.6 0 1 1 .9-11.2 5.6 5.6 0 0 1-.9 11.2z"/></svg>