<?xml version="1.0" encoding="UTF-8" standalone="no"?><svg xmlns="http://www.w3.org/2000/svg" id="svg10" version="1.1" viewBox="0 0 128 128"><path id="path6" d="M94.9 84.2c-4.8-.1-9.2-1.5-12.8-4.6a17 17 0 0 1-5.7-10.1c-1-6 .7-11.2 4.3-16a22 22 0 0 1 14.7-8.7c5.3-1 10.4-.4 15 2.7 4.1 2.8 6.7 6.7 7.4 11.7.9 7-1.2 12.9-6 17.8A24.1 24.1 0 0 1 99 83.7c-1.4.3-2.8.3-4.2.5zM107.4 63c0-.7 0-1.2-.2-1.7a8.6 8.6 0 0 0-10.7-7c-4.8 1-8 4.2-9.2 9.1-.9 4.1 1 8.3 4.9 10a9.7 9.7 0 0 0 8.6-.4c4.1-2.1 6.4-5.5 6.6-10zm-29.9-7.9-8.8 2.3c-.8.2-.9.3-1.6-.5a7.1 7.1 0 0 0-2.4-2 9.1 9.1 0 0 0-9.5.8 11.1 11.1 0 0 0-5.4 10c0 4.2 3 7.6 7.1 8.2a10 10 0 0 0 9-3.4l1.4-2H57.2c-1.1 0-1.4-.7-1-1.6.6-1.6 2-4.3 2.6-5.7.2-.3.6-.8 1.4-.8h19c0 1.4 0 2.8-.3 4.2-.5 3.8-2 7.3-4.3 10.3-3.8 5-8.7 8.1-15 9-5.1.6-10-.4-14-3.5-4-3-6.2-6.9-6.8-11.7-.6-5.7 1-11 4.5-15.4 3.7-5 8.7-8 14.7-9.1 5-1 9.7-.3 14 2.6 2.7 1.8 4.7 4.3 6 7.4.3.4.1.7-.5.9zm-59.3.9c-.2 0-.3-.1-.2-.3l1.1-1.4.6-.2h18.8c.2 0 .3.1.2.3l-1 1.3c0 .2-.3.4-.4.4zm-8 4.8c-.1 0-.2 0-.1-.2l1.1-1.4c.1-.2.4-.3.6-.3h24c.2 0 .3.2.2.3l-.4 1.3c0 .2-.2.3-.5.3zM23 65.7c-.2 0-.3-.2-.2-.3l.7-1.3c.1-.2.4-.4.6-.4h10.5c.2 0 .3.2.3.4l-.1 1.3c0 .2-.2.3-.4.3z" style="fill:#fff;stroke-width:.526"/></svg>