<?xml version="1.0" encoding="UTF-8"?><svg xmlns="http://www.w3.org/2000/svg" viewBox="0 0 128 128"><path fill="#fff" d="M111 91a9.7 9.7 0 1 1-3.5-13.2A9.6 9.6 0 0 1 111 91M34.2 46.6a9.7 9.7 0 1 1-16.7-9.7 9.7 9.7 0 0 1 16.7 9.7M17.5 91A9.7 9.7 0 0 1 21 77.8a9.7 9.7 0 0 1 13.2 3.5 9.7 9.7 0 0 1-3.5 13.2A9.7 9.7 0 0 1 17.5 91m76.8-44.4a9.7 9.7 0 0 1 3.5-13.2 9.7 9.7 0 0 1 13.2 3.5 9.7 9.7 0 0 1-3.5 13.2 9.7 9.7 0 0 1-13.2-3.5M64.2 118a9.6 9.6 0 1 1 0-19.2 9.6 9.6 0 0 1 0 19.2m0-88.8a9.6 9.6 0 1 1 0-19.2 9.6 9.6 0 0 1 0 19.2m.8 80.5-2-3.5L101.4 84l2 3.5zm35.2-71.2h4.6v51h-4.6zm3.2 53.8L59.2 15.8l4-2.3L107.4 90zm-80-53.8H28v51h-4.6zm.5 7-2.3-4L65.8 16l2.3 4zm41.9 66.2L21.6 86.2l2.3-4L68 107.7zm38.4-66.5L60 19.7l2.3-4 44.2 25.5zM19.9 83.9h88.3v4.6H19.9zm4.9 8.4-4-2.3L65 13.5l4 2.3z"/></svg>