<?xml version="1.0" encoding="UTF-8"?><svg xmlns="http://www.w3.org/2000/svg" viewBox="0 0 128 128"><path fill="#fff" d="m73.3 10 .2 2.3a18.3 18.3 0 0 1-.1 6.4 18.3 18.3 0 0 1-2.3 6 14.3 14.3 0 0 1-2.7 3l-1 .7c-2.9 2.3-6 4.3-9 6.6-3 2.5-5.8 5.4-7.7 8.9a12.4 12.4 0 0 0-1.5 4.4c-.4 2.8.3 5.6 1.5 8.1a34 34 0 0 0 6.5 9 43.3 43.3 0 0 0 4.2 3.8l1.9 1.3-1.3-3A61.9 61.9 0 0 1 57.7 56a25.6 25.6 0 0 1-.9-7.1c.2-1.4 1-2.6 2-3.6 1.6-2 3.6-3.6 5.6-5.2 3.3-2.6 6.6-5.3 9.3-8.5a17 17 0 0 0 3.4-6.4 16 16 0 0 0-.5-9.7 16.7 16.7 0 0 0-2-3.8L73.4 10zm12.1 23.4-2 .3a69.7 69.7 0 0 0-10.3 5.1 32 32 0 0 0-7.2 5.7 10.2 10.2 0 0 0-2.8 5.3l.1 3.3c.3 2.5 1.3 5 2.7 7.1.9 1.4 2 2.6 3 3.9.4.6.7 1.2.7 2 0 1-.2 2.2-.5 3.2a26.2 26.2 0 0 1-1.7 4.2l-.6 1.1c1.4-1 2.8-1.9 4-3a16.7 16.7 0 0 0 4.5-6.2c.6-1.6.8-3.5.3-5.2-.5-2-1.6-3.8-2.8-5.5-.8-1.3-1.8-2.7-2-4.3-.2-1.5.4-3 1.2-4.3a22.4 22.4 0 0 1 2.6-3l.7-.7c2.7-2.6 5.6-5 8.6-7.3L85 34l.4-.5zm9.9 34.4a17.8 17.8 0 0 0-7.4 1.8L85.3 71c1.7 0 3.5 0 5.2.3a13.2 13.2 0 0 1 4.2 1.4 4.5 4.5 0 0 1 2.2 3c.3 1.3-.3 2.5-.9 3.5a24.8 24.8 0 0 1-4.8 5.4c-1 1-2 1.8-3.2 2.6l-2 1.6-1.6 1.2 2.2-.2a40.8 40.8 0 0 0 8.9-3.2 18 18 0 0 0 6.2-4.8 8.2 8.2 0 0 0 1.7-5.2 12.4 12.4 0 0 0-.8-3.7 7.8 7.8 0 0 0-3.5-4.3 8.3 8.3 0 0 0-3.8-1zm-44.6 1.4h-.6c-3.6.1-7.1.4-10.6 1-1.7.4-3.4.8-4.8 1.7-.9.5-1.6 1.2-1.7 2.2a3.2 3.2 0 0 0 1.1 2.9 11 11 0 0 0 4.3 2.1c3.2 1 6.5 1.3 9.8 1.6 4.4.2 8.8.2 13.1 0a63.3 63.3 0 0 0 16.4-2.9 29 29 0 0 0 7-3.3l2-1.7c0-.1.3-.3 0-.2l-3 .6c-3 .7-6 1-9.1 1.4a179.3 179.3 0 0 1-11.7.7c-5 .1-10.1.1-15.1-.2a35 35 0 0 1-5.3-.7l-.9-.3c.3-.6 1-.9 1.5-1.1a29.5 29.5 0 0 1 5.8-2l2-.5 1.5-.8-1.8-.5zm-4 12.4-.5.2c-1.6.4-3.1.8-4.4 1.8-.7.5-1.4 1.3-1.3 2.2 0 1 .9 1.7 1.7 2.2a17.3 17.3 0 0 0 5.2 2 72.5 72.5 0 0 0 20.9.3c5.1-.7 10.1-1.7 15-3l-5.8-4-6 1.2a98.2 98.2 0 0 1-9 1.1 83 83 0 0 1-13.4-.3c-1-.2-2-.4-3-.8-.4-.1-.5-.6-.2-.8.3-.4.7-.6 1.2-.8l1.2-1.1-1.7-.2zm5 11.1-2.3.2a9.7 9.7 0 0 0-4.2 1 3 3 0 0 0-1.6 2.4 3.4 3.4 0 0 0 1.2 2.9 11 11 0 0 0 4.4 2c3 .8 6.2 1.1 9.4 1.3 6.2.5 12.6-.2 18.5-2a32.4 32.4 0 0 0 4.4-1.8l-.4-.3-6.4-3.9-5.4 1-4.2.6a37.5 37.5 0 0 1-4.8 0 61.8 61.8 0 0 1-9.3-1c-.5 0-1-.1-1.5-.4 0-.3.3-.6.5-.8l1.7-1.2zm43 7.6 1 1.8c.2.3.1.8-.2 1.1-.3.4-.9.5-1.3.7l-2.2.7a155.8 155.8 0 0 1-28 3.6h-2a156.8 156.8 0 0 1-12.8-.4 111 111 0 0 1-11.5-1.3l-1-.2-1.2-.3c-1-.2-2.1-.5-3.1-1-.1-.1-.4-.2-.2-.4.5-.5 1.2-.8 1.9-1a26.4 26.4 0 0 1 3-1l1.2-.3 2.7-.6 1.4-.9-1.6-.4c-2.4.1-4.7.3-7 .6-2.2.3-4.3.6-6.3 1.4-1 .5-2.1 1-2.6 2a3.3 3.3 0 0 0 .5 3.3c1 1.2 2.4 1.9 3.8 2.4a40 40 0 0 0 8.5 1.8c5.4.6 10.8.7 16.3.8 8.6.1 17.2-.2 25.6-1.4 4.1-.6 8.2-1.4 12.1-2.7a21.4 21.4 0 0 0 4.9-2.2c.9-.6 1.7-1.6 1.6-2.8 0-1-.7-2-1.6-2.5zm8.1 5.1a.5.5 0 0 0-.1.1l-1.4 1.4c-1.2 1.2-2.7 2-4.2 2.8a40.7 40.7 0 0 1-7.6 2.7l-.8.2-1.2.3a38.7 38.7 0 0 1-3.2.6c-3.4.4-6.9.6-10.4.7a416 416 0 0 1-33.5-.3l-1.7.5 1.6.9a137.1 137.1 0 0 0 49.7.7c3.1-.7 6.2-1.7 8.7-3.4a9.6 9.6 0 0 0 3.7-4.5l.4-2.3c0-.2.1-.4 0-.4z"/></svg>