<?xml version="1.0" encoding="UTF-8"?><svg xmlns="http://www.w3.org/2000/svg" viewBox="0 0 128 128"><path fill="#fff" d="M32 22a9.9 9.9 0 0 0-9.9 9.9v11h-9.7c-3.2 0-3.2 5 0 5h9.7v13.3h-9.7c-3.2.1-3.2 4.9 0 5h9.7v14h-9.7c-3.2 0-3.2 4.9 0 4.9h9.7v11c0 5.5 4.4 9.9 9.9 9.9h11v9.6c0 3.3 5 3.3 5 0V106h15.8v9.6c0 3.3 5 3.3 5 0V106h11.5v9.6c0 3.2 4.8 3.2 5 0V106h11c5.4 0 9.8-4.5 9.8-9.9v-11h9.5c3.5-.4 2.6-4.9 0-5H106V66.4h9.5c3.2 0 3.2-5 0-5H106V47.8h9.5c3.2 0 3.2-5 0-5H106v-11c0-5.4-4.4-9.8-9.9-9.8h-11v-9.5c0-3.3-5-3.3-5 0V22H66.9v-9.5c0-3.3-5-3.3-5 0V22H48v-9.5c0-3.1-4.8-3.1-4.9 0V22zm15.3 14.1h6.3V61c0 6.1 3 9.1 8.8 9.1 4 0 6.7-1.2 8.4-3.6 1.6-2.4 2.4-5.8 2.4-10.4v-20h6.4v30c0 1.5.2 2.6.8 3.2.6.6 1.3.9 2.1.9.4 0 .8 0 1.2-.2l1-.2v4.6a7 7 0 0 1-1.7.6 8 8 0 0 1-2.4.4c-1.8 0-3.2-.5-4.4-1.3-1.2-1-2-2.4-2.6-4.7h-.5A11.6 11.6 0 0 1 62 75.3c-1.9 0-3.5-.2-5-.8-1.3-.6-2.5-1.4-3.4-2.4h-.3l.2 3.5.1 5V92h-6.3z"/></svg>