<?xml version="1.0" encoding="UTF-8"?><svg xmlns="http://www.w3.org/2000/svg" viewBox="0 0 128 128"><path fill="#fff" d="M71.3 42.8c5.85-.38 12.2-.23 17.4 2.66 4.08 2.21 6.34 6.84 6.42 11.4-.12.62-.75.95-1.34.9-1.7 0-3.4.03-5.1 0-.71.02-1.14-.64-1.22-1.28-.49-2.17-1.67-4.32-3.72-5.37-3.13-1.57-6.76-1.49-10.2-1.45-2.49.14-5.18.36-7.29 1.82-1.62 1.11-2.11 3.35-1.53 5.15.55 1.3 2.04 1.72 3.26 2.1 7.06 1.84 14.5 1.66 21.5 4.1 2.87.99 5.67 2.91 6.65 5.91 1.28 4.02.71 8.83-2.15 12.1-2.32 2.65-5.69 4.1-9.05 4.88a43.6 43.6 0 0 1-13.7.59c-4.28-.49-8.74-1.61-12.1-4.52-2.82-2.46-4.2-6.28-4.06-9.93.03-.62.65-1.06 1.24-1.01 1.72 0 3.42-.02 5.14 0 .67-.04 1.18.55 1.22 1.19.32 2.07 1.09 4.24 2.89 5.46 3.48 2.24 7.84 2.08 11.8 2.15 3.29-.14 7-.19 9.67-2.37 1.42-1.24 1.84-3.33 1.45-5.11-.42-1.51-2-2.22-3.35-2.68-6.96-2.2-14.5-1.4-21.4-3.89-2.8-1-5.51-2.86-6.59-5.74-1.5-4.07-.8-9.14 2.35-12.2 3.08-3.1 7.53-4.29 11.7-4.73zM59.6 11.1a9.08 9.08 0 0 1 8.85 0c13.5 7.61 27 15.2 40.4 22.8a8.33 8.33 0 0 1 4.2 7.17v45.8a8.41 8.41 0 0 1-4.51 7.33l-40.3 22.7a8.81 8.81 0 0 1-8.96-.25l-12.1-6.98c-.83-.49-1.75-.89-2.33-1.69.51-.68 1.44-.77 2.18-1.07 1.68-.53 3.22-1.39 4.76-2.22.39-.26.87-.17 1.24.07 3.44 1.97 6.85 4 10.3 5.95.74.43 1.48-.13 2.11-.48 13.1-7.45 26.3-14.9 39.6-22.4a1.3 1.3 0 0 0 .71-1.3c.02-15.1 0-30.2 0-45.3a1.42 1.42 0 0 0-.83-1.4l-40.1-22.6a1.39 1.39 0 0 0-1.58 0c-13.4 7.54-26.8 15.1-40.1 22.6a1.4 1.4 0 0 0-.85 1.42v45.3a1.28 1.28 0 0 0 .73 1.27l10.7 6.06c2 1.08 4.48 1.72 6.7.88A5.08 5.08 0 0 0 43.7 90c.03-15 0-30.1.02-45.1-.05-.66.58-1.22 1.24-1.15 1.7-.02 3.42-.02 5.14 0 .7-.02 1.2.71 1.12 1.37-.01 15.1.02 30.2-.02 45.3 0 4.04-1.65 8.42-5.37 10.4-4.59 2.4-10.3 1.88-14.8-.4-3.93-1.95-7.67-4.27-11.5-6.37a8.39 8.39 0 0 1-4.51-7.32v-45.8a8.34 8.34 0 0 1 4.35-7.26z"/></svg>