<?xml version="1.0" encoding="UTF-8"?>
<svg width="128" height="128" version="1.1" viewBox="0 0 128 128" xmlns="http://www.w3.org/2000/svg"><path d="m64 31.8c-20.6 0-39.4 11.3-53.2 29.6-1.13 1.5-1.13 3.6 0 5.1 13.8 18.4 32.5 29.6 53.2 29.6 20.6 0 39.4-11.3 53.2-29.6 1.13-1.5 1.13-3.6 0-5.1-13.8-18.4-32.5-29.6-53.2-29.6zm1.48 54.9c-13.7 0.862-25-10.4-24.1-24.1 0.707-11.3 9.88-20.5 21.2-21.2 13.7-0.862 25 10.4 24.1 24.1-0.729 11.3-9.9 20.5-21.2 21.2zm-0.685-10.5c-7.38 0.464-13.5-5.61-13-13 0.376-6.1 5.32-11 11.4-11.4 7.38-0.464 13.5 5.61 13 13-0.398 6.12-5.35 11-11.4 11.4z" fill="#fff" stroke-width=".221"/></svg>
