<?xml version="1.0" encoding="UTF-8"?><svg xmlns="http://www.w3.org/2000/svg" viewBox="0 0 128 128"><path fill="#fff" d="M116 75.5c-2.5-1.7-6.5-.4-9.7.1-2.3.4-4.4-.3-6-.7-.3-1.2 1.7-3.3 2.4-4.4l5.8-11.3c2.9-6.7 10.2-26 6.5-35.4-3.4-8.8-16-14-29.2-13.7l-5 .6-6.2 1.6c-3.3-.3-7.7-1.7-11.9-.9L57 13l-4.2 2-3-1-8-1.9c-12-2.3-22 1.7-26.2 8.8-8.6 14.2 1.1 42.6 6.3 54.5 1.8 4.3 3.8 8.8 7.2 11.6 6.5 5.3 11.3-1.9 14.4-5.7l4.3-4.8 1.3-1.2s5.3 1.6 6.4 1.7v.1c-.9 1.2-2 3-3.4 3.6-2.4 1.1-10.8 1.4-9.7 5.5 1 3.9 9.7 5 14.5 3.6 2.3-.7 4-2 5.6-3.2v8.3c1.6 9.9-.3 17.3 6.7 21.8 3.4 2.2 8.6 1.6 12.4.4 10-3.1 9.4-9.6 11.3-20.6l1.4-11.2 5.7.5c5.6-.9 9.4-1.7 13-4.3 1.8-1.3 4-2.8 3-5.9zM85.7 13.2c10.6 0 16.3 2.2 22 6.7 1.5 1.1 3.4 2.8 4.2 4.6 1.5 3.7.7 10.1-.1 14a93.7 93.7 0 0 1-10.1 26.8c-1.2 2-2 4.4-3.5 6v.2c-.6-.6 1.5-5.8 1.9-8 .8-5.3-1.8-9.4-.9-14.3.5-3 1.8-8.4 1.1-11.8A34.8 34.8 0 0 0 87 18c-2-1.5-4.4-2.3-6.4-3.8l-.2-.2 5.3-.8zm11.2 45.5c.5 3.5-.6 6.4-1.1 9l-.2.1-1.8-3.6c-2.5-4.4-5.1-9-6.7-14.3-.7-2.1-1.1-6 0-7.8 1.8-2.6 6-2.4 10-2.3l-1 9.9.8 9zM37.1 83.6c-.8.8-2 2.3-4 1.8-4-.9-7-8-8.5-11.7-4.7-10.7-13.2-36.3-7.2-50a16 16 0 0 1 11.2-8.6l5.4-.6c6.3 0 11 1.9 16 2.7v.1C44.2 25 43 29 41 40.8l.3 11.4-.6 6.3c-1.2 7.2 2.6 11.3 5.5 14.6l-9 10.4zm6.8-20.9c-.6-3 .1-6.6.6-9.6l-.3-9.2 4.4-2.4 4.6-1.2c2 0 3.6 0 4.7.9 3 2.1 4 13.8 2.7 18.8-.7 2.9-2 5.3-3 7.8l-2 5.8c-6.7 0-10.7-5-11.7-11zm16.7 21.2c-4.1 3.4-9 3.9-14.6 1.8l-.2-.2c2.8-.7 6.4-1.2 8.5-2.6l5-5.4c4.3.1 3.3 4.7 1.3 6.4zM92.2 77c-1.4 2.2-.7 6.4-1.3 9.4-2 11.6 0 24.4-10.7 27.7-2 .6-5 1.4-7.5.7-8.4-2.4-7.1-17-7.1-27.9 0-6 .5-10.3-4-12-.7-.4-1.8-.7-2.8-.5h-.1l2.5-7a29 29 0 0 0 2.7-17.6c-1.5-8.2-3-15-13.7-12.2-2.2.6-4.1 1.6-6 2.5.5-10.8 5.2-20.6 13.2-24l5.3-1.5 2.9-.2c16.9 0 26.4 10 31 22.4C86.4 36 80.9 40.3 84 51c2.6 8.8 7.5 16.3 12 23.3-1.4 1-2.8 1.2-3.7 2.8zm2.3 4.8c0-3.3.9-3.6 3-4.7 1.5.3 2.8 1.3 4.5 1.6 3.5.7 7-.4 10.1-.7-2.3 2.8-12.4 6.4-17.6 3.8zm-2.9-39.7c-1.7.1-2.1.6-2.8.9-.3.4-.4.4-.5 1 .8 1 1.4 1.3 2.8 1.7 1.4-1 2-1 2.7-2.4-.6-.8-1-1-2.2-1.2zm-38.4 1-1 .6-.2.3c.1 2.9 4.6 4 5.8 1.3l.1-1c-1.2-.9-2.4-1.3-4.7-1.2z"/></svg>