<?xml version="1.0" encoding="UTF-8"?><svg xmlns="http://www.w3.org/2000/svg" viewBox="0 0 128 128"><path fill="#fff" d="M86 15.8c-1.8 0-3.7.3-5.5.9a37.4 37.4 0 0 0-11.7 6.8 71.7 71.7 0 0 0-4.7 4.3c-1.6-1.6-3.2-3-4.7-4.3-4-3.3-8-5.6-11.7-6.8-2-.6-3.8-1-5.6-.9-1.8 0-3.5.5-5 1.4-3.1 1.8-5 5-5.8 8.9-.8 3.9-.7 8.4.1 13.6.3 2 .8 4 1.3 6.2-2 .6-4.1 1.2-6 2-4.8 1.8-8.9 4-11.8 6.7-3 2.6-4.8 5.8-4.8 9.4s1.9 6.8 4.8 9.4c3 2.6 7 4.9 11.8 6.7l6 2a72 72 0 0 0-1.3 6.2c-.8 5.1-.9 9.7 0 13.6.8 3.8 2.6 7 5.7 8.9 3 1.7 6.8 1.7 10.6.5 3.7-1.2 7.7-3.6 11.7-6.9 1.5-1.2 3.1-2.7 4.7-4.2 1.5 1.5 3.1 3 4.7 4.2 4 3.3 8 5.7 11.7 6.9a13 13 0 0 0 10.6-.5c3-1.8 4.9-5 5.7-9a38 38 0 0 0 0-13.5c-.4-2-.8-4.1-1.4-6.2l6-2c5-1.8 9-4 11.8-6.7 3-2.6 4.9-5.9 4.9-9.4s-2-6.8-4.9-9.4a35 35 0 0 0-11.8-6.8l-6-2c.6-2 1-4.1 1.3-6.1.9-5.1 1-9.7.1-13.6-.8-3.9-2.6-7.1-5.7-9-1.6-.8-3.3-1.2-5-1.3zm-43.7 4.7c1.1 0 2.4.2 3.9.6 3 1 6.5 3 10.2 6a67 67 0 0 1 4.4 4c-3.1 3.4-6.2 7.2-9.2 11.3-5 .5-9.9 1.3-14.4 2.3-.5-2-1-4-1.2-5.8-.8-4.8-.8-8.8-.1-12 .6-3 1.8-4.8 3.5-5.7a6 6 0 0 1 2.9-.8zm43.5 0c1.1 0 2 .3 2.9.8 1.6 1 2.9 2.7 3.5 5.8.6 3 .6 7-.1 11.9-.3 1.8-.8 3.7-1.3 5.7a115 115 0 0 0-14.4-2.2c-3-4.2-6-8-9.1-11.3l4.4-4c3.7-3 7.2-5 10.2-6 1.5-.5 2.7-.7 3.9-.6zM64 34.5c2.1 2.3 4.2 4.8 6.3 7.5H64l-6.3.1c2.1-2.7 4.2-5.2 6.3-7.5zm0 12c3.4 0 6.6.2 9.8.5a133 133 0 0 1 9.8 17 126 126 0 0 1-4.6 8.6 128.2 128.2 0 0 1-5.2 8.4 130.2 130.2 0 0 1-19.6 0 132.7 132.7 0 0 1-9.8-17 130.4 130.4 0 0 1 9.8-17c3.2-.3 6.4-.4 9.8-.4zm-15.8 1L44.9 53a142.6 142.6 0 0 0-3 5.5 93 93 0 0 1-3.3-9.2c3-.6 6.2-1.2 9.6-1.6zm31.7 0c3.4.5 6.6 1 9.7 1.7-1 3-2 6-3.4 9.2a142.6 142.6 0 0 0-6.3-10.8zm-45.9 3c1.4 4.3 3.1 8.9 5.3 13.6-2.2 4.7-4 9.2-5.3 13.6l-5.6-1.8A33 33 0 0 1 18 70c-2.3-2.1-3.3-4-3.3-6s1-3.8 3.3-6a42.4 42.4 0 0 1 16-7.5zm60.1 0c2 .5 3.9 1.1 5.6 1.8A33 33 0 0 1 110 58c2.3 2 3.3 4 3.3 6s-1 3.8-3.3 5.9c-2.3 2-5.8 4-10.3 5.8l-5.6 1.8c-1.4-4.3-3.1-8.9-5.3-13.6 2.2-4.7 4-9.2 5.3-13.6zm-30.1 4a9.6 9.6 0 0 0-9.6 9.6 9.6 9.6 0 0 0 9.6 9.6 9.6 9.6 0 1 0 0-19.3zM41.9 69.4a142.9 142.9 0 0 0 6.3 10.9c-3.4-.4-6.7-1-9.7-1.7 1-3 2-6 3.4-9.2zm44.2 0c1.3 3.2 2.5 6.3 3.4 9.2-3 .7-6.3 1.3-9.7 1.7a131.5 131.5 0 0 0 6.3-10.9zM37.2 83.2c4.4 1 9.3 1.8 14.4 2.3 3 4.2 6 8 9.1 11.3l-4.4 4a34 34 0 0 1-10.2 6c-3 1-5.1.8-6.7-.2-1.7-1-2.9-2.7-3.5-5.8-.7-3-.7-7 .1-11.9l1.2-5.8zm53.6 0a46.2 46.2 0 0 1 1.4 17.7c-.7 3-1.9 4.9-3.5 5.8-1.7 1-3.9 1-6.8.1-3-1-6.5-3-10.2-6a67 67 0 0 1-4.4-4c3.1-3.3 6.2-7 9.1-11.3a99 99 0 0 0 14.4-2.2zM57.7 86a144.9 144.9 0 0 0 12.5 0c-2 2.7-4.1 5.2-6.2 7.5-2.1-2.3-4.2-4.8-6.3-7.5z"/></svg>