<?xml version="1.0" encoding="UTF-8"?><svg xmlns="http://www.w3.org/2000/svg" viewBox="0 0 128 128"><path fill="#fff" d="M51.9 100c-1.3 0-2.4-.5-3.2-1.4-.9-.8-1.3-2-1.3-3.2s.4-2.4 1.3-3.3c.8-.8 2-1.2 3.2-1.2h61.7c1.3 0 2.4.4 3.2 1.2.9.9 1.3 2 1.3 3.3a4.4 4.4 0 0 1-4.5 4.6zM14.5 37c-1.3 0-2.4-.4-3.2-1.3s-1.3-2-1.3-3.2.4-2.4 1.3-3.2 2-1.3 3.2-1.3h99c1.3 0 2.4.4 3.2 1.3s1.3 2 1.3 3.2-.4 2.4-1.3 3.2-1.9 1.3-3.2 1.3zm37.4 31.5a4 4 0 0 1-3.2-1.3c-.9-.8-1.3-2-1.3-3.2s.4-2.4 1.3-3.2c.8-.9 2-1.3 3.2-1.3h61.7c1.3 0 2.4.4 3.2 1.3s1.3 1.9 1.3 3.2a4.4 4.4 0 0 1-4.5 4.5z"/></svg>