<?xml version="1.0" encoding="UTF-8"?><svg xmlns="http://www.w3.org/2000/svg" viewBox="0 0 128 128"><path fill="#fff" d="M64 13.5c-5.5 0-10.1 4.6-10.1 10.1 0 4.3 2.8 8 6.7 9.6v7.2H43.8a23.5 23.5 0 0 0-23.3 20.2h-.2c-5.6 0-10.3 4.6-10.3 10.1v13.5c0 5.5 4.7 10.1 10.3 10.1h.2a23.5 23.5 0 0 0 23.3 20.2h40.4c11.8 0 21.7-8.7 23.3-20.2h.3c5.5 0 10.3-4.6 10.3-10V70.6c0-5.5-4.8-10-10.3-10h-.3a23.5 23.5 0 0 0-23.3-20.3H67.4v-7.2c4-1.5 6.8-5.3 6.8-9.6 0-5.5-4.6-10.1-10.1-10.1zm0 6.7c1.9 0 3.4 1.5 3.4 3.4 0 1.7-1.3 3-3 3.3h-.8c-1.8-.2-3-1.6-3-3.3 0-1.9 1.5-3.4 3.4-3.4zM44.1 54.8a9 9 0 1 1 0 18 9 9 0 0 1 0-18zM84 55a9 9 0 1 1 0 18 9 9 0 0 1 0-18zM20.3 67.3v20.2a3.5 3.5 0 0 1-3.5-3.4V70.6c0-1.9 1.6-3.3 3.5-3.3zm87.5 0c1.9 0 3.5 1.5 3.5 3.3v13.5c0 2-1.6 3.4-3.5 3.4zM54 88.7s4 2.2 10.1 2.2 10.1-2.2 10.1-2.2c1.2-.3 2.3.7 3 1.6a4 4 0 0 1 0 3.5c-.7 1-1.8 1.3-3 1.6 0 0-4.8 1.4-10.1 1.4S54 95.4 54 95.4c-1.2-.3-2.3-.7-3-1.6a4 4 0 0 1 0-3.5c.7-1 1.8-1.9 3-1.6z" style="paint-order:stroke fill markers"/></svg>