<?xml version="1.0" encoding="UTF-8"?><svg xmlns="http://www.w3.org/2000/svg" viewBox="0 0 128 128"><path fill="#fff" d="M17.3 31.3a.7.7 0 0 0-.7.7v14.7a.7.7 0 0 0 .7.6H30v33.3H10.7a.7.7 0 0 0-.7.7V96a.7.7 0 0 0 .7.7H64a.7.7 0 0 0 .7-.7V81.3a.7.7 0 0 0-.7-.7H52.7v-9.3h12.7c3.5 0 5.4 1.4 6.8 3.7a27 27 0 0 1 2.9 8.4c.6 3.2 1.2 6.4 2.5 8.9 1.2 2.5 3.2 4.3 6.5 4.3h33.3a.7.7 0 0 0 .6-.6V70.7a.7.7 0 0 0-.6-.7h-8a.7.7 0 0 0-.7.7v2.6c0 2.6-.7 4.3-1.7 5.4s-2.4 1.7-3.8 1.8c-2.9.2-6-1.7-6.5-4.6A22 22 0 0 0 90 64.4l-.8-.5a20 20 0 0 0 8.8-9.1 15 15 0 0 0 0-11c-2.5-7-9.8-12.4-18-12.4zm35.3 16h16.7c2.6 0 4.4.6 5.6 1.5a4 4 0 0 1 1.7 3.2 4 4 0 0 1-1.7 3c-1.2 1-3 1.6-5.6 1.6H52.6z" color="#000"/></svg>