<?xml version="1.0" encoding="UTF-8"?><svg xmlns="http://www.w3.org/2000/svg" viewBox="0 0 128 128"><path fill="#fff" d="M64 56.3c9.5 0 18.4-.9 26.6-2.5a53.2 53.2 0 0 0 19.6-7.8v10.3c0 2.7-2 5.4-6.1 7.8s-9.7 4.3-17 5.6a129.7 129.7 0 0 1-46.3 0c-7.2-1.5-12.8-3.3-17-5.6s-6-4.9-6-7.8V46c4.8 3.5 11.3 6 19.6 7.8A138 138 0 0 0 64 56.3zm0 46.3c9.5 0 18.4-.9 26.6-2.5a53.2 53.2 0 0 0 19.6-7.8v10.3c0 2.7-2 5.4-6.1 7.8s-9.7 4.3-17 5.6a130.6 130.6 0 0 1-46.3 0c-7.2-1.5-12.8-3.3-17-5.6s-6-4.9-6-7.8V92.3c4.8 3.5 11.3 6 19.6 7.8a138 138 0 0 0 26.6 2.5zm0-23c9.5 0 18.4-.9 26.6-2.5s14.8-4.3 19.6-7.8v10.3c0 2.7-2 5.4-6.1 7.8s-9.7 4.3-17 5.6C80 94.4 72.5 95 64 95s-16-.7-23.2-2.1-12.8-3.3-17-5.6-6-4.9-6-7.8V69.3c4.8 3.5 11.3 6 19.6 7.8s17 2.5 26.6 2.5zm0-69.5c8.3 0 16 .7 23.2 2.2s12.8 3.2 16.9 5.5 6.1 4.9 6.1 7.8v7.7c0 2.7-2 5.4-6.1 7.8s-9.7 4.3-16.9 5.5-14.8 2.2-23.2 2.2-16-.7-23.2-2.2-12.8-3.2-16.9-5.5-6.1-4.9-6.1-7.8v-7.7c0-2.7 2-5.4 6.1-7.8s9.7-4.3 16.9-5.5A118 118 0 0 1 64 10z"/></svg>