<?xml version="1.0" encoding="UTF-8"?><svg xmlns="http://www.w3.org/2000/svg" viewBox="0 0 128 128"><path fill="#fff" d="m63.1 40-1.2-.3a2.1 2.1 0 0 1-.9-1l-2.8-6-6.1-2.8c-.5-.2-.8-.5-1-.9a2.3 2.3 0 0 1 0-2.4c.2-.4.5-.7 1-.9l6-2.7 2.9-6c.2-.5.5-.9.9-1a2.3 2.3 0 0 1 1.2-.5c.4 0 .8.2 1.2.4.4.2.7.6.9 1l2.9 6 6 2.8c.5.2.8.5 1 .9a2.3 2.3 0 0 1 0 2.4c-.2.4-.5.7-1 .9l-6 2.7-2.9 6c-.2.5-.5.9-1 1a2.4 2.4 0 0 1-1.1.4zM100 66.7c-.6 0-1.2-.2-1.7-.5a3 3 0 0 1-1.3-1.4l-4-8.6-8.7-4c-.7-.2-1.2-.7-1.5-1.2a3.2 3.2 0 0 1 0-3.4c.3-.5.8-1 1.5-1.3l8.7-3.9 4-8.5a3.2 3.2 0 0 1 3-2c.6 0 1.1.1 1.7.5.5.3 1 .8 1.3 1.4l4 8.6 8.7 4c.7.2 1.2.7 1.5 1.2s.5 1.1.5 1.7a3.4 3.4 0 0 1-2 3l-8.6 3.9-4.1 8.6c-.3.7-.8 1.1-1.3 1.5-.6.3-1.1.4-1.7.4zM10.3 65c.5-.7 1.7-1.4 3.4-1.7a68 68 0 0 1 11.5-.5c5.5 0 7.5 0 9.6-.4 2.4-.5 3.1-1.2 4.5-4.2 3.1-7.3 3.5-12.4 7-19 1.3-2 2.4-2.6 3.7-2.2.8.3 1.4 1 2.2 2.1 4 5.6 4.4 19.1 9.5 22.6 1.2.9 4 1.2 9.7 1.2h7.8c4.3.1 6.8.5 8.1 1.4 1.2.7 1.6 1.7 1.1 3-.7 1.8-3 4-8.6 8.1L73.6 80c-2.6 2-3.9 3.4-4.4 4.6-.4.7-.4 1-.3 2 0 2 .7 4.4 2.7 10.4 2.7 8.3 3.4 11.4 2.9 13.6-.2.7-.4 1-.8 1.4-.6.5-1.3.6-2.4.4-.5 0-.7-.1-1.9-.7l-1.8-.9a92.7 92.7 0 0 1-7.2-5c-5.5-4-7-5-9-5.9-.9-.4-1.5-.6-2.1-.6-1.6 0-4.1 1.5-9 5-3.9 3-5 3.7-6 4.4-4.5 3.2-7.3 4.3-8.8 3.6-1-.4-1.4-1.3-1.4-2.8-.1-2.2.5-5 2.6-11.3 2-6.5 2.6-8.2 3-10.2.4-2.5 0-3.5-1.4-5.2a54.3 54.3 0 0 0-7.7-6.1c-3.4-2.5-5.2-3.8-6.5-5a14 14 0 0 1-3.9-4.4c-.3-.8-.3-1.7.1-2.3z"/></svg>