<?xml version="1.0" encoding="UTF-8"?><svg xmlns="http://www.w3.org/2000/svg" viewBox="0 0 128 128"><path fill="#fff" d="M75.1 10c-5.6.1-11.2 1.7-16.1 4.8l-25.2 16a29 29 0 0 0-13.1 19.3 31 31 0 0 0-.5 5.4c0 5 1.2 9.8 3.5 14.1a29.1 29.1 0 0 0-4.3 10.8 31 31 0 0 0 5.3 23.3 33 33 0 0 0 44.2 9.5l25-16a28.6 28.6 0 0 0 13.6-24.7c0-5-1.2-9.8-3.5-14.1a29 29 0 0 0 4.3-10.8 30.7 30.7 0 0 0-5.3-23.3A33.7 33.7 0 0 0 75 10zm1.3 12.3c6.5 0 12.7 3.2 16.5 8.6a18.5 18.5 0 0 1 3.1 14 18.2 18.2 0 0 1-.6 2.4l-.5 1.4-1.3-1a32.6 32.6 0 0 0-9.8-4.9l-1-.2.2-1v-.5a6 6 0 0 0-1-3.2 6 6 0 0 0-5-2.6 6 6 0 0 0-1.5.2 5.3 5.3 0 0 0-1.6.7l-25.2 16c-1.2.8-2 2-2.3 3.5a6 6 0 0 0-.1 1c0 1.1.3 2.3 1 3.2a6 6 0 0 0 5 2.6c.4 0 1 0 1.4-.2a5.3 5.3 0 0 0 1.6-.7l9.6-6.1c1.6-1 3.3-1.8 5.1-2.3a20.2 20.2 0 0 1 5-.6 20 20 0 0 1 20 19.3c0 1-.1 2.2-.3 3.2a17.3 17.3 0 0 1-7.8 11.6l-25.1 16a18.4 18.4 0 0 1-5.2 2.3 20.1 20.1 0 0 1-21.4-8 18.5 18.5 0 0 1-2.6-16.3l.5-1.4 1.3 1c3 2.2 6.3 3.8 9.8 4.9l1 .3-.1 1v.4a5.5 5.5 0 0 0 1 3.2 6 6 0 0 0 5 2.7c.5 0 1 0 1.5-.2a5.6 5.6 0 0 0 1.5-.7l25.1-16a5.3 5.3 0 0 0 2.5-4.6 5.6 5.6 0 0 0-1-3.2 6 6 0 0 0-5-2.6 5.8 5.8 0 0 0-1.5.2 5.4 5.4 0 0 0-1.6.7L63 72.5a18.4 18.4 0 0 1-10.1 2.9 20 20 0 0 1-20-19.4A17.3 17.3 0 0 1 41 41.3l25.3-16a18.7 18.7 0 0 1 10.1-3z"/></svg>