<?xml version="1.0" encoding="UTF-8"?><svg xmlns="http://www.w3.org/2000/svg" viewBox="0 0 128 128"><path fill="#fff" d="M103 58.9a16 16 0 0 1 8 4.6c1.2 1.3 3 3.6 3 4.1.1.2-5.5 4-8.8 6-.2 0-.6-.4-1.2-1.3a7.2 7.2 0 0 0-6-3.6c-3.9-.2-6.4 1.8-6.4 5.2 0 1 .2 1.6.6 2.4.8 1.7 2.4 2.8 7.4 5 9.2 3.9 13.1 6.5 15.5 10.2a18.6 18.6 0 0 1 1.5 15.6c-2 5.3-7 8.9-14.2 10-2.2.4-7.4.4-9.8 0-5.1-1-10-3.5-13-6.8a22 22 0 0 1-3.3-5l1.2-.7 4.7-2.8 3.7-2 .8 1c1 1.7 3.4 4 4.9 4.7 4 2.1 9.6 1.8 12.5-.6a5 5 0 0 0 1.6-3.9c0-1.5-.2-2.1-1-3.2-1-1.4-3-2.6-8.7-5.1a30.9 30.9 0 0 1-12-7.5 17 17 0 0 1-3.5-6.4c-.5-1.8-.7-6.3-.3-8.1 1.4-6.4 6.2-10.8 13.1-12.2 2.3-.5 7.5-.3 9.7.3zm-30 5.3v5.3H56.3v47.3H44.5V69.5H27.8v-5.2c0-2.8.1-5.2.2-5.2 0-.1 10.2-.2 22.5-.1h22.4z"/></svg>