<?xml version="1.0" encoding="UTF-8"?><svg xmlns="http://www.w3.org/2000/svg" viewBox="0 0 128 128"><path fill="#fff" d="m87.6 10.2-39.2 7.27c-1.34.46-2.12 1.94-2.02 3.3l-.49 10.4-30.9-5.87a2.66 2.66 0 0 0-2.78 3.95l49.9 87.4a2.66 2.66 0 0 0 4.63-.02l48.9-87.4a2.66 2.66 0 0 0-2.79-3.92l-24.6 4.85 4.97-16.7c.47-1.96-1.25-4.16-5.67-3.28zm-.04 3.58c.85 0 1.51.83 1.26 1.7l-6.76 23.4c-.28.95.55 1.86 1.52 1.68l10.4-2c1.08-.2 1.93.91 1.44 1.9l-29.5 58.8-.53.82c-.8 1.24-2.72.45-2.42-.98l4.74-23a1.33 1.33 0 0 0-1.69-1.55l-6.22 1.9a1.34 1.34 0 0 1-1.69-1.55l3-14.7a1.34 1.34 0 0 0-1.6-1.56l-10.1 2.32c-.88.2-1.69-.49-1.64-1.37L50 22c.03-.6.47-1.1 1.07-1.23z"/></svg>