<?xml version="1.0" encoding="UTF-8"?><svg xmlns="http://www.w3.org/2000/svg" viewBox="0 0 128 128"><path fill="#fff" d="M118 60c-2-27-23-48-50-50h-7c-27 2-49 23-51 50v8c2 27 24 48 51 50h7c27-2 48-23 50-50v-8zM44 22c-4 4-6 10-9 17H25a47 47 0 0 1 19-17zM21 46h13a86 86 0 0 0-2 14H18a46 46 0 0 1 3-14zm-4 22h15l2 14H21a46 46 0 0 1-4-14zm8 21h10c3 7 5 13 9 17a47 47 0 0 1-19-17zm35 21c-7-2-13-10-17-21h17zm0-28H41l-2-14h21zm0-22H39l2-14h20zm0-21H43c4-11 10-19 17-21zm43 0H93c-2-7-5-13-9-17a47 47 0 0 1 19 17zM68 18c7 2 13 10 17 21H68zm0 28h19l2 14H68zm0 22h21l-2 14H68zm0 42V89h17c-4 11-10 19-17 21zm16-4c4-4 7-10 9-17h11a47 47 0 0 1-20 17zm23-24H95a86 86 0 0 0 1-14h15a46 46 0 0 1-4 14zM96 60a86 86 0 0 0-1-14h12a46 46 0 0 1 4 14z"/></svg>