<svg viewBox="0 0 128 128"><g fill="#fff"><path d="M63.608 10.281c-27.416 0-25.702 11.89-25.702 11.89l.03 12.317h26.161v3.699H27.541S10 36.197 10 63.858C10 91.524 25.31 90.544 25.31 90.544h9.141V77.706s-.494-15.312 15.068-15.312h25.947s14.577.235 14.577-14.093V24.614s2.214-14.333-26.436-14.333zM49.18 18.562c2.604 0 4.708 2.104 4.708 4.708s-2.104 4.708-4.708 4.708c-2.598 0-4.703-2.104-4.703-4.708s2.105-4.708 4.703-4.708z"/><path d="M64.39 117.716c27.414 0 25.701-11.89 25.701-11.89l-.03-12.318H63.9V89.81h36.556s17.541 1.99 17.541-25.672c0-27.666-15.312-26.686-15.312-26.686h-9.14v12.839s.494 15.311-15.068 15.311H52.529s-14.577-.234-14.577 14.093v23.688s-2.213 14.333 26.437 14.333zm14.425-8.281c-2.604 0-4.708-2.104-4.708-4.708s2.104-4.708 4.708-4.708c2.599 0 4.704 2.104 4.704 4.708s-2.105 4.708-4.704 4.708z"/></g></svg>