<svg version="1.1" viewBox="0 0 128 128" xmlns="http://www.w3.org/2000/svg"><style/><g fill="#fff" stroke-width=".52583"><path d="m18.15 56.043c-0.21033 0-0.26292-0.10517-0.15775-0.26292l1.1043-1.4198c0.10517-0.15775 0.36808-0.26292 0.57842-0.26292h18.772c0.21033 0 0.26292 0.15775 0.15775 0.3155l-0.89392 1.3672c-0.10517 0.15775-0.36808 0.3155-0.52583 0.3155zm-7.9401 4.8377c-0.21033 0-0.26292-0.10517-0.15775-0.26292l1.1043-1.4198c0.10517-0.15775 0.36808-0.26292 0.57842-0.26292h23.978c0.21033 0 0.3155 0.15775 0.26292 0.3155l-0.42067 1.262c-0.05258 0.21033-0.26292 0.3155-0.47325 0.3155zm12.725 4.8377c-0.21033 0-0.26292-0.15775-0.15775-0.3155l0.73617-1.3146c0.10517-0.15775 0.3155-0.3155 0.52583-0.3155h10.517c0.21033 0 0.3155 0.15775 0.3155 0.36808l-0.10517 1.262c0 0.21033-0.21033 0.36808-0.36808 0.36808z"/><path d="m77.517 55.096c-3.3128 0.84134-5.5738 1.4723-8.834 2.3137-0.78875 0.21033-0.84134 0.26292-1.5249-0.52584-0.78875-0.89392-1.3672-1.4723-2.4714-1.9982-3.3128-1.6301-6.5203-1.1568-9.5176 0.78875-3.5757 2.3137-5.4161 5.7316-5.3635 9.9909 0.05258 4.2067 2.9447 7.6772 7.0988 8.2556 3.5757 0.47325 6.5729-0.78875 8.9392-3.4705 0.47325-0.57842 0.89392-1.2094 1.4198-1.9456h-10.149c-1.1043 0-1.3672-0.68358-0.99909-1.5775 0.68358-1.6301 1.9456-4.3644 2.6818-5.7316 0.15775-0.3155 0.52584-0.84134 1.3146-0.84134h19.14c-0.10517 1.4198-0.10517 2.8395-0.3155 4.2593-0.57842 3.786-1.9982 7.2565-4.3118 10.306-3.786 4.9954-8.7289 8.0979-14.986 8.9392-5.1532 0.68358-9.9383-0.3155-14.145-3.4705-3.8912-2.9447-6.0997-6.8358-6.6781-11.674-0.68358-5.7316 0.99909-10.885 4.4696-15.407 3.7334-4.8903 8.6763-7.9927 14.723-9.0969 4.9428-0.89392 9.6754-0.3155 13.935 2.5766 2.7869 1.8404 4.7851 4.3644 6.0997 7.4143 0.3155 0.47325 0.10517 0.73617-0.52584 0.89392z"/><path d="m94.922 84.175c-4.7851-0.10517-9.1495-1.4723-12.83-4.6273-3.1024-2.6818-5.048-6.0997-5.679-10.149-0.9465-5.9419 0.68358-11.2 4.2593-15.88 3.8386-5.048 8.4659-7.6772 14.723-8.7814 5.3635-0.9465 10.412-0.42067 14.986 2.6818 4.1541 2.8395 6.7307 6.6781 7.4143 11.726 0.89392 7.0988-1.1568 12.883-6.0471 17.826-3.4705 3.5231-7.7298 5.7316-12.62 6.7307-1.4198 0.26292-2.8395 0.3155-4.2067 0.47325zm12.515-21.244c-0.0526-0.68358-0.0526-1.2094-0.15775-1.7353-0.9465-5.2058-5.7316-8.1504-10.727-6.9936-4.8903 1.1043-8.0453 4.2067-9.2021 9.1495-0.9465 4.1015 1.0517 8.2556 4.8377 9.9383 2.8921 1.262 5.7842 1.1043 8.5711-0.3155 4.1541-2.1559 6.4152-5.5213 6.6781-10.043z"/></g></svg>