<?xml version="1.0" encoding="UTF-8" standalone="no"?>
<svg
   xmlns:dc="http://purl.org/dc/elements/1.1/"
   xmlns:cc="http://creativecommons.org/ns#"
   xmlns:rdf="http://www.w3.org/1999/02/22-rdf-syntax-ns#"
   xmlns:svg="http://www.w3.org/2000/svg"
   xmlns="http://www.w3.org/2000/svg"
   id="svg19"
   style="display:block"
   version="1.1"
   viewBox="0 0 128 128"
   height="128"
   width="128"
   y="0"
   x="0">
  <metadata
     id="metadata23">
    <rdf:RDF>
      <cc:Work
         rdf:about="">
        <dc:format>image/svg+xml</dc:format>
        <dc:type
           rdf:resource="http://purl.org/dc/dcmitype/StillImage" />
        <dc:title></dc:title>
      </cc:Work>
    </rdf:RDF>
  </metadata>
  <defs
     id="defs7">
    <clipPath
       id="c0_1">
      <path
         id="path2"
         d="m 109.2,131.1 c -14.4,0 -26.9,-9.6 -30.6,-23.5 -3.8,-13.9 2.3,-28.5 14.7,-35.7 l 9.6,16.6 c -4.9,2.8 -7.4,8.6 -5.9,14.2 1.5,5.5 6.5,9.3 12.2,9.3 5.7,0 10.7,-3.8 12.2,-9.3 1.5,-5.6 -0.9,-11.4 -5.9,-14.2 l 9.6,-16.6 c 12.4,7.2 18.5,21.8 14.8,35.7 -3.8,13.9 -16.3,23.5 -30.7,23.5 z m -71.7,0 C 26.3,131.1 15.7,125.2 10,115.3 2.8,102.8 4.9,87.1 15,77 c 6.1,-6.2 14.3,-9.3 22.5,-9.3 5.4,0 10.9,1.4 15.8,4.2 l -9.5,16.6 c -2,-1.2 -4.2,-1.7 -6.3,-1.7 -3.3,0 -6.5,1.2 -9,3.7 -4,4 -4.8,10.3 -2,15.2 2.3,4 6.5,6.3 11,6.3 1,0 2.1,-0.1 3.2,-0.4 5.5,-1.5 9.4,-6.5 9.4,-12.2 h 19.1 c 0,14.4 -9.7,26.9 -23.5,30.6 -2.8,0.8 -5.5,1.1 -8.2,1.1 z M 57.1,64.2 C 44.7,57.1 38.6,42.4 42.3,28.5 46.1,14.7 58.6,5 73,5 c 14.4,0 26.9,9.7 30.6,23.5 3.8,13.9 -2.3,28.6 -14.7,35.7 L 79.3,47.7 C 84.2,44.8 86.7,39 85.2,33.5 83.7,28 78.7,24.1 73,24.1 c -5.7,0 -10.7,3.9 -12.2,9.4 -1.5,5.5 0.9,11.3 5.9,14.2 z" />
    </clipPath>
    <style
       id="style5"
       type="text/css"><![CDATA[

.g0_1{
fill: #D40000;
}

]]></style>
  </defs>
  <path
     d="M 49.814866,60.631502 C 38.994928,54.436212 33.672216,41.609345 36.900746,29.480539 40.216534,17.43899 51.12373,8.9750027 63.68882,8.9750027 c 12.56509,0 23.472287,8.4639873 26.700817,20.5055363 3.315788,12.128806 -2.006924,24.955673 -12.826863,31.150963 L 69.186047,46.233998 c 4.275621,-2.53047 6.45706,-7.591411 5.148197,-12.39058 -1.308864,-4.799167 -5.671742,-8.202213 -10.645424,-8.202213 -4.973681,0 -9.33656,3.403046 -10.645423,8.202213 -1.308864,4.799169 0.785318,9.86011 5.148196,12.39058 z"
     class="g0_1"
     id="path11"
     style="fill:#ffffff;stroke-width:0.8725757" />
  <path
     d="m 109.15002,67.350337 c 10.81994,6.282547 16.14265,19.022156 12.91412,31.150954 -3.31579,12.128819 -14.22298,20.505539 -26.788079,20.505539 -12.56509,0 -23.472287,-8.37672 -26.700817,-20.505539 -3.315788,-12.128798 2.006924,-24.868407 12.826863,-31.150954 l 8.376727,14.484762 c -4.275621,2.443213 -6.45706,7.504153 -5.148197,12.390572 1.308864,4.79917 5.671742,8.114959 10.645424,8.114959 4.973689,0 9.336569,-3.315789 10.645429,-8.114959 1.30886,-4.886419 -0.78532,-9.947359 -5.1482,-12.390572 z"
     class="g0_1"
     id="path13"
     style="fill:#ffffff;stroke-width:0.8725757" />
  <path
     d="m 60.373032,91.346171 c 0,12.565099 -8.463984,23.472299 -20.505529,26.700829 C 27.738701,121.36279 14.999096,116.04008 8.7165508,105.22014 2.4340057,94.312931 4.2664147,80.613493 13.079429,71.800475 21.979701,62.9002 35.67914,61.06779 46.499079,67.350337 l -8.28947,14.484762 c -4.362878,-2.530471 -9.772848,-1.83241 -13.350408,1.745152 -3.490303,3.490304 -4.188363,8.98753 -1.745151,13.26315 2.530469,4.362879 7.591408,6.457059 12.390575,5.148199 4.799166,-1.30887 8.202211,-5.671749 8.202211,-10.645429 z"
     class="g0_1"
     id="path15"
     style="fill:#ffffff;stroke-width:0.8725757" />
</svg>
